<?xml version="1.0" encoding="UTF-8" standalone="no"?>
<!-- Created with PhotoLine 22.50 (www.pl32.de) -->
<!DOCTYPE svg PUBLIC "-//W3C//DTD SVG 1.1//EN" "http://www.w3.org/Graphics/SVG/1.1/DTD/svg11.dtd">
<svg width="929" height="743" viewBox="0 0 929 743" version="1.1" xmlns="http://www.w3.org/2000/svg" xmlns:xlink="http://www.w3.org/1999/xlink">
  <defs>
    <linearGradient id="grad0" x1="342.23" y1="528.95" x2="263.04" y2="502.8" gradientUnits="userSpaceOnUse" gradientTransform="matrix(1.29 0 0 1.29 -9.92 -342.22)">
      <stop offset="0.13" stop-color="#1d1d1d" stop-opacity="0"/>
      <stop offset="0.14" stop-color="#1c1c1c" stop-opacity="0.2"/>
      <stop offset="0.15" stop-color="#1b1b1b" stop-opacity="0.37"/>
      <stop offset="0.16" stop-color="#1b1b1b" stop-opacity="0.51"/>
      <stop offset="0.17" stop-color="#1b1b1b" stop-opacity="0.63"/>
      <stop offset="0.19" stop-color="#1a1a1a" stop-opacity="0.74"/>
      <stop offset="0.23" stop-color="#1a1a1a" stop-opacity="0.84"/>
      <stop offset="0.3" stop-color="#191919" stop-opacity="0.92"/>
      <stop offset="0.52" stop-color="#191919"/>
    </linearGradient>
  </defs>
  <g transform="matrix(0.999986 0 0 0.999328 -135.49147 -78.197372)">
    <path fill="#f2f2f2" d="M1064.49 770.84 C1064.34 788.1 1063.27 802.72 1060.9 819.82 C1060.82 820.39 1060.73 820.96 1060.65 821.53 L907.2 820.67 C906.75 820.11 906.31 819.53 905.88 818.95 C904.45 817.03 903.11 815.06 901.87 813.02 C895.95 803.19 893.24 791.67 895.95 783.73 L896 783.61 C896.62 781.78 897.45 780.33 898.72 778.88 C904.92 771.9 917.45 773.07 928.82 778.7 C918.62 767.53 910.5 753.45 909.88 740.87 C909.28 728.61 915.69 719.85 922.65 712.4 C922.88 712.16 923.1 711.92 923.33 711.68 C923.44 711.56 923.56 711.44 923.67 711.32 C929.1 705.64 935.42 700.05 944.58 700.73 C954.63 701.47 965.76 709.88 973.57 719.68 C981.38 729.48 986.56 740.61 991.82 751.47 C997.09 762.32 1002.79 773.45 1011.24 782.73 C999.79 768.26 990.56 751.79 987.15 735.77 C983.75 719.75 986.75 704.36 996.95 696.82 C1000.19 694.49 1003.44 693.18 1007.4 692.6 C1007.84 692.53 1008.28 692.47 1008.74 692.42 C1018.18 691.34 1029.45 694.61 1039.04 702.41 C1049.61 711.01 1056.93 723.75 1060.57 735.85 C1064.22 747.94 1064.61 759.59 1064.49 770.84 Z"/>
  </g>
  <g transform="matrix(0.999986 0 0 0.999328 -135.49147 -78.197372)">
    <path fill="#ffffff" d="M964.09 820.99 L961.16 820.97 C960.23 820.39 959.29 819.81 958.35 819.25 C957.77 818.88 957.18 818.52 956.59 818.16 C946.86 812.22 937.07 806.52 927.21 801.06 C917.36 795.59 907.47 790.38 897.53 785.42 C896.98 785.18 896.68 784.6 896.82 784.02 C896.83 783.98 896.84 783.95 896.87 783.91 C897.01 783.65 897.32 783.55 897.77 783.77 C898.99 784.38 900.22 784.99 901.43 785.62 C911.41 790.66 921.34 795.96 931.22 801.51 C941.1 807.05 950.92 812.84 960.69 818.88 C960.9 819.01 961.1 819.14 961.31 819.26 C962.24 819.84 963.16 820.41 964.09 820.99 Z"/>
  </g>
  <g transform="matrix(0.999986 0 0 0.999328 -135.49147 -78.197372)">
    <path fill="#ffffff" d="M1001.93 821.2 L1000.11 821.19 C999.7 820.62 999.3 820.05 998.89 819.47 C989.28 805.99 979.66 792.51 970.05 779.02 C954.32 756.95 938.58 734.88 922.85 712.8 C922.75 712.68 922.69 712.56 922.65 712.4 C922.51 711.91 922.87 711.63 923.33 711.68 C923.74 711.74 924.07 711.94 924.29 712.29 C933.11 724.67 941.94 737.04 950.76 749.41 C966.41 771.37 982.07 793.34 997.72 815.29 C998.72 816.69 999.71 818.09 1000.71 819.48 C1001.12 820.06 1001.53 820.63 1001.93 821.2 Z"/>
  </g>
  <g transform="matrix(0.999986 0 0 0.999328 -135.49147 -78.197372)">
    <path fill="#ffffff" d="M1042.35 810.66 C1042.26 813.72 1042.05 816.73 1041.79 819.71 C1041.74 820.28 1041.69 820.85 1041.64 821.42 L1039.73 821.41 C1039.79 820.84 1039.85 820.27 1039.9 819.7 C1040.3 815.39 1040.59 811.04 1040.63 806.57 C1040.68 793.51 1039.6 782.43 1037.02 769.63 C1034.28 755.84 1030.93 744.35 1025.85 731.25 C1020.5 717.42 1015.04 706.07 1007.56 693.28 C1007.42 693.07 1007.37 692.85 1007.4 692.6 C1007.47 692.06 1008.2 691.9 1008.74 692.42 C1008.85 692.52 1008.93 692.63 1009.01 692.76 C1009.89 694.27 1010.75 695.79 1011.6 697.31 C1018.8 710.17 1024.03 721.56 1029.09 735.41 C1033.92 748.56 1037.04 760.06 1039.51 773.85 C1041.83 786.63 1042.68 797.67 1042.35 810.66 Z"/>
  </g>
  <g transform="matrix(0.999986 0 0 0.999328 -135.49147 -78.197372)">
    <path fill="#f2f2f2" d="M764.44 794.6 C764.36 803.62 763.8 811.26 762.56 820.19 C762.52 820.49 762.48 820.79 762.44 821.09 L682.25 820.64 C682.01 820.34 681.78 820.04 681.56 819.74 C680.81 818.74 680.11 817.71 679.46 816.64 C676.37 811.5 674.95 805.48 676.37 801.33 L676.39 801.27 C676.72 800.31 677.15 799.56 677.82 798.8 C681.05 795.15 687.6 795.76 693.54 798.7 C688.21 792.87 683.97 785.51 683.65 778.94 C683.33 772.53 686.68 767.95 690.32 764.06 C690.44 763.93 690.56 763.81 690.68 763.68 C690.73 763.62 690.8 763.56 690.85 763.49 C693.69 760.53 697 757.6 701.78 757.96 C707.03 758.35 712.85 762.74 716.93 767.86 C721.01 772.98 723.72 778.8 726.47 784.47 C729.22 790.15 732.2 795.96 736.61 800.81 C730.63 793.25 725.81 784.64 724.03 776.27 C722.25 767.9 723.81 759.86 729.14 755.92 C730.84 754.7 732.54 754.01 734.61 753.71 C734.84 753.67 735.07 753.64 735.31 753.62 C740.24 753.05 746.13 754.76 751.14 758.84 C756.76 763.66 760.33 769.2 762.4 776.31 C764.3 782.63 764.5 788.72 764.44 794.6 Z"/>
  </g>
  <g transform="matrix(0.999986 0 0 0.999328 -135.49147 -78.197372)">
    <path fill="#ffffff" d="M711.98 820.8 L710.44 820.8 C709.96 820.49 709.47 820.19 708.98 819.89 C708.67 819.7 708.36 819.52 708.06 819.33 C702.97 816.22 697.85 813.24 692.7 810.39 C687.56 807.53 682.39 804.81 677.19 802.22 C676.9 802.09 676.75 801.79 676.82 801.48 C676.83 801.46 676.83 801.45 676.85 801.43 C676.92 801.29 677.08 801.24 677.32 801.35 C677.95 801.67 678.6 801.99 679.23 802.32 C684.44 804.96 689.63 807.72 694.8 810.62 C699.96 813.52 705.09 816.55 710.2 819.7 C710.31 819.77 710.41 819.84 710.52 819.9 C711.01 820.2 711.49 820.5 711.98 820.8 Z"/>
  </g>
  <g transform="matrix(0.999986 0 0 0.999328 -135.49147 -78.197372)">
    <path fill="#ffffff" d="M731.75 820.91 L730.8 820.91 C730.59 820.61 730.38 820.31 730.16 820.01 C725.14 812.97 720.11 805.92 715.09 798.87 C706.87 787.34 698.64 775.8 690.42 764.27 C690.37 764.2 690.34 764.14 690.32 764.06 C690.25 763.8 690.44 763.65 690.68 763.68 C690.89 763.71 691.06 763.82 691.18 764 C695.79 770.47 700.4 776.94 705.01 783.4 C713.19 794.88 721.37 806.35 729.55 817.83 C730.07 818.56 730.59 819.29 731.11 820.02 C731.32 820.32 731.54 820.62 731.75 820.91 Z"/>
  </g>
  <g transform="matrix(0.999986 0 0 0.999328 -135.49147 -78.197372)">
    <path fill="#ffffff" d="M752.87 815.41 C752.82 817.01 752.72 818.58 752.58 820.14 C752.55 820.43 752.53 820.73 752.5 821.03 L751.5 821.03 C751.53 820.73 751.57 820.43 751.59 820.13 C751.8 817.88 751.95 815.6 751.97 813.27 C752 806.44 751.43 800.65 750.09 793.96 C748.65 786.76 746.91 780.76 744.25 773.91 C741.46 766.68 738.6 760.75 734.69 754.06 C734.62 753.96 734.59 753.84 734.61 753.71 C734.65 753.43 735.02 753.34 735.31 753.62 C735.37 753.67 735.41 753.73 735.45 753.8 C735.91 754.59 736.36 755.38 736.8 756.17 C740.56 762.89 743.3 768.85 745.94 776.08 C748.47 782.95 750.1 788.96 751.39 796.17 C752.6 802.85 753.04 808.62 752.87 815.41 Z"/>
  </g>
  <g transform="matrix(0.999986 0 0 0.999328 -135.49147 -78.197372)">
    <path fill="#3f3d56" d="M301.45 482.57 L151.17 482.57 C142.52 482.56 135.5 475.55 135.49 466.9 L135.49 286.39 C135.5 277.74 142.52 270.72 151.17 270.71 L301.45 270.71 C310.09 270.72 317.11 277.74 317.12 286.39 L317.12 466.9 C317.11 475.55 310.09 482.56 301.45 482.57 Z M151.17 272.71 C143.62 272.72 137.5 278.84 137.49 286.39 L137.49 466.9 C137.5 474.44 143.62 480.57 151.17 480.57 L301.45 480.57 C308.99 480.57 315.11 474.44 315.12 466.9 L315.12 286.39 C315.11 278.84 308.99 272.72 301.45 272.71 Z"/>
  </g>
  <g transform="matrix(0.999986 0 0 0.999328 -135.49147 -78.197372)">
    <path fill="#cccccc" d="M261.44 285.55 L191.18 285.55 C184.28 285.54 178.68 279.95 178.68 273.05 L178.68 270.38 C178.68 263.48 184.28 257.88 191.18 257.88 L261.44 257.88 C268.33 257.88 273.93 263.48 273.94 270.38 L273.94 273.05 C273.93 279.95 268.33 285.54 261.44 285.55 Z"/>
  </g>
  <g transform="matrix(0.999986 0 0 0.999328 -135.49147 -78.197372)">
    <path fill="#2196f3" d="M295.22 383.76 L157.39 383.76 C153.47 383.76 150.27 380.57 150.27 376.65 C150.27 372.72 153.46 369.53 157.38 369.53 C157.38 369.53 157.39 369.53 157.39 369.53 L295.22 369.53 C299.15 369.53 302.33 372.72 302.33 376.65 C302.33 380.57 299.14 383.76 295.22 383.76 Z"/>
  </g>
  <g transform="matrix(0.999986 0 0 0.999328 -135.49147 -78.197372)">
    <path fill="#2196f3" d="M295.22 413.99 L157.39 413.99 C153.47 413.99 150.27 410.81 150.27 406.88 C150.27 402.96 153.46 399.77 157.38 399.76 C157.38 399.76 157.39 399.76 157.39 399.76 L295.22 399.76 C299.15 399.77 302.33 402.96 302.33 406.88 C302.33 410.8 299.14 413.99 295.22 413.99 Z"/>
  </g>
  <g transform="matrix(0.999986 0 0 0.999328 -135.49147 -78.197372)">
    <path fill="#2196f3" d="M258.32 353.52 L194.29 353.52 C190.37 353.53 187.18 350.34 187.18 346.41 C187.17 342.49 190.36 339.3 194.28 339.3 C194.29 339.3 194.29 339.3 194.29 339.3 L258.32 339.3 C262.24 339.29 265.43 342.48 265.44 346.41 C265.44 350.33 262.25 353.52 258.33 353.52 C258.32 353.52 258.32 353.52 258.32 353.52 Z"/>
  </g>
  <g transform="matrix(0.999986 0 0 0.999328 -135.49147 -78.197372)">
    <path fill="#3f3d56" d="M620.68 302.95 L470.4 302.95 C461.76 302.94 454.74 295.92 454.73 287.28 L454.73 106.76 C454.74 98.12 461.76 91.1 470.4 91.09 L620.68 91.09 C629.33 91.1 636.34 98.12 636.35 106.76 L636.35 287.28 C636.34 295.92 629.33 302.94 620.68 302.95 Z M470.4 93.09 C462.86 93.1 456.74 99.22 456.73 106.76 L456.73 287.28 C456.74 294.82 462.86 300.94 470.4 300.95 L620.68 300.95 C628.22 300.94 634.35 294.82 634.35 287.28 L634.35 106.76 C634.35 99.22 628.22 93.1 620.68 93.09 Z"/>
  </g>
  <g transform="matrix(0.999986 0 0 0.999328 -135.49147 -78.197372)">
    <path fill="#cccccc" d="M580.67 105.93 L510.41 105.93 C503.52 105.92 497.92 100.32 497.91 93.43 L497.91 90.75 C497.92 83.85 503.52 78.26 510.41 78.25 L580.67 78.25 C587.57 78.26 593.16 83.85 593.17 90.75 L593.17 93.43 C593.16 100.32 587.57 105.92 580.67 105.93 Z"/>
  </g>
  <g transform="matrix(0.999986 0 0 0.999328 -135.49147 -78.197372)">
    <path fill="#2196f3" d="M614.46 204.13 L476.63 204.13 C472.7 204.14 469.51 200.95 469.5 197.03 C469.5 193.1 472.68 189.91 476.61 189.9 C476.61 189.9 476.62 189.9 476.63 189.9 L614.46 189.9 C618.38 189.9 621.58 193.08 621.58 197.01 C621.59 200.93 618.4 204.13 614.48 204.13 C614.47 204.13 614.46 204.13 614.46 204.13 Z"/>
  </g>
  <g transform="matrix(0.999986 0 0 0.999328 -135.49147 -78.197372)">
    <path fill="#2196f3" d="M614.46 234.37 L476.63 234.37 C472.7 234.37 469.51 231.18 469.5 227.26 C469.5 223.33 472.69 220.14 476.61 220.14 C476.62 220.14 476.62 220.14 476.63 220.14 L614.46 220.14 C618.38 220.13 621.57 223.32 621.58 227.24 C621.58 231.17 618.4 234.36 614.47 234.37 C614.47 234.37 614.46 234.37 614.46 234.37 Z"/>
  </g>
  <g transform="matrix(0.999986 0 0 0.999328 -135.49147 -78.197372)">
    <path fill="#2196f3" d="M577.55 173.9 L513.53 173.9 C509.6 173.9 506.41 170.72 506.41 166.79 C506.4 162.87 509.59 159.68 513.51 159.67 C513.52 159.67 513.52 159.67 513.53 159.67 L577.55 159.67 C581.48 159.67 584.66 162.87 584.66 166.79 C584.66 170.71 581.47 173.89 577.55 173.9 Z"/>
  </g>
  <g transform="matrix(0.999986 0 0 0.999328 -135.49147 -78.197372)">
    <path fill="#3f3d56" d="M927.28 607.09 L795.33 679.01 C787.73 683.14 778.21 680.33 774.06 672.75 L687.68 514.24 C683.55 506.65 686.36 497.13 693.94 492.98 L825.9 421.07 C833.5 416.94 843.02 419.74 847.16 427.33 L933.54 585.83 C937.67 593.43 934.87 602.95 927.28 607.09 Z M694.9 494.74 C688.28 498.35 685.84 506.66 689.44 513.28 L775.82 671.79 C779.44 678.41 787.74 680.85 794.37 677.25 L926.33 605.34 C932.94 601.72 935.39 593.42 931.79 586.79 L845.41 428.29 C841.79 421.67 833.48 419.22 826.86 422.82 Z"/>
  </g>
  <g transform="matrix(0.999986 0 0 0.999328 -135.49147 -78.197372)">
    <path fill="#cccccc" d="M797.87 453.24 L736.18 486.86 C730.12 490.16 722.53 487.92 719.22 481.87 L717.94 479.52 C714.65 473.46 716.88 465.87 722.93 462.56 L784.63 428.94 C790.68 425.65 798.28 427.88 801.58 433.93 L802.86 436.28 C806.16 442.34 803.92 449.94 797.87 453.24 Z"/>
  </g>
  <g transform="matrix(0.999986 0 0 0.999328 -135.49147 -78.197372)">
    <path fill="#cccccc" d="M874.53 523.31 L753.5 589.26 C750.06 591.15 745.73 589.88 743.85 586.44 C741.96 582.99 743.23 578.67 746.67 576.78 C746.68 576.78 746.69 576.77 746.7 576.77 L867.72 510.81 C871.17 508.94 875.5 510.21 877.37 513.66 C879.24 517.11 877.97 521.43 874.53 523.31 Z"/>
  </g>
  <g transform="matrix(0.999986 0 0 0.999328 -135.49147 -78.197372)">
    <path fill="#cccccc" d="M889 549.85 L767.97 615.81 C764.53 617.69 760.2 616.43 758.32 612.99 C756.43 609.54 757.7 605.21 761.14 603.33 C761.15 603.33 761.16 603.32 761.16 603.32 L882.19 537.36 C885.64 535.49 889.96 536.77 891.84 540.22 C893.7 543.66 892.43 547.97 889 549.85 Z"/>
  </g>
  <g transform="matrix(0.999986 0 0 0.999328 -135.49147 -78.197372)">
    <path fill="#cccccc" d="M827.66 514.42 L771.44 545.06 C768 546.94 763.67 545.67 761.79 542.22 C759.91 538.78 761.18 534.45 764.62 532.57 C764.63 532.57 764.63 532.56 764.63 532.56 L820.85 501.92 C824.29 500.04 828.62 501.31 830.51 504.75 C832.39 508.19 831.13 512.52 827.68 514.4 C827.67 514.41 827.67 514.41 827.66 514.42 Z"/>
  </g>
  <g transform="matrix(0.864792 -0.501771 0.502102 0.864223 -216.159759 148.037536)">
    <rect fill="#3f3d56" x="339.42" y="261.99" width="81.28" height="2"/>
  </g>
  <g transform="matrix(0.999986 0 0 0.999328 0 0)">
    <path fill="#3f3d56" d="M282.19 174.43 L292.12 157.13 L272.18 157.18 Z"/>
  </g>
  <g transform="matrix(0.999986 0 0 0.999328 -135.49147 -78.197372)">
    <path fill="#3f3d56" d="M622.73 510.19 C622.56 510.19 622.42 510.16 622.27 510.08 L352.12 371.31 C351.63 371.06 351.44 370.45 351.69 369.96 C351.94 369.47 352.54 369.28 353.03 369.53 L623.18 508.3 C623.67 508.55 623.87 509.16 623.62 509.65 C623.44 509.99 623.11 510.19 622.73 510.19 Z"/>
  </g>
  <g transform="matrix(0.999986 0 0 0.999328 0 0)">
    <path fill="#3f3d56" d="M480.08 438.48 L500 437.5 L489.19 420.74 Z"/>
  </g>
  <g transform="matrix(0.774154 0 0 0.774154 7.683247 264.928802)">
    <path fill="#4d4d4d" fill-opacity="0.49" d="M66.74 589.36 C66.74 589.36 66.95 594.04 75.63 606.58 C84.3 619.12 136.61 608.73 136.61 608.73 C144.42 622.83 163.9 620.52 186.73 618.55 C186.73 618.55 150.77 611.09 182.87 623.49 C214.97 635.89 279.75 613.42 317.54 606.72 C355.33 600.02 384.22 589.73 370.91 581.56 C357.6 573.4 256.35 576.01 260.99 583.66 C215.87 586.83 168.6 540.32 125.49 593.19 Z"/>
    <path d="M180.98 577.64 L133.92 539.62 C116.13 547.74 95.38 593.82 71.62 561.74 C93.47 509.51 152.9 453.4 176.04 440.85 C199.17 428.3 238.7 412.1 273.07 418.26 C307.44 424.41 364.8 478.76 364.8 478.76 L326.87 522.68 L284.19 563.15 C248.08 572.86 230.05 596.18 192.02 585.36 Z"/>
    <path fill="#2195f2" d="M176.62 350.72 C172.19 350.69 167.89 349.57 162.82 355.37 C146.52 372.78 143.09 399.34 150.82 409.1 L208.97 422.87 L258.88 391.05 Z"/>
    <path fill="#999999" d="M376.49 495.74 C381.28 497.27 380.39 501.64 381.76 504.89 C379.33 508.86 382.29 511.21 384.57 511.28 C386.85 511.36 388.68 507.9 388.68 507.9 L380.85 490.88 Z"/>
    <path fill="#1a1a1a" d="M243.03 338.96 C234.61 334.73 206.3 331.15 197.85 336.81 L191.92 335.83 C176.8 341.71 173.75 352.83 168.18 362.85 L171.48 370.49 L162.69 389.84 L156.53 393.39 C149.34 403.82 144.19 413.5 147.01 420.22 C140.65 419.5 134.29 427.16 127.94 434.31 C119.11 440.63 110.41 447.34 102.46 456.47 C100.12 459.38 94.96 461.33 99.75 466.68 C105.05 481.53 115.25 478.2 123.71 481.3 L133.82 472.32 C143.04 462.2 151.98 452.61 157.33 449.83 L178.8 442.73 C178.8 442.73 193.57 420.07 200.3 415.64 C207.04 411.21 214.89 403.18 215.85 390.52 C219.53 389.18 255.64 391.26 257.31 389.75 C259.27 387.97 268.45 381.51 263.56 379.06 C254.15 374.34 225.91 373.16 226.93 369.53 Z"/>
    <path d="M116.66 476.97 C127.73 471.18 138.8 462.48 149.87 448.95 L145.93 444.17 L150.91 447.91 C164.73 437.07 181.02 430.13 191.39 413.87 L186.61 409.09 L192.22 412.62 L201.77 394.77 C203.09 390.83 205.96 386.66 199.9 383.77 C207.94 383.99 212.6 380.83 215.67 376.09 L221.07 373.18 L254.91 378.17 L267.36 386.26 L259.47 396.85 L210.07 409.92 L161.29 450.19 L156.72 449.36 L123.3 481.33 Z"/>
    <path d="M275.31 368.41 L249.55 364.65 L210.21 357.13 C205.47 357.33 198.15 364.39 206.86 371.28 L270.31 383.31 Z"/>
    <path fill="#ffffff" stroke="#ffffff" d="M209.57 357.94 L272.57 368.67"/>
    <path fill="#1a1a1a" d="M371.01 489.56 L375.84 495.25 L382.76 496.39 C387.17 503.49 445.71 511.67 440.35 465.55 C438.32 457.72 438.89 451.17 441.91 444.04 L447.1 421.74 C447.1 421.74 457.49 399.96 455.49 387.14 C453.49 374.32 433.47 351.07 433.47 351.07 C436.23 324.42 452.56 293.98 408.79 270.7 L405.91 269.03 C392.23 267.14 386.66 270.67 377.97 273.02 C374.79 275.9 371.63 277.98 370.74 281.24 C359.77 289.47 360.01 301.28 357.19 312.67 C343.31 304.42 319.91 309.14 311.65 311.36 C303.39 313.57 289.63 326.66 286.28 328.05 C282.94 329.44 275.82 335.53 267.66 336.13 C259.5 336.72 251.18 335.56 241.12 338.58 C231.06 341.6 222.07 340.01 216.71 347.25 C211.36 354.48 217.16 356.14 217.16 356.14 L220.49 368.24 L225.98 383.37 C226.65 385.47 228.23 387.94 231.01 385.16 C234.51 388.99 236.18 386.26 237.44 383.93 C238.16 386.46 238.07 390.24 242.77 386.59 C245.5 383.92 249.04 384.16 250.84 378.15 L253.49 367.48 L259.69 367.62 C268.38 364.29 277.23 369.76 285.46 373.33 L376.93 435.01 L392.65 444.72 L401.43 439.95 C399.81 447.03 398.19 454.32 396.56 464.02 L387.77 466.12 L368.99 488.34 Z"/>
    <path d="M275.31 368.41 C262.79 366.57 258.67 364.76 246.15 362.96 C243.62 362.98 242.18 367.78 242.56 376.65 L270.31 383.31 Z"/>
    <path d="M278.97 568.31 C278.97 568.31 284.74 580.69 290.62 580.66 C296.5 580.63 304.73 565.22 304.73 565.22 L337.58 584.38 C342.94 587.49 362.92 587.6 368.23 578.84 C373.53 570.08 376.66 552.28 378.85 541.5 C381.04 530.73 365.34 489.22 364.38 492.02 L358.47 490.15 L296.42 548.3 Z"/>
    <path fill="#808080" d="M288.39 552.29 C288.39 552.29 280.93 558.68 277.64 558.23 C274.34 557.77 266.08 561.32 266.08 561.32 L317.6 478.22 L310.79 473.67 L316.9 467.01 C323.27 466.14 327.86 468.84 330.8 474.83 L326.34 481.49 Z"/>
    <path fill="#1a1a1a" d="M200.67 557.77 C166.25 614.62 249.41 558.69 268.91 512.98 C288.41 467.27 267.57 476.62 266.71 477.66 C257.68 488.67 265.74 462.79 283.31 462.56 C297.8 462.38 315.68 475.96 319.49 485.37 C317.1 511.84 281.56 581.5 220.79 620.86 C214.62 624.79 197.88 622.93 192.89 620.9 C161.83 604.37 178.32 574.87 209.36 529.44 C240.39 484.02 238.26 501.66 240.36 504.34 Z"/>
    <path fill="#808080" d="M256.67 497.65 C250.95 496.77 239.47 504.33 227.05 517.93 C210.51 536.06 198.55 558.06 200.36 567.07 C202.17 576.09 217.04 568.72 233.59 550.59 C250.14 532.46 262.1 510.44 260.29 501.42 C259.84 499.16 258.58 497.94 256.67 497.65 Z M246.92 511.18 C248.13 511.36 248.94 512.13 249.22 513.55 C250.36 519.24 242.84 533.1 232.41 544.54 C221.97 555.97 212.57 560.62 211.43 554.94 C210.29 549.25 217.84 535.39 228.27 523.96 C236.1 515.39 243.32 510.62 246.92 511.18 Z"/>
    <path fill="#333333" d="M247.58 545.15 C232.1 569.06 196.37 603.57 182.61 590.09 C168.86 576.6 212.54 514.43 236.32 490.1 L241.07 491.69 L249.67 482.46 C249.69 482.29 263.6 465.12 276.08 464.2 C288.55 463.28 279.71 485.02 274.46 495.67 C283.97 438.77 184.9 564.38 195.25 576.97 C205.6 589.57 247.58 545.15 247.58 545.15 Z"/>
    <path fill="#2195f2" d="M222.5 495.26 C234.24 493.95 252 499.44 283.62 467.31 C297.31 475.35 316.04 474.45 323.78 493.07 C328.21 492.09 324.59 474.09 306.82 464.05 C289.04 454 271.79 458.25 271.79 458.25 C259.77 460.49 244.03 473.86 239.92 479.07 C235.81 484.27 222.5 495.26 222.5 495.26 Z"/>
    <path fill="#808080" d="M140.61 483.89 C135.84 483.16 126.28 489.46 115.94 500.78 C102.16 515.88 92.2 534.2 93.71 541.71 C95.22 549.22 107.6 543.08 121.39 527.98 C135.17 512.88 145.13 494.54 143.63 487.03 C143.25 485.15 142.2 484.13 140.61 483.89 Z M132.49 495.16 C133.49 495.31 134.17 495.95 134.41 497.14 C135.36 501.87 129.09 513.42 120.4 522.94 C111.71 532.46 103.88 536.34 102.93 531.6 C101.98 526.87 108.27 515.33 116.96 505.8 C123.48 498.66 129.49 494.7 132.49 495.16 Z"/>
    <path fill="#333333" d="M124.71 526.05 C106.87 545.26 77.85 583.85 64.95 571.01 C52.06 558.16 95.61 501.48 119.09 479.46 L123.62 481.05 L132.11 472.68 C132.14 472.53 142.63 457.05 157.97 456.36 C173.3 455.67 157.76 479.11 152.76 485.68 C163.31 433.08 78.12 532.53 77.45 558.71 C76.77 584.89 124.71 526.05 124.71 526.05 Z"/>
    <g transform="matrix(1 0 0 1 62.680999 268.920013)">
      <path fill="#1a1a1a" d="M102.21 184.75 C98.51 184.79 89.95 189.06 85.44 189.62 C118.88 179.84 89 220.18 65.31 251.34 L65.28 252.64 C37.34 287.21 3.53 321.32 0.16 294.04 C-1.34 323.97 13.12 334.09 25.06 337.68 C28.03 338.95 49.04 338.86 53.37 335.71 C64.34 329.05 71.8 320.67 81.94 308 L69.03 264.03 L115.75 266.68 C125.79 253.94 128.01 243.87 132.01 231.68 C134.33 221.58 135.14 213.53 131.75 204.56 C126.51 195.43 122.2 184.54 102.21 184.75 Z"/>
    </g>
    <path d="M341.54 406.36 C361.63 398.28 399.81 385.71 372.62 352.11 C383.73 359.94 388.73 373.03 417.34 371.59 C422.25 376.21 419.54 391.52 416.26 396.77 C408.47 409.22 408.26 417.02 408.39 422.55 L401.6 440.83 L387.5 446.57 Z"/>
    <path fill="#cccccc" d="M319.29 344.76 C346.08 340.57 390.7 364.37 400.64 411.47 L361.87 419.97 C354.57 411.89 347.3 401.77 330.98 395.85 Z"/>
    <path fill="#333333" d="M370.85 281.22 C367.73 284.15 357.84 288.27 353.14 332.83 C362.23 343.46 370.34 352.73 385.86 363.34 C389.03 353.36 399.35 309.29 391.68 299.08 C385.46 290.78 381.59 274.66 378.08 272.99 C374.95 275.11 371.27 278.78 370.85 281.22 Z"/>
    <path fill="#1a1a1a" d="M278.97 568.31 C278.97 568.31 281.25 575.66 284.18 575.14 C287.11 574.62 301.25 558.89 303.35 559.24 C303.35 559.24 325 570.13 332.74 561.23 C342.05 555.45 348.01 555.29 358.26 551.74 C363.57 542.98 363.67 538.73 364.59 529.55 C365.51 520.36 365.34 489.22 364.38 492.02 L345.13 503.03 L312.06 544.62 Z"/>
    <path d="M259.21 365.01 C254.49 362.56 255.75 360.65 254.95 358.55 C269 359.34 282.68 358.7 295.17 353.27 L301.92 363.69 L277.56 370 L259.21 366.18 Z"/>
    <path d="M389.16 269.58 C389.16 269.58 395.52 274.19 398.63 275.23 C400.84 275.98 415.47 279.47 424.88 294.52 C434.28 309.56 423.16 370.25 420.06 370.64 C424.05 370.25 427.37 368.45 430.68 361.46 C433.99 354.46 439.33 324.51 438.42 307.29 C437.51 290.07 421.19 275.93 406.01 268.74 C394.46 267.52 392.03 268.76 389.16 269.58 Z"/>
    <g transform="matrix(0.070712 0.09367 -0.093694 0.070763 368.71466 294.101623)">
      <g transform="matrix(2.083333 -0 -0 -2.083333 39.03125 53.282501)">
        <path fill="#95c120" d="M-10.6 32.39 L-10.52 32.35 L-11.08 32.18 C-11.12 32.3 -11.37 32.73 -11.85 33.47 C-12.15 33.97 -12.26 34.35 -12.18 34.61 C-12.4 35.22 -12.61 35.84 -12.83 36.45 C-13.05 37.07 -13.27 37.69 -13.49 38.32 C-13.84 39.03 -14.24 39.61 -14.72 40.07 C-15.19 40.53 -15.72 40.86 -16.32 41.07 C-16.35 40.7 -16.38 40.31 -16.41 39.89 C-16.45 39.47 -16.49 39.04 -16.53 38.57 C-16.58 38.11 -16.63 37.62 -16.68 37.12 C-16.74 36.61 -16.8 36.08 -16.87 35.52 C-16.94 34.97 -17.01 34.4 -17.09 33.8 C-17.18 33.21 -17.27 32.59 -17.36 31.96 C-17.46 31.32 -17.56 30.66 -17.68 29.98 C-17.79 29.3 -17.91 28.6 -18.04 27.88 L-17.01 28.31 C-16.82 28.17 -16.63 28.05 -16.43 27.95 C-15.95 27.7 -15.39 27.79 -14.78 28.21 C-14.16 28.63 -13.61 28.72 -13.13 28.48 C-12.84 28.33 -12.52 28.07 -12.15 27.69 C-12.01 27.96 -11.6 28.37 -10.93 28.92 C-10.27 29.47 -9.91 29.96 -9.85 30.37 C-9.78 30.93 -10.03 31.6 -10.6 32.39 Z M-11.43 14.63 L-11.5 14.66 C-11.4 15.2 -11.67 16.07 -12.31 17.26 C-12.96 18.46 -13.15 19.34 -12.89 19.89 C-13.51 19.38 -14.3 19.36 -15.27 19.85 C-15.81 20.12 -16.3 20.48 -16.74 20.95 L-16.82 20.11 C-17.01 19.92 -17.51 19.98 -18.31 20.28 C-18.57 20.9 -18.69 21.28 -18.67 21.41 C-19.65 20.74 -19.92 20.14 -19.48 19.63 C-19.5 19.45 -19.53 19.21 -19.59 18.91 C-19.64 18.6 -19.71 18.23 -19.8 17.79 C-19.89 17.35 -20 16.84 -20.13 16.26 C-20.25 15.69 -20.4 15.04 -20.56 14.33 C-20.68 13.79 -20.78 13.27 -20.86 12.76 C-20.94 12.26 -21.01 11.77 -21.05 11.3 C-21.1 10.83 -21.13 10.38 -21.15 9.95 C-21.16 9.52 -21.16 9.1 -21.14 8.71 C-20.75 9.05 -20.33 9.24 -19.88 9.28 C-19.43 9.33 -18.95 9.22 -18.44 8.96 C-18.2 8.84 -17.78 8.6 -17.18 8.25 C-16.58 7.9 -16.12 7.64 -15.78 7.47 C-15.12 7.5 -14.55 7.75 -14.06 8.21 C-13.58 8.68 -13.19 9.36 -12.89 10.25 C-12.41 11.7 -12.04 12.78 -11.8 13.51 C-11.56 14.23 -11.44 14.61 -11.43 14.63 Z M-6.41 0.5 C-7.37 0.04 -8.29 -0.32 -9.17 -0.59 C-10.06 -0.87 -10.92 -1.05 -11.74 -1.14 C-12.56 -1.23 -13.35 -1.22 -14.1 -1.11 C-14.86 -1.01 -15.58 -0.8 -16.27 -0.5 C-16.53 -0.48 -16.8 -0.4 -17.09 -0.25 C-17.43 -0.08 -17.87 0.25 -18.41 0.77 C-18.96 1.28 -19.35 1.6 -19.59 1.72 C-19.98 1.91 -20.38 1.95 -20.77 1.83 C-21.41 2.14 -22.06 2.46 -22.7 2.78 C-23.35 3.09 -24.01 3.41 -24.66 3.73 C-25.31 4.06 -25.97 4.38 -26.63 4.7 C-27.29 5.03 -27.96 5.35 -28.62 5.68 C-28.51 6.34 -28.4 6.99 -28.28 7.64 C-28.17 8.29 -28.06 8.94 -27.95 9.58 C-27.84 10.23 -27.73 10.87 -27.62 11.51 C-27.51 12.15 -27.4 12.78 -27.3 13.42 C-27.2 14.2 -27.18 14.95 -27.22 15.66 C-27.26 16.38 -27.36 17.06 -27.54 17.72 C-27.71 18.38 -27.95 19 -28.26 19.6 C-28.56 20.2 -28.94 20.78 -29.38 21.32 C-29.3 22.11 -29.21 22.91 -29.11 23.72 C-29.02 24.53 -28.91 25.35 -28.8 26.19 C-28.69 27.02 -28.57 27.87 -28.45 28.74 C-28.33 29.6 -28.2 30.48 -28.06 31.37 C-27.98 31.96 -27.88 32.61 -27.78 33.31 C-27.68 34.02 -27.56 34.78 -27.44 35.59 C-27.33 36.41 -27.2 37.29 -27.07 38.23 C-26.94 39.17 -26.8 40.18 -26.66 41.24 C-26.57 42.13 -26.47 43.01 -26.38 43.91 C-26.3 44.81 -26.22 45.72 -26.14 46.64 C-26.07 47.56 -26 48.5 -25.94 49.44 C-25.89 50.39 -25.83 51.36 -25.79 52.33 C-25.41 52.19 -24.99 52.02 -24.53 51.82 C-24.07 51.62 -23.57 51.4 -23.03 51.14 C-22.49 50.89 -21.91 50.61 -21.29 50.3 C-20.68 50 -20.02 49.66 -19.32 49.3 C-18.63 48.94 -17.89 48.55 -17.12 48.14 C-16.35 47.73 -15.54 47.29 -14.69 46.82 C-13.85 46.36 -12.97 45.87 -12.05 45.36 C-11.13 44.85 -10.18 44.31 -9.19 43.75 C-8.7 43.38 -8.23 42.96 -7.79 42.48 C-7.34 42.01 -6.92 41.48 -6.51 40.89 C-6.11 40.31 -5.73 39.68 -5.37 39 C-5.01 38.32 -4.68 37.59 -4.37 36.8 C-4.09 36.11 -3.86 35.43 -3.67 34.77 C-3.47 34.11 -3.33 33.47 -3.22 32.85 C-3.11 32.24 -3.05 31.64 -3.03 31.06 C-3.01 30.48 -3.03 29.92 -3.1 29.37 C-3.16 28.83 -3.26 28.31 -3.4 27.81 C-3.54 27.32 -3.72 26.84 -3.93 26.39 C-4.14 25.94 -4.39 25.51 -4.68 25.1 C-4.96 24.7 -5.28 24.31 -5.64 23.95 C-6 23.58 -6.38 23.25 -6.77 22.96 C-7.16 22.66 -7.57 22.39 -7.99 22.16 C-8.42 21.92 -8.86 21.72 -9.31 21.55 C-9.76 21.38 -10.23 21.24 -10.72 21.13 C-10.97 21.16 -11.26 21.45 -11.58 22 C-12.08 21.82 -12.3 21.63 -12.23 21.45 C-11.95 20.97 -11.17 20.31 -9.92 19.49 C-8.95 18.81 -8.37 18.01 -8.18 17.09 C-7.68 16.99 -7.07 17.11 -6.35 17.45 C-5.62 17.79 -4.91 17.76 -4.22 17.37 C-3.83 16.63 -3.51 15.88 -3.26 15.13 C-3.01 14.38 -2.83 13.62 -2.71 12.85 C-2.6 12.09 -2.55 11.31 -2.57 10.52 C-2.59 9.74 -2.68 8.94 -2.84 8.14 C-2.97 7.44 -3.15 6.76 -3.36 6.1 C-3.58 5.43 -3.84 4.78 -4.14 4.15 C-4.43 3.51 -4.77 2.89 -5.15 2.28 C-5.53 1.67 -5.95 1.08 -6.41 0.5 Z"/>
      </g>
      <g transform="matrix(2.083333 -0 -0 -2.083333 115.229583 44.131454)">
        <path fill="#95c120" d="M-17.58 17.22 L-17.52 17.11 C-17.52 16.94 -17.48 17.14 -17.4 17.72 C-17.32 18.31 -17.21 19.29 -17.08 20.66 C-17.01 21.34 -17.04 21.96 -17.15 22.54 C-17.26 23.12 -17.46 23.65 -17.74 24.13 C-17.97 23.86 -18.18 23.47 -18.39 22.95 C-18.6 22.43 -18.81 21.78 -19 21.01 C-19.21 20.25 -19.42 19.62 -19.66 19.13 C-19.89 18.64 -20.14 18.28 -20.4 18.05 C-20.94 18.36 -21.35 18.79 -21.63 19.33 C-21.91 19.87 -22.05 20.53 -22.07 21.3 C-22.15 22.6 -22.22 23.6 -22.26 24.27 C-22.31 24.95 -22.34 25.3 -22.34 25.33 L-22.42 24.34 C-22.61 24.23 -22.83 24.1 -23.07 23.96 C-23.32 23.82 -23.55 23.85 -23.76 24.06 C-23.79 23.77 -23.96 23.37 -24.26 22.87 C-24.57 22.38 -24.73 22.02 -24.76 21.77 C-24.8 21.34 -24.59 20.88 -24.13 20.4 C-24.25 19.95 -24.36 19.48 -24.45 19 C-24.54 18.52 -24.62 18.02 -24.69 17.5 C-24.73 17.22 -24.78 16.75 -24.84 16.1 C-24.91 15.46 -24.99 14.63 -25.09 13.62 C-25.15 12.81 -25.22 12.08 -25.32 11.42 C-25.41 10.76 -25.53 10.17 -25.66 9.65 C-25.27 9.41 -24.9 9.21 -24.55 9.04 C-23.78 8.66 -23.11 8.52 -22.53 8.62 C-21.96 8.72 -21.48 9.05 -21.11 9.62 C-20.99 9.78 -20.81 10.21 -20.56 10.9 C-20.33 11.6 -20.03 12.56 -19.69 13.8 C-19.42 14.74 -19.11 15.5 -18.76 16.07 C-18.41 16.64 -18.02 17.02 -17.58 17.22 Z M-18.39 -14.12 L-18.45 -14.09 C-18.67 -14.37 -18.86 -14.75 -19.02 -15.23 C-19.19 -15.72 -19.32 -16.31 -19.44 -17.01 C-19.6 -17.99 -19.72 -18.74 -19.81 -19.25 C-19.89 -19.77 -19.94 -20.04 -19.94 -20.06 C-20.17 -20.06 -20.41 -19.75 -20.66 -19.16 C-21.25 -19.14 -21.61 -19.46 -21.73 -20.15 C-21.75 -20.25 -21.76 -20.43 -21.76 -20.7 L-21.86 -21.29 C-21.96 -21.84 -22.15 -22.18 -22.45 -22.31 C-22.69 -21.89 -23 -21.49 -23.36 -21.1 C-23.72 -20.72 -24.14 -20.35 -24.62 -19.99 C-25.1 -19.64 -25.57 -19.29 -26.03 -18.95 C-26.48 -18.62 -26.93 -18.29 -27.36 -17.97 C-27.18 -17.15 -27.01 -16.33 -26.85 -15.51 C-26.69 -14.71 -26.54 -13.9 -26.39 -13.09 C-26.25 -12.29 -26.11 -11.5 -25.99 -10.7 C-25.86 -9.91 -25.75 -9.12 -25.64 -8.33 C-25.53 -7.54 -25.44 -6.75 -25.35 -5.96 C-25.27 -5.18 -25.19 -4.39 -25.13 -3.61 C-25.06 -2.82 -25.01 -2.04 -24.97 -1.25 C-24.92 -0.46 -24.89 0.33 -24.87 1.12 L-24.53 2.92 C-24.31 3.78 -24.32 4.49 -24.55 5.04 L-25.1 4.8 C-25.08 4.89 -24.9 4.98 -24.55 5.07 C-24.2 5.17 -23.99 5.35 -23.95 5.61 C-23.92 5.75 -23.92 5.89 -23.94 6.05 L-24.31 6.74 C-24.75 6.81 -25.11 6.69 -25.4 6.39 C-25.68 6.1 -25.88 5.61 -26.01 4.95 C-26.17 4.06 -26.6 3.61 -27.27 3.6 C-27.1 3.28 -27.04 2.96 -27.1 2.65 C-27.13 2.47 -27.21 2.24 -27.34 1.96 C-27.47 1.68 -27.55 1.46 -27.58 1.28 C-27.66 0.88 -27.57 0.47 -27.32 0.05 C-27.44 -0.55 -27.56 -1.15 -27.68 -1.75 C-27.8 -2.35 -27.92 -2.96 -28.04 -3.57 C-28.16 -4.17 -28.28 -4.78 -28.4 -5.4 C-28.52 -6.01 -28.65 -6.63 -28.77 -7.25 C-28.91 -8 -29.07 -8.71 -29.22 -9.4 C-29.38 -10.09 -29.54 -10.75 -29.7 -11.38 C-29.87 -12.01 -30.04 -12.61 -30.21 -13.17 C-30.39 -13.74 -30.57 -14.28 -30.75 -14.79 L-30.97 -16.04 C-31.27 -15.84 -31.62 -15.65 -32.01 -15.45 C-32.45 -15.24 -33.09 -14.96 -33.94 -14.62 C-34.8 -14.28 -35.42 -14.02 -35.82 -13.82 C-36.65 -13.41 -37.33 -12.95 -37.86 -12.43 C-38.39 -11.91 -38.78 -11.34 -39.01 -10.72 C-38.9 -10.16 -38.79 -9.6 -38.68 -9.04 C-38.57 -8.48 -38.46 -7.93 -38.35 -7.38 C-38.24 -6.84 -38.13 -6.29 -38.02 -5.75 C-37.9 -5.21 -37.79 -4.67 -37.68 -4.14 C-37.57 -3.6 -37.45 -3.07 -37.34 -2.54 C-37.23 -2.01 -37.11 -1.48 -37 -0.96 C-36.89 -0.43 -36.78 0.09 -36.66 0.61 C-36.55 1.13 -36.44 1.65 -36.33 2.17 C-36.22 2.68 -36.11 3.2 -36 3.72 C-35.89 4.23 -35.78 4.74 -35.67 5.26 C-35.56 5.77 -35.45 6.29 -35.34 6.8 C-35.23 7.31 -35.13 7.82 -35.02 8.34 C-34.92 8.85 -34.81 9.36 -34.71 9.88 C-34.61 10.39 -34.5 10.91 -34.4 11.42 C-34.3 11.94 -34.2 12.46 -34.1 12.97 C-34.01 13.49 -33.91 14.01 -33.81 14.53 C-33.83 14.88 -33.84 15.26 -33.83 15.66 C-33.82 16.06 -33.8 16.49 -33.77 16.95 C-33.74 17.4 -33.7 17.89 -33.64 18.4 C-33.59 18.91 -33.52 19.45 -33.45 20.02 C-33.34 20.86 -33.23 21.7 -33.13 22.55 C-33.03 23.4 -32.93 24.27 -32.84 25.14 C-32.79 25.79 -32.75 26.41 -32.72 27 C-32.7 27.59 -32.69 28.15 -32.69 28.68 C-32.69 29.22 -32.7 29.72 -32.72 30.19 C-32.75 30.66 -32.78 31.1 -32.83 31.51 C-32.58 32.4 -31.91 32.58 -30.81 32.03 C-30.46 31.86 -30.06 31.61 -29.61 31.28 C-29.16 30.95 -28.65 30.54 -28.1 30.05 C-27.53 30.09 -26.77 29.88 -25.82 29.41 C-25.55 29.28 -25.12 29.05 -24.54 28.71 L-23.19 28.05 C-22.32 27.62 -21.58 27.44 -20.97 27.49 C-20.36 27.54 -19.88 27.83 -19.53 28.37 C-19.13 28.15 -18.73 27.82 -18.31 27.39 C-17.9 26.96 -17.48 26.43 -17.05 25.79 C-16.63 25.16 -16.22 24.63 -15.84 24.2 C-15.46 23.78 -15.09 23.46 -14.74 23.24 C-14.33 22.59 -13.98 21.91 -13.69 21.2 C-13.4 20.49 -13.18 19.75 -13.02 18.99 C-12.86 18.23 -12.77 17.44 -12.74 16.62 C-12.72 15.82 -12.76 14.98 -12.87 14.12 C-12.89 13.93 -12.96 13.61 -13.06 13.17 C-13.17 12.72 -13.31 12.15 -13.5 11.46 C-13.7 10.77 -13.93 9.96 -14.22 9.03 C-14.5 8.1 -14.84 7.06 -15.22 5.9 C-15.86 5.62 -16.51 5.33 -17.15 5.05 C-17.8 4.76 -18.45 4.48 -19.1 4.2 C-19.04 3.82 -19 3.35 -18.97 2.78 C-18.94 2.22 -18.93 1.56 -18.94 0.8 C-18.95 0.05 -18.97 -0.8 -19.01 -1.74 C-19.06 -2.68 -19.12 -3.72 -19.2 -4.85 C-19.27 -5.8 -19.3 -6.7 -19.3 -7.56 C-19.3 -8.42 -19.27 -9.24 -19.2 -10.01 C-19.13 -10.79 -19.03 -11.52 -18.9 -12.2 C-18.76 -12.89 -18.59 -13.53 -18.39 -14.12 Z"/>
      </g>
      <g transform="matrix(2.083333 -0 -0 -2.083333 192.226455 137.972915)">
        <path fill="#95c120" d="M-35.07 14 C-35.47 14.13 -35.95 14.38 -36.51 14.75 C-37.18 15.23 -37.61 15.51 -37.8 15.6 C-38.43 15.9 -38.99 15.87 -39.48 15.52 L-40.59 14.02 C-40.73 14.41 -41.12 14.76 -41.77 15.07 C-42.42 15.38 -42.81 15.76 -42.94 16.19 C-43.13 15.91 -43.4 15.84 -43.75 16.01 L-44.52 16.38 C-44.44 16.61 -44.52 17 -44.76 17.55 C-45 17.23 -45.31 17.16 -45.71 17.35 C-46.58 17.82 -46.91 18.03 -46.7 17.99 L-46.98 18.6 C-47.37 18.36 -47.64 18.33 -47.78 18.5 C-48.04 18.79 -48.1 19.3 -47.96 20.04 C-47.31 19.91 -46.75 19.94 -46.3 20.12 C-45.85 20.3 -45.51 20.63 -45.26 21.12 C-45.37 21.9 -45.74 22.55 -46.39 23.07 C-47.27 23.75 -47.78 24.2 -47.91 24.42 C-48.12 24.47 -48.51 24.52 -49.08 24.59 C-49.64 24.65 -50.05 24.74 -50.29 24.86 C-50.87 25.14 -51.16 25.8 -51.18 26.84 C-51.24 27.23 -51.25 27.54 -51.2 27.77 C-51.1 28.24 -50.66 28.36 -49.88 28.13 C-49.09 27.9 -48.62 27.86 -48.46 27.98 C-48 28.12 -47.55 28.26 -47.11 28.4 C-46.67 28.54 -46.23 28.68 -45.8 28.83 C-45.24 29.02 -44.73 29.09 -44.24 29.06 C-43.76 29.03 -43.31 28.9 -42.9 28.65 C-42.83 28.34 -42.8 27.93 -42.8 27.42 C-42.8 26.91 -42.83 26.29 -42.9 25.56 C-42.97 24.83 -43 24.2 -43 23.66 C-43.01 23.12 -42.98 22.68 -42.92 22.34 C-42.79 21.79 -42.57 21.29 -42.27 20.85 C-41.97 20.41 -41.58 20.02 -41.11 19.69 L-40.26 21 C-39.97 21.54 -39.62 21.76 -39.21 21.67 C-38.85 21.5 -38.41 21.02 -37.89 20.24 C-37.37 19.45 -36.91 18.96 -36.52 18.78 C-36.29 18.67 -36.02 18.62 -35.72 18.63 C-35.46 18.04 -35.31 17.24 -35.26 16.23 C-35.17 15.02 -35.1 14.28 -35.07 14 Z M-29.06 28.97 L-28.98 29 C-29.02 28.9 -29.1 28.71 -29.2 28.42 C-29.31 28.14 -29.44 27.76 -29.6 27.29 C-29.76 26.81 -29.94 26.25 -30.16 25.59 C-30.38 24.92 -30.62 24.16 -30.9 23.31 C-31.1 22.71 -31.3 22.15 -31.49 21.62 C-31.69 21.09 -31.88 20.59 -32.07 20.12 C-32.26 19.64 -32.45 19.21 -32.63 18.8 C-32.82 18.39 -33 18.01 -33.18 17.67 C-33.43 17.69 -33.65 17.74 -33.85 17.83 C-34.23 18.01 -34.47 18.52 -34.57 19.37 C-34.67 20.21 -34.83 20.68 -35.06 20.79 C-35.3 20.9 -35.67 20.85 -36.19 20.63 C-36.5 21.01 -36.8 21.38 -37.1 21.76 C-37.4 22.13 -37.69 22.51 -37.97 22.88 C-38.55 23.64 -38.69 24.5 -38.39 25.46 L-37.84 25.58 C-37.82 25.88 -37.8 26.22 -37.77 26.6 C-37.74 26.99 -37.69 27.41 -37.64 27.87 C-37.58 28.33 -37.52 28.84 -37.44 29.38 C-37.37 29.92 -37.28 30.5 -37.18 31.12 C-37.09 31.74 -36.98 32.4 -36.87 33.1 C-36.75 33.79 -36.63 34.53 -36.49 35.31 C-36.36 36.09 -36.22 36.91 -36.07 37.76 C-35.92 38.62 -35.76 39.52 -35.6 40.47 C-35.46 41.27 -35.33 42.04 -35.22 42.8 C-35.11 43.57 -35.02 44.31 -34.94 45.04 C-34.86 45.77 -34.8 46.48 -34.76 47.17 C-34.71 47.86 -34.68 48.54 -34.67 49.2 C-34.65 49.86 -34.65 50.5 -34.67 51.13 C-34.69 51.75 -34.72 52.36 -34.76 52.95 C-34.81 53.54 -34.87 54.11 -34.94 54.66 C-35.02 55.21 -35.11 55.74 -35.21 56.26 C-35.56 56.26 -35.76 56.05 -35.81 55.61 C-35.86 54.91 -35.88 54.59 -35.87 54.64 L-36.77 57.45 C-37.06 57.27 -37.24 56.81 -37.33 56.09 C-37.41 55.1 -37.49 54.55 -37.55 54.42 C-38.07 54.77 -38.49 54.79 -38.8 54.48 C-39.11 54.17 -39.42 53.86 -39.73 53.55 C-39.77 53.07 -39.82 52.58 -39.86 52.1 C-39.91 51.62 -39.96 51.14 -40.01 50.66 C-40.06 50.19 -40.11 49.71 -40.17 49.24 C-40.22 48.77 -40.28 48.3 -40.33 47.83 C-40.39 47.36 -40.45 46.9 -40.51 46.43 C-40.57 45.97 -40.63 45.5 -40.69 45.04 C-40.75 44.58 -40.81 44.12 -40.88 43.66 C-40.94 43.2 -41.01 42.74 -41.07 42.28 C-41.14 41.82 -41.21 41.36 -41.27 40.91 C-41.34 40.45 -41.41 39.99 -41.48 39.53 C-41.55 39.08 -41.62 38.62 -41.69 38.16 C-41.76 37.71 -41.83 37.25 -41.91 36.79 C-41.98 36.34 -42.05 35.88 -42.12 35.42 C-42.2 34.96 -42.27 34.51 -42.35 34.05 C-42.42 33.59 -42.49 33.13 -42.57 32.67 C-42.64 32.2 -42.72 31.74 -42.79 31.28 L-43.77 30.78 L-44.05 31.36 C-44.14 31.35 -44.43 31.25 -44.93 31.07 C-45.43 30.89 -46.13 30.61 -47.04 30.25 C-47.58 30.03 -48.13 29.96 -48.7 30.03 C-49.28 30.1 -49.86 30.32 -50.47 30.69 C-50.42 31.47 -50.37 32.24 -50.32 33.02 C-50.27 33.79 -50.22 34.56 -50.17 35.34 C-50.12 36.11 -50.07 36.87 -50.03 37.64 C-49.98 38.41 -49.93 39.18 -49.88 39.95 C-49.81 40.9 -49.74 41.81 -49.66 42.67 C-49.58 43.54 -49.49 44.37 -49.4 45.15 C-49.31 45.94 -49.21 46.69 -49.11 47.39 C-49.01 48.1 -48.9 48.77 -48.79 49.4 C-48.64 50.23 -48.47 51.03 -48.29 51.8 C-48.1 52.57 -47.9 53.3 -47.68 53.99 C-47.45 54.69 -47.21 55.35 -46.95 55.97 C-46.69 56.6 -46.41 57.18 -46.11 57.73 C-45.81 58.29 -45.49 58.81 -45.15 59.28 C-44.81 59.76 -44.45 60.21 -44.07 60.61 C-43.69 61.02 -43.29 61.38 -42.86 61.71 C-42.44 62.04 -41.99 62.32 -41.52 62.57 C-41.33 62.53 -41.01 62.5 -40.56 62.48 C-40.11 62.45 -39.54 62.43 -38.84 62.43 C-38.27 62.43 -37.75 62.39 -37.29 62.3 C-36.83 62.22 -36.42 62.1 -36.07 61.94 C-35.49 61.67 -34.94 61.25 -34.42 60.69 C-34.31 61.06 -34.04 61.16 -33.62 60.96 C-33.21 60.77 -32.96 60.68 -32.87 60.7 C-32.53 59.63 -31.91 58.94 -31 58.63 C-30.49 57.88 -30.03 57.1 -29.62 56.3 C-29.21 55.5 -28.84 54.68 -28.53 53.84 C-28.22 52.99 -27.95 52.13 -27.74 51.24 C-27.52 50.36 -27.36 49.45 -27.24 48.53 C-27.16 47.85 -27.1 47.13 -27.07 46.37 C-27.04 45.62 -27.04 44.83 -27.07 44.01 C-27.11 43.19 -27.17 42.33 -27.26 41.45 C-27.36 40.56 -27.48 39.64 -27.64 38.69 C-27.77 37.92 -27.9 37.15 -28.04 36.38 C-28.17 35.62 -28.31 34.86 -28.45 34.09 C-28.59 33.33 -28.73 32.57 -28.88 31.81 C-29.02 31.05 -29.17 30.29 -29.31 29.53 Z"/>
      </g>
      <g transform="matrix(2.083333 -0 -0 -2.083333 267.818542 137.972915)">
        <path fill="#95c120" d="M-47.77 3.15 L-47.73 3.06 C-48.31 3.32 -48.64 3.63 -48.73 3.99 L-49.13 3.77 L-49.38 4.28 L-50.81 4.93 C-51.58 5.28 -52.16 5.4 -52.54 5.31 C-52.76 5.72 -52.94 6.17 -53.08 6.67 C-53.22 7.17 -53.32 7.71 -53.37 8.3 C-53.42 8.89 -53.43 9.52 -53.39 10.19 C-53.35 10.86 -53.27 11.57 -53.14 12.32 C-52.98 13.29 -52.84 14.17 -52.72 14.95 C-52.6 15.73 -52.51 16.41 -52.43 17 C-52.36 17.59 -52.3 18.09 -52.27 18.5 C-52.24 18.91 -52.23 19.23 -52.25 19.46 C-52.32 20.23 -52.34 21 -52.32 21.78 C-52.31 22.56 -52.25 23.34 -52.15 24.13 C-52.05 24.92 -51.91 25.71 -51.73 26.51 C-51.55 27.31 -51.33 28.11 -51.07 28.92 L-51.45 30.48 C-51.62 29.77 -51.99 29.32 -52.57 29.11 C-53.15 28.91 -53.73 28.73 -54.33 28.55 C-54.45 28.56 -54.57 28.59 -54.69 28.64 C-54.95 28.76 -55.24 29.05 -55.56 29.51 C-55.87 29.97 -56.1 30.25 -56.25 30.37 C-56.59 29.99 -56.92 30.05 -57.22 30.55 C-57.53 31.06 -57.81 31.12 -58.07 30.76 C-58.07 30.32 -57.87 29.89 -57.48 29.47 C-57.09 29.05 -56.51 28.64 -55.74 28.24 C-54.97 27.84 -54.41 27.46 -54.06 27.1 C-53.72 26.74 -53.59 26.39 -53.67 26.06 C-53.79 25.58 -54.23 25 -54.99 24.31 C-55.28 24.07 -55.53 23.78 -55.77 23.44 C-56 23.11 -56.21 22.72 -56.4 22.28 C-56.59 21.84 -56.75 21.35 -56.9 20.81 C-57.04 20.27 -57.15 19.68 -57.25 19.03 C-57.36 18.3 -57.48 17.62 -57.61 17 C-57.74 16.38 -57.87 15.82 -58 15.31 C-58.13 14.81 -58.27 14.36 -58.42 13.97 C-58.56 13.59 -58.71 13.26 -58.86 12.99 C-58.99 12.8 -59.08 12.55 -59.15 12.27 C-59.22 11.94 -59.24 11.47 -59.21 10.85 C-59.18 10.23 -59.2 9.78 -59.26 9.49 C-59.34 9.1 -59.53 8.79 -59.82 8.55 C-60.09 8.94 -60.47 9.27 -60.97 9.53 C-61.46 9.79 -62.07 9.99 -62.79 10.12 C-63.51 10.26 -64.11 10.49 -64.57 10.81 C-65.03 11.13 -65.36 11.54 -65.56 12.05 C-65.76 12.55 -65.88 13.07 -65.91 13.61 C-65.95 14.14 -65.91 14.69 -65.79 15.26 C-65.67 15.83 -65.4 16.66 -64.99 17.75 C-64.58 18.83 -64.3 19.66 -64.16 20.25 C-63.98 21.02 -63.93 21.78 -64.02 22.52 C-63.86 22.85 -63.71 23.23 -63.56 23.64 C-63.41 24.04 -63.26 24.49 -63.12 24.96 C-62.97 25.44 -62.83 25.94 -62.69 26.49 C-62.54 27.03 -62.41 27.61 -62.27 28.22 C-62.05 29.18 -61.86 30.02 -61.7 30.76 C-61.53 31.49 -61.39 32.11 -61.28 32.62 C-61.17 33.13 -61.08 33.52 -61.02 33.8 C-60.96 34.09 -60.92 34.26 -60.91 34.31 C-61.19 34.39 -60.93 34.24 -60.11 33.87 C-59.8 33.73 -59.55 33.79 -59.36 34.04 C-59.64 34.63 -59.81 35.23 -59.87 35.85 C-59.94 36.46 -59.91 37.1 -59.77 37.74 C-59.66 38.28 -59.39 39.09 -58.98 40.18 C-58.77 40.73 -58.6 41.21 -58.47 41.64 C-58.35 42.06 -58.25 42.43 -58.2 42.72 C-58.14 43.05 -58.09 43.45 -58.06 43.94 C-58.02 44.44 -58 45.01 -58 45.68 C-57.99 46.35 -57.98 46.93 -57.95 47.44 C-57.93 47.94 -57.89 48.36 -57.84 48.7 C-57.76 49.26 -57.63 49.93 -57.45 50.73 C-57.28 51.53 -57.06 52.46 -56.8 53.52 C-56.55 54.59 -56.34 55.56 -56.18 56.43 C-56.03 57.31 -55.91 58.08 -55.84 58.73 C-55.25 58.42 -54.65 58.11 -54.06 57.8 C-53.47 57.48 -52.88 57.17 -52.29 56.86 C-51.7 56.55 -51.11 56.25 -50.52 55.94 C-49.93 55.63 -49.35 55.32 -48.76 55.02 C-48.79 54.59 -48.83 54.13 -48.9 53.64 C-48.97 53.15 -49.05 52.63 -49.16 52.09 C-49.26 51.54 -49.39 50.97 -49.54 50.37 C-49.69 49.77 -49.86 49.15 -50.05 48.49 C-50.26 47.8 -50.45 47.16 -50.63 46.57 C-50.8 45.99 -50.96 45.45 -51.1 44.96 C-51.23 44.47 -51.35 44.03 -51.45 43.63 C-51.54 43.24 -51.62 42.89 -51.67 42.59 C-51.77 42.03 -51.84 41.48 -51.88 40.94 C-51.92 40.41 -51.92 39.89 -51.9 39.38 L-52.08 38.49 C-52.2 38.1 -52.13 37.8 -51.88 37.59 C-51.81 38.32 -51.59 39.05 -51.2 39.78 C-50.82 40.51 -50.28 41.24 -49.58 41.96 C-48.83 42.77 -48.24 43.53 -47.82 44.25 C-47.41 44.96 -47.15 45.63 -47.06 46.24 C-46.99 46.73 -46.96 47.22 -46.98 47.7 C-46.67 47.88 -46.35 48.19 -46.03 48.65 C-45.72 49.11 -45.4 49.71 -45.08 50.47 C-44.77 51.22 -44.47 51.83 -44.17 52.29 C-43.86 52.75 -43.56 53.06 -43.27 53.2 C-42.78 52.9 -42.3 52.61 -41.82 52.31 C-41.34 52.01 -40.86 51.71 -40.38 51.42 C-39.9 51.12 -39.42 50.83 -38.95 50.53 C-38.47 50.24 -37.99 49.95 -37.51 49.65 L-37.68 48.17 L-38.02 48.39 C-38.4 47.63 -38.78 46.88 -39.17 46.14 C-39.55 45.4 -39.95 44.67 -40.34 43.95 C-40.86 43.15 -41.38 42.46 -41.9 41.86 C-42.43 41.26 -42.96 40.76 -43.49 40.36 C-43.72 39.79 -43.92 39.21 -44.1 38.61 C-44.28 38.01 -44.43 37.39 -44.56 36.74 C-44.68 36.19 -44.77 35.57 -44.85 34.88 C-44.93 34.18 -45 33.42 -45.04 32.58 C-45.1 31.75 -45.13 30.85 -45.15 29.87 C-45.18 28.9 -45.19 27.86 -45.18 26.75 C-45.19 25.6 -45.21 24.54 -45.25 23.55 C-45.29 22.56 -45.35 21.65 -45.41 20.82 C-45.48 19.99 -45.56 19.23 -45.66 18.55 C-45.75 17.86 -45.86 17.26 -45.98 16.73 C-46 16.55 -46.03 16.3 -46.06 15.97 C-46.1 15.65 -46.13 15.24 -46.18 14.76 C-46.22 14.28 -46.27 13.72 -46.32 13.09 C-46.37 12.45 -46.42 11.73 -46.48 10.93 C-46.51 10.34 -46.56 9.77 -46.61 9.23 C-46.65 8.69 -46.71 8.18 -46.77 7.69 C-46.83 7.21 -46.9 6.75 -46.97 6.33 C-47.04 5.9 -47.12 5.5 -47.2 5.13 C-47.37 4.41 -47.55 3.75 -47.77 3.15 Z"/>
      </g>
      <g transform="matrix(2.083333 -0 -0 -2.083333 325.914794 40.364566)">
        <path fill="#95c120" d="M-48.39 -14.43 C-48.73 -14.34 -49.11 -14.21 -49.53 -14.04 C-49.96 -13.87 -50.45 -13.62 -51.01 -13.32 C-51.57 -13.01 -52.19 -12.63 -52.88 -12.19 C-53.74 -11.68 -54.43 -11.27 -54.95 -10.97 C-55.47 -10.66 -55.83 -10.45 -56.01 -10.35 C-56.37 -10.74 -56.68 -11.26 -56.95 -11.91 C-57.22 -12.55 -57.45 -13.31 -57.64 -14.19 C-58.06 -16.08 -58.36 -17.42 -58.54 -18.23 C-58.73 -19.04 -58.78 -19.32 -58.7 -19.08 C-58.27 -19.66 -58.17 -20.44 -58.42 -21.42 C-58.8 -22.74 -58.98 -23.43 -58.95 -23.49 C-59.25 -23.51 -59.5 -23.9 -59.69 -24.64 C-60.05 -24.3 -60.39 -23.76 -60.69 -23.04 C-61.12 -22.12 -61.24 -21.38 -61.05 -20.82 L-61.49 -21.08 L-61.72 -20.54 C-62.03 -20.45 -62.5 -20.06 -63.13 -19.35 C-63.76 -18.63 -64.18 -18.03 -64.4 -17.54 C-64.23 -16.82 -64.04 -16.46 -63.83 -16.45 L-64.34 -15.19 L-64.82 -15.65 C-64.75 -15.04 -64.67 -14.42 -64.58 -13.8 C-64.5 -13.18 -64.41 -12.56 -64.31 -11.94 C-64.22 -11.32 -64.12 -10.69 -64.01 -10.06 C-63.91 -9.43 -63.8 -8.79 -63.69 -8.16 C-63.57 -7.52 -63.45 -6.87 -63.33 -6.23 C-63.21 -5.58 -63.08 -4.92 -62.95 -4.26 C-62.82 -3.6 -62.68 -2.94 -62.54 -2.27 C-62.41 -1.59 -62.26 -0.92 -62.12 -0.23 C-61.76 -0.46 -61.39 -0.69 -61.02 -0.92 C-60.64 -1.14 -60.25 -1.36 -59.86 -1.57 C-59.46 -1.79 -59.05 -2 -58.63 -2.2 C-58.22 -2.41 -57.79 -2.61 -57.35 -2.81 C-57.06 -2.94 -56.73 -3.09 -56.38 -3.24 C-56.02 -3.4 -55.64 -3.56 -55.22 -3.73 C-54.81 -3.9 -54.36 -4.09 -53.89 -4.28 C-53.41 -4.47 -52.91 -4.66 -52.38 -4.87 C-51.77 -5.11 -51.2 -5.33 -50.68 -5.54 C-50.15 -5.74 -49.67 -5.93 -49.24 -6.1 C-48.8 -6.27 -48.41 -6.43 -48.05 -6.57 C-47.7 -6.71 -47.4 -6.83 -47.13 -6.94 C-46.76 -7.68 -46.65 -8.51 -46.79 -9.42 C-46.88 -9.97 -47.14 -10.8 -47.56 -11.92 C-48 -13.03 -48.27 -13.86 -48.39 -14.43 Z M-56.65 -46.9 L-56.63 -46.83 C-57 -47.35 -57.31 -48 -57.54 -48.79 C-57.71 -49.3 -57.89 -50.04 -58.08 -51.02 C-58.31 -52.16 -58.47 -52.96 -58.57 -53.4 C-59.14 -53.15 -59.72 -52.9 -60.29 -52.66 C-60.86 -52.41 -61.44 -52.16 -62.02 -51.91 C-62.63 -51.64 -63.21 -51.43 -63.78 -51.28 C-64.35 -51.13 -64.89 -51.03 -65.42 -50.99 L-66.12 -49.06 C-66.49 -49.32 -66.67 -49.59 -66.65 -49.88 C-66.74 -49.81 -66.99 -49.69 -67.4 -49.51 C-67.82 -49.32 -68.4 -49.08 -69.14 -48.78 C-69.72 -48.52 -70.21 -48.26 -70.63 -48 C-71.05 -47.73 -71.39 -47.46 -71.64 -47.18 C-72.02 -47.47 -72.38 -47.54 -72.73 -47.39 C-73.07 -47.23 -73.4 -46.86 -73.71 -46.26 C-73.94 -45.84 -73.86 -45.31 -73.49 -44.7 C-73.12 -44.1 -73.07 -43.55 -73.36 -43.05 C-73.26 -42.67 -73.15 -42.24 -73.01 -41.77 C-72.88 -41.29 -72.73 -40.78 -72.56 -40.21 C-72.38 -39.65 -72.19 -39.04 -71.98 -38.38 C-71.77 -37.73 -71.54 -37.04 -71.29 -36.3 C-71.06 -35.64 -70.85 -35.02 -70.65 -34.44 C-70.45 -33.86 -70.26 -33.31 -70.1 -32.8 C-69.93 -32.28 -69.78 -31.81 -69.65 -31.36 C-69.51 -30.92 -69.4 -30.51 -69.29 -30.14 C-69.16 -29.63 -69.03 -29.12 -68.92 -28.62 C-68.8 -28.12 -68.7 -27.62 -68.61 -27.12 C-68.51 -26.62 -68.43 -26.12 -68.36 -25.63 C-68.29 -25.13 -68.23 -24.64 -68.19 -24.15 C-67.65 -23.84 -67.12 -23.8 -66.6 -24.03 C-66.3 -24.16 -66 -24.38 -65.69 -24.7 C-65.38 -25.01 -65.07 -25.42 -64.75 -25.93 C-63.85 -27.34 -63.39 -28.06 -63.35 -28.08 L-63.14 -28.68 C-63.07 -28.56 -62.69 -27.94 -62.01 -26.81 C-61.6 -26.06 -61.18 -25.63 -60.73 -25.52 L-60.51 -26.06 C-60.34 -26.04 -59.74 -25.82 -58.73 -25.42 C-57.96 -25.16 -57.39 -25.11 -57.02 -25.26 C-56.61 -25.43 -56.29 -25.86 -56.07 -26.55 C-55.55 -27.21 -55.3 -27.99 -55.33 -28.88 C-55.35 -29.78 -55.39 -30.66 -55.42 -31.53 C-56.26 -31.23 -57.02 -30.92 -57.69 -30.62 C-58.37 -30.32 -58.97 -30.03 -59.48 -29.74 C-59.87 -30.11 -60.26 -30.03 -60.65 -29.49 C-61.04 -28.96 -61.4 -28.86 -61.74 -29.21 C-61.94 -29.92 -62.14 -30.63 -62.34 -31.35 C-62.54 -32.06 -62.73 -32.78 -62.93 -33.5 C-63.21 -34.42 -63.45 -35.25 -63.65 -35.99 C-63.85 -36.72 -64.01 -37.37 -64.14 -37.92 C-64.35 -38.76 -64.52 -39.58 -64.67 -40.38 C-64.82 -41.19 -64.94 -41.97 -65.03 -42.73 C-64.35 -43.03 -63.66 -43.33 -62.97 -43.63 C-62.28 -43.92 -61.6 -44.22 -60.91 -44.52 C-60.48 -44.7 -60.08 -44.89 -59.69 -45.08 C-59.3 -45.27 -58.92 -45.47 -58.57 -45.67 C-58.21 -45.86 -57.88 -46.06 -57.56 -46.27 C-57.24 -46.48 -56.93 -46.69 -56.65 -46.9 Z"/>
      </g>
      <g transform="matrix(2.083333 -0 -0 -2.083333 393.087066 138.866043)">
        <path fill="#95c120" d="M-70.11 -13.05 C-70.5 -13.86 -70.94 -14.17 -71.41 -13.97 C-71.6 -13.9 -71.87 -13.7 -72.24 -13.39 C-72.61 -13.07 -72.9 -12.87 -73.12 -12.78 C-73.48 -12.63 -73.83 -12.67 -74.17 -12.92 C-74.59 -12.47 -75.01 -11.98 -75.45 -11.45 C-75.88 -10.92 -76.09 -10.3 -76.08 -9.61 C-75.73 -9.25 -75.4 -8.89 -75.1 -8.51 C-74.8 -8.14 -74.54 -7.76 -74.3 -7.37 C-74.06 -6.98 -73.86 -6.58 -73.68 -6.18 C-73.5 -5.78 -73.36 -5.36 -73.25 -4.95 C-73.13 -4.53 -73.03 -4.1 -72.95 -3.67 C-72.68 -2.98 -72.45 -2.33 -72.27 -1.72 C-72.08 -1.12 -71.95 -0.55 -71.86 -0.03 C-71.77 0.48 -71.72 0.96 -71.73 1.4 C-71.73 1.83 -71.78 2.22 -71.88 2.58 L-72.39 2.33 C-72.46 2.66 -72.53 2.97 -72.61 3.25 C-72.71 3.74 -72.92 4.05 -73.25 4.19 C-73.4 4.25 -73.56 4.27 -73.73 4.23 C-73.44 4.86 -73.35 5.49 -73.45 6.11 C-73.55 6.74 -73.84 7.36 -74.34 7.99 C-74.93 8.75 -75.38 9.41 -75.69 9.97 C-75.99 10.52 -76.16 10.98 -76.17 11.33 C-76.59 10.91 -76.94 10.32 -77.24 9.55 C-77.54 8.78 -77.78 7.84 -77.97 6.73 C-78.19 5.35 -78.39 4.25 -78.57 3.42 C-78.75 2.58 -78.91 2.03 -79.05 1.76 C-79.36 1 -79.81 0.47 -80.39 0.16 C-80.97 -0.14 -81.69 -0.22 -82.53 -0.07 C-82.67 0.3 -83.02 0.57 -83.58 0.76 C-84.32 1.02 -84.73 1.19 -84.83 1.28 C-84.67 2.08 -84.5 2.86 -84.34 3.65 C-84.17 4.43 -84 5.2 -83.83 5.98 C-83.66 6.75 -83.48 7.52 -83.3 8.28 C-83.13 9.05 -82.95 9.81 -82.77 10.57 C-82.59 11.32 -82.4 12.08 -82.22 12.84 C-82.04 13.59 -81.85 14.35 -81.67 15.1 C-81.48 15.86 -81.3 16.61 -81.11 17.36 C-80.92 18.12 -80.74 18.88 -80.55 19.64 C-80.37 20.39 -80.19 21.16 -80 21.92 C-79.82 22.68 -79.64 23.45 -79.45 24.22 C-79.28 25 -79.1 25.77 -78.92 26.55 C-78.74 27.34 -78.57 28.13 -78.4 28.92 C-78.23 29.72 -78.06 30.52 -77.89 31.32 C-77.73 32.14 -77.56 32.95 -77.4 33.78 C-77.25 34.61 -77.09 35.44 -76.94 36.29 C-76.79 37.13 -76.65 37.99 -76.5 38.85 C-76.14 38.9 -75.68 38.85 -75.14 38.71 C-74.59 38.57 -73.96 38.34 -73.23 38.03 C-72.51 37.71 -71.88 37.49 -71.33 37.35 C-70.79 37.22 -70.33 37.17 -69.97 37.21 C-69.75 36.21 -69.53 35.22 -69.31 34.24 C-69.11 33.26 -68.9 32.29 -68.7 31.33 C-68.76 30.6 -68.8 29.86 -68.81 29.1 C-68.82 28.35 -68.8 27.58 -68.76 26.8 C-68.72 26.02 -68.65 25.22 -68.55 24.41 C-68.46 23.6 -68.34 22.78 -68.2 21.94 C-68.33 21.44 -68.46 20.94 -68.59 20.44 C-68.72 19.94 -68.85 19.44 -68.99 18.95 C-69.25 19.35 -69.52 19.83 -69.8 20.38 C-70.09 20.93 -70.39 21.56 -70.7 22.26 C-70.93 22.86 -71.18 23.46 -71.42 24.06 C-71.67 24.67 -71.93 25.28 -72.19 25.89 C-72.28 25.37 -72.59 25.15 -73.14 25.25 C-73.69 25.34 -74 25.23 -74.08 24.91 C-74.12 24.77 -74.13 24.57 -74.11 24.31 C-73.82 23.9 -73.54 23.48 -73.26 23.06 C-72.97 22.64 -72.69 22.22 -72.41 21.8 C-72.13 21.38 -71.85 20.96 -71.58 20.54 C-71.3 20.12 -71.02 19.7 -70.75 19.28 C-70.4 18.73 -70.12 18.19 -69.89 17.66 C-69.67 17.14 -69.51 16.62 -69.4 16.11 C-69.3 15.61 -69.26 15.11 -69.27 14.63 C-69.29 14.14 -69.37 13.67 -69.5 13.21 C-69.58 12.94 -69.68 12.66 -69.81 12.37 L-69.12 10.53 C-68.83 10.66 -68.66 10.82 -68.61 10.99 C-68.56 11.17 -68.6 11.48 -68.73 11.93 C-68.87 12.38 -68.89 12.71 -68.78 12.92 C-68.65 13.39 -68.51 13.85 -68.37 14.32 C-68.24 14.8 -68.1 15.27 -67.97 15.74 C-67.83 16.21 -67.7 16.69 -67.56 17.16 C-67.43 17.64 -67.3 18.12 -67.17 18.6 C-67.01 19.17 -66.88 19.72 -66.76 20.25 C-66.64 20.79 -66.54 21.29 -66.46 21.78 C-66.38 22.26 -66.31 22.73 -66.27 23.17 C-66.22 23.61 -66.19 24.02 -66.18 24.41 C-65.81 24.78 -65.56 25.22 -65.44 25.74 C-65.36 26.12 -65.3 26.72 -65.29 27.54 C-65.28 28.37 -65.22 29 -65.13 29.44 C-65.08 29.73 -65 29.99 -64.92 30.23 C-64.92 30.43 -64.9 30.64 -64.86 30.84 C-64.78 31.28 -64.54 31.81 -64.14 32.44 C-63.75 33.07 -63.52 33.48 -63.45 33.67 C-63.21 33.68 -63.03 33.53 -62.92 33.22 C-62.82 32.9 -62.73 32.6 -62.66 32.3 C-61.78 32.28 -60.98 32.14 -60.26 31.87 C-59.55 31.61 -58.91 31.22 -58.36 30.71 C-58.51 29.9 -58.67 29.1 -58.83 28.3 C-59 27.51 -59.17 26.73 -59.34 25.95 C-59.52 25.18 -59.7 24.41 -59.88 23.64 C-60.06 22.89 -60.25 22.13 -60.44 21.38 C-60.64 20.63 -60.83 19.89 -61.03 19.15 C-61.23 18.42 -61.44 17.68 -61.64 16.96 C-61.85 16.23 -62.06 15.5 -62.27 14.78 C-62.48 14.06 -62.7 13.35 -62.91 12.63 C-63.13 11.92 -63.35 11.2 -63.57 10.49 C-63.79 9.78 -64.01 9.07 -64.23 8.36 C-64.46 7.65 -64.68 6.94 -64.91 6.23 C-65.13 5.52 -65.36 4.81 -65.58 4.1 C-65.81 3.38 -66.03 2.67 -66.26 1.95 C-66.48 1.23 -66.7 0.51 -66.93 -0.21 C-67.15 -0.93 -67.37 -1.66 -67.6 -2.39 C-67.82 -3.12 -68.04 -3.86 -68.25 -4.59 L-68.06 -5.21 C-68.24 -5.85 -68.42 -6.48 -68.59 -7.12 C-68.77 -7.77 -68.94 -8.41 -69.11 -9.06 C-69.28 -9.72 -69.45 -10.37 -69.62 -11.04 C-69.78 -11.7 -69.95 -12.37 -70.11 -13.05 Z M-81.7 -6.86 L-81.64 -6.88 C-82.67 -6.82 -83.29 -6.8 -83.53 -6.8 C-84.23 -6.88 -84.67 -7.26 -84.87 -7.93 C-85.12 -7.42 -85.36 -6.91 -85.61 -6.4 C-85.86 -5.9 -86.1 -5.39 -86.35 -4.88 C-86.51 -5.03 -86.9 -5.03 -87.53 -4.86 C-87.66 -4.38 -87.63 -3.76 -87.44 -2.99 C-87.14 -1.96 -86.99 -1.34 -86.97 -1.14 C-86.54 -1.33 -85.86 -1.41 -84.93 -1.38 C-84 -1.36 -83.34 -1.43 -82.94 -1.6 C-82.58 -1.75 -82.28 -1.98 -82.04 -2.29 C-81.65 -2.04 -81.38 -2 -81.22 -2.17 C-80.74 -2.79 -80.77 -3.56 -81.29 -4.49 C-81.81 -5.43 -81.94 -6.22 -81.7 -6.86 Z"/>
      </g>
      <g transform="matrix(2.083333 -0 -0 -2.083333 495.007507 71.043746)">
        <path fill="#e2e2e2" d="M-79.14 -32.26 L-79.08 -32.29 C-79.49 -32.64 -79.85 -33.06 -80.14 -33.55 C-80.44 -34.04 -80.68 -34.6 -80.87 -35.23 C-81.26 -36.53 -81.54 -37.47 -81.7 -38.06 C-81.87 -38.65 -81.92 -38.88 -81.86 -38.75 C-82.1 -39.56 -82.34 -40.36 -82.58 -41.17 C-82.82 -41.97 -83.06 -42.78 -83.3 -43.59 C-83.54 -44.41 -83.77 -45.22 -84.01 -46.04 C-84.25 -46.86 -84.48 -47.69 -84.71 -48.52 C-84.94 -49.35 -85.17 -50.19 -85.39 -51.03 C-85.62 -51.87 -85.84 -52.73 -86.06 -53.58 C-86.27 -54.45 -86.48 -55.32 -86.69 -56.19 C-86.9 -57.07 -87.1 -57.96 -87.3 -58.86 C-87.7 -58.98 -88.16 -58.96 -88.69 -58.79 C-89.22 -58.63 -89.82 -58.32 -90.48 -57.88 C-91.13 -57.43 -91.7 -57.14 -92.18 -56.99 C-92.67 -56.84 -93.06 -56.84 -93.38 -57 C-93.67 -56.99 -93.9 -56.96 -94.06 -56.89 C-94.45 -56.74 -94.65 -56.36 -94.67 -55.76 C-94.68 -55.16 -94.69 -54.61 -94.7 -54.12 C-94.53 -53.68 -94.36 -53.19 -94.18 -52.67 C-94 -52.15 -93.82 -51.58 -93.63 -50.98 C-93.45 -50.38 -93.25 -49.75 -93.06 -49.07 C-92.86 -48.4 -92.66 -47.69 -92.45 -46.94 C-92.13 -45.81 -91.84 -44.81 -91.58 -43.95 C-91.32 -43.1 -91.09 -42.38 -90.9 -41.79 C-90.7 -41.21 -90.54 -40.75 -90.41 -40.43 C-90.28 -40.11 -90.19 -39.92 -90.13 -39.87 C-89.88 -39.63 -89.67 -39.23 -89.5 -38.64 C-89.4 -38.33 -89.37 -37.93 -89.39 -37.45 C-89.42 -36.97 -89.51 -36.41 -89.66 -35.76 C-89.81 -35.12 -89.9 -34.57 -89.94 -34.1 C-89.98 -33.63 -89.97 -33.24 -89.9 -32.94 L-90.35 -33.15 C-90.12 -33.38 -90.16 -33.87 -90.47 -34.6 C-90.86 -34.2 -91 -33.52 -90.88 -32.57 C-90.67 -31.31 -90.59 -30.54 -90.64 -30.27 C-90.85 -30.62 -91.06 -30.98 -91.27 -31.35 C-91.48 -31.73 -91.68 -32.13 -91.89 -32.54 C-92.1 -32.95 -92.31 -33.38 -92.51 -33.83 C-92.72 -34.28 -92.93 -34.74 -93.13 -35.22 C-93.33 -35.71 -93.54 -36.21 -93.74 -36.73 C-93.94 -37.25 -94.14 -37.79 -94.34 -38.34 C-94.54 -38.9 -94.74 -39.47 -94.94 -40.07 C-95.14 -40.67 -95.33 -41.28 -95.52 -41.92 C-95.77 -42.76 -96 -43.56 -96.23 -44.32 C-96.45 -45.09 -96.66 -45.82 -96.85 -46.51 C-97.05 -47.2 -97.23 -47.86 -97.41 -48.48 C-97.58 -49.09 -97.74 -49.67 -97.89 -50.21 C-98.04 -50.76 -98.17 -51.26 -98.3 -51.72 C-98.43 -52.18 -98.54 -52.6 -98.65 -52.97 C-98.76 -53.35 -98.85 -53.69 -98.94 -53.98 C-99.03 -54.27 -99.1 -54.52 -99.17 -54.73 C-99.49 -54.49 -99.85 -54.3 -100.24 -54.14 C-100.7 -53.96 -101.39 -53.81 -102.33 -53.68 C-103.26 -53.56 -103.93 -53.41 -104.35 -53.25 C-104.96 -53.01 -105.49 -52.6 -105.94 -52.04 C-105.92 -51.78 -105.88 -51.25 -105.81 -50.47 C-105.8 -49.88 -105.74 -49.42 -105.66 -49.08 C-105.51 -48.49 -105.26 -47.99 -104.9 -47.55 C-105.06 -47.06 -104.99 -46.48 -104.69 -45.81 C-104.22 -44.85 -103.97 -44.33 -103.95 -44.23 C-103.83 -43.81 -103.85 -43.42 -103.99 -43.05 C-103.76 -42.73 -103.54 -42.32 -103.33 -41.83 C-103.13 -41.33 -102.94 -40.75 -102.76 -40.08 C-102.5 -39.14 -102.31 -38.43 -102.17 -37.96 C-102.04 -37.48 -101.97 -37.23 -101.96 -37.21 L-102.13 -36.69 C-101.91 -36.4 -101.71 -36.04 -101.51 -35.62 C-101.32 -35.19 -101.14 -34.7 -100.97 -34.14 L-100.6 -32.94 C-100.48 -32.44 -100.38 -32.05 -100.3 -31.78 C-100.07 -31.03 -99.8 -30.39 -99.51 -29.88 C-99.21 -29.36 -98.88 -28.96 -98.52 -28.67 L-98.74 -28.14 C-98.39 -27.83 -98.12 -27.34 -97.91 -26.67 C-97.77 -26.18 -97.61 -25.38 -97.45 -24.27 C-97.3 -23.16 -97.15 -22.35 -97.01 -21.85 C-96.92 -21.54 -96.82 -21.25 -96.7 -20.99 C-96.65 -20.57 -96.58 -20.13 -96.51 -19.68 C-96.43 -19.23 -96.34 -18.76 -96.25 -18.28 C-96.15 -17.8 -96.04 -17.3 -95.93 -16.78 C-95.81 -16.26 -95.68 -15.73 -95.55 -15.17 C-95.33 -14.33 -95.14 -13.56 -94.98 -12.87 C-94.81 -12.18 -94.68 -11.58 -94.56 -11.05 C-94.45 -10.53 -94.36 -10.09 -94.29 -9.74 C-94.22 -9.38 -94.18 -9.12 -94.15 -8.94 C-93.89 -8.26 -93.56 -7.66 -93.15 -7.14 C-92.74 -6.62 -92.25 -6.17 -91.68 -5.81 C-91.23 -5.98 -90.78 -6.15 -90.33 -6.32 C-89.88 -6.48 -89.43 -6.65 -88.99 -6.82 C-88.54 -6.98 -88.09 -7.15 -87.64 -7.32 C-87.19 -7.48 -86.73 -7.65 -86.28 -7.82 C-86.31 -8.68 -86.38 -9.56 -86.48 -10.44 C-86.59 -11.31 -86.74 -12.19 -86.92 -13.08 C-87.05 -13.67 -87.22 -14.39 -87.45 -15.23 C-87.68 -16.08 -87.96 -17.04 -88.3 -18.13 C-88.65 -19.21 -88.95 -20.16 -89.21 -21 C-89.46 -21.83 -89.68 -22.54 -89.84 -23.14 C-90 -23.71 -90.15 -24.27 -90.29 -24.84 C-90.43 -25.4 -90.56 -25.96 -90.68 -26.51 C-90.31 -26.85 -89.94 -27.14 -89.58 -27.38 C-89.23 -27.61 -88.87 -27.79 -88.52 -27.93 C-87.64 -28.26 -86.91 -28.19 -86.34 -27.7 C-86.18 -27.16 -86.02 -26.62 -85.87 -26.08 C-85.71 -25.53 -85.56 -24.99 -85.4 -24.44 C-85.25 -23.9 -85.1 -23.35 -84.95 -22.8 C-84.8 -22.24 -84.65 -21.69 -84.51 -21.13 C-84.36 -20.57 -84.22 -20.01 -84.08 -19.45 C-83.94 -18.88 -83.8 -18.31 -83.66 -17.74 C-83.53 -17.17 -83.39 -16.59 -83.26 -16.01 C-83.13 -15.43 -83 -14.85 -82.88 -14.26 C-82.78 -12.96 -82.59 -11.89 -82.32 -11.04 C-82.05 -10.19 -81.69 -9.57 -81.24 -9.18 C-80.68 -9.33 -80.05 -9.56 -79.32 -9.88 C-78.37 -10.34 -77.79 -10.61 -77.6 -10.68 C-76.82 -10.96 -76.06 -11.02 -75.33 -10.84 L-74.45 -12.65 C-74.67 -13.47 -74.89 -14.3 -75.1 -15.13 C-75.31 -15.95 -75.53 -16.78 -75.74 -17.61 C-75.95 -18.44 -76.16 -19.28 -76.37 -20.11 C-76.58 -20.95 -76.79 -21.78 -76.99 -22.63 C-77.21 -23.48 -77.41 -24.32 -77.6 -25.14 C-77.8 -25.97 -77.99 -26.78 -78.17 -27.58 C-78.35 -28.38 -78.52 -29.17 -78.68 -29.95 C-78.85 -30.73 -79 -31.5 -79.14 -32.26 Z"/>
      </g>
      <g transform="matrix(2.083333 -0 -0 -2.083333 554.774047 40.364566)">
        <path fill="#e2e2e2" d="M-84.59 -42.33 C-84.98 -42.25 -85.39 -42.13 -85.85 -41.96 C-86.32 -41.8 -86.86 -41.56 -87.47 -41.26 C-88.08 -40.97 -88.76 -40.6 -89.5 -40.18 C-90.43 -39.69 -91.17 -39.3 -91.73 -39 C-92.28 -38.71 -92.66 -38.52 -92.86 -38.42 C-93.25 -38.83 -93.6 -39.37 -93.9 -40.03 C-94.2 -40.69 -94.46 -41.47 -94.67 -42.38 C-95.15 -44.31 -95.49 -45.69 -95.7 -46.52 C-95.91 -47.34 -95.97 -47.63 -95.88 -47.38 C-95.41 -47.96 -95.31 -48.76 -95.58 -49.77 C-96 -51.13 -96.19 -51.84 -96.16 -51.9 C-96.49 -51.93 -96.76 -52.34 -96.98 -53.11 C-97.38 -52.76 -97.74 -52.22 -98.08 -51.5 C-98.53 -50.58 -98.66 -49.82 -98.46 -49.24 L-98.93 -49.52 L-99.18 -48.98 C-99.52 -48.91 -100.02 -48.52 -100.7 -47.82 C-101.36 -47.12 -101.81 -46.53 -102.03 -46.04 C-101.83 -45.31 -101.61 -44.93 -101.39 -44.91 L-101.91 -43.66 L-102.43 -44.15 C-102.33 -43.52 -102.23 -42.9 -102.12 -42.27 C-102.01 -41.64 -101.9 -41.01 -101.77 -40.38 C-101.65 -39.75 -101.52 -39.11 -101.39 -38.47 C-101.26 -37.83 -101.12 -37.19 -100.97 -36.54 C-100.83 -35.9 -100.68 -35.24 -100.52 -34.59 C-100.37 -33.93 -100.21 -33.27 -100.05 -32.61 C-99.88 -31.94 -99.72 -31.27 -99.54 -30.59 C-99.37 -29.91 -99.2 -29.23 -99.02 -28.54 C-98.66 -28.75 -98.28 -28.96 -97.9 -29.16 C-97.51 -29.37 -97.12 -29.57 -96.71 -29.76 C-96.3 -29.96 -95.88 -30.15 -95.45 -30.33 C-95.01 -30.52 -94.57 -30.7 -94.11 -30.88 C-93.81 -31 -93.47 -31.14 -93.1 -31.28 C-92.73 -31.42 -92.32 -31.56 -91.89 -31.72 C-91.45 -31.88 -90.98 -32.04 -90.48 -32.21 C-89.98 -32.39 -89.45 -32.57 -88.88 -32.76 C-88.23 -32.97 -87.63 -33.18 -87.07 -33.37 C-86.51 -33.55 -86 -33.73 -85.53 -33.89 C-85.06 -34.05 -84.64 -34.2 -84.26 -34.33 C-83.88 -34.46 -83.55 -34.57 -83.26 -34.68 C-82.86 -35.42 -82.74 -36.26 -82.89 -37.18 C-82.99 -37.74 -83.26 -38.6 -83.71 -39.75 C-84.18 -40.89 -84.47 -41.74 -84.59 -42.33 Z M-92.65 -76.14 L-92.63 -76.07 C-93.04 -76.61 -93.35 -77.29 -93.57 -78.11 C-93.73 -78.64 -93.89 -79.42 -94.04 -80.44 C-94.23 -81.63 -94.36 -82.45 -94.44 -82.92 C-95.15 -82.65 -95.85 -82.39 -96.55 -82.13 C-97.24 -81.87 -97.94 -81.61 -98.63 -81.34 C-99.37 -81.07 -100.07 -80.85 -100.74 -80.69 C-101.41 -80.54 -102.05 -80.44 -102.66 -80.4 L-103.57 -78.41 C-103.99 -78.69 -104.18 -78.97 -104.15 -79.26 C-104.25 -79.19 -104.54 -79.07 -105.03 -78.89 C-105.51 -78.7 -106.19 -78.46 -107.05 -78.16 C-107.72 -77.91 -108.29 -77.64 -108.77 -77.38 C-109.26 -77.11 -109.65 -76.84 -109.94 -76.56 C-110.36 -76.87 -110.77 -76.95 -111.16 -76.8 C-111.55 -76.65 -111.92 -76.27 -112.28 -75.67 C-112.55 -75.24 -112.48 -74.7 -112.07 -74.07 C-111.66 -73.44 -111.62 -72.88 -111.95 -72.38 C-111.85 -71.99 -111.73 -71.55 -111.59 -71.06 C-111.44 -70.57 -111.28 -70.04 -111.1 -69.45 C-110.91 -68.87 -110.71 -68.25 -110.48 -67.57 C-110.25 -66.9 -110 -66.18 -109.73 -65.42 C-109.48 -64.74 -109.24 -64.1 -109.03 -63.5 C-108.81 -62.89 -108.61 -62.33 -108.42 -61.8 C-108.24 -61.27 -108.07 -60.78 -107.93 -60.32 C-107.78 -59.87 -107.65 -59.44 -107.53 -59.06 C-107.38 -58.53 -107.24 -58.01 -107.11 -57.5 C-106.98 -56.98 -106.86 -56.47 -106.76 -55.95 C-106.65 -55.44 -106.55 -54.93 -106.47 -54.42 C-106.39 -53.92 -106.32 -53.41 -106.26 -52.91 C-105.67 -52.58 -105.1 -52.52 -104.53 -52.72 C-104.21 -52.84 -103.89 -53.06 -103.55 -53.37 C-103.22 -53.68 -102.88 -54.09 -102.54 -54.59 C-101.55 -56.01 -101.04 -56.73 -101 -56.74 L-100.77 -57.36 C-100.69 -57.23 -100.28 -56.58 -99.53 -55.41 C-99.08 -54.62 -98.61 -54.16 -98.12 -54.04 L-97.87 -54.59 C-97.68 -54.56 -97.03 -54.32 -95.9 -53.88 C-95.05 -53.59 -94.42 -53.52 -94.01 -53.67 C-93.55 -53.83 -93.19 -54.27 -92.93 -54.97 C-92.34 -55.64 -92.04 -56.44 -92.04 -57.37 C-92.05 -58.29 -92.06 -59.21 -92.07 -60.11 C-93.03 -59.81 -93.89 -59.51 -94.66 -59.21 C-95.43 -58.92 -96.1 -58.63 -96.69 -58.34 C-97.12 -58.73 -97.55 -58.66 -97.99 -58.12 C-98.43 -57.58 -98.84 -57.49 -99.21 -57.86 C-99.42 -58.59 -99.64 -59.33 -99.85 -60.07 C-100.06 -60.81 -100.27 -61.56 -100.48 -62.3 C-100.77 -63.26 -101.02 -64.12 -101.23 -64.88 C-101.44 -65.65 -101.6 -66.32 -101.73 -66.89 C-101.94 -67.76 -102.12 -68.61 -102.26 -69.44 C-102.4 -70.27 -102.51 -71.08 -102.59 -71.87 C-101.79 -72.17 -101 -72.47 -100.19 -72.77 C-99.39 -73.07 -98.58 -73.37 -97.77 -73.67 C-97.27 -73.86 -96.79 -74.05 -96.33 -74.25 C-95.86 -74.45 -95.41 -74.65 -94.99 -74.85 C-94.56 -75.06 -94.15 -75.27 -93.76 -75.48 C-93.37 -75.7 -93 -75.92 -92.65 -76.14 Z"/>
      </g>
      <g transform="matrix(2.083333 -0 -0 -2.083333 583.232849 145.683731)">
        <path fill="#e2e2e2" d="M-97.57 -37.61 C-97.57 -37.95 -97.59 -38.25 -97.63 -38.51 C-97.77 -39.5 -98.13 -40.17 -98.71 -40.5 C-99.29 -40.84 -100.09 -40.85 -101.11 -40.53 C-101.72 -39.97 -102.08 -39.58 -102.23 -39.39 C-102.37 -39.19 -102.47 -38.86 -102.55 -38.37 C-102.47 -38.35 -102.27 -38.17 -101.95 -37.86 C-101.63 -37.54 -101.18 -37.08 -100.6 -36.49 C-99.57 -35.49 -98.83 -35.08 -98.37 -35.25 C-97.91 -35.42 -97.64 -36.2 -97.57 -37.61 Z M-80.67 -46.45 C-81.34 -45.87 -82.07 -45.43 -82.87 -45.14 C-83.56 -44.88 -84.52 -44.7 -85.74 -44.59 C-87.09 -44.43 -88.02 -44.3 -88.51 -44.17 C-88.71 -43.5 -88.87 -42.74 -88.96 -41.88 C-89.06 -41.04 -89.1 -40.1 -89.08 -39.09 C-89.09 -37.6 -89.1 -36.45 -89.1 -35.62 C-89.1 -34.79 -89.11 -34.29 -89.13 -34.09 C-88.93 -33.84 -88.82 -33.62 -88.78 -33.41 C-88.69 -32.86 -89.01 -32.22 -89.75 -31.5 C-90.49 -30.78 -90.83 -30.3 -90.78 -30.05 C-90.73 -29.75 -90.18 -29.48 -89.13 -29.23 C-89.3 -28.86 -89.36 -28.2 -89.29 -27.26 C-89.22 -26.32 -89.31 -25.65 -89.57 -25.25 C-89.9 -25.41 -90.31 -25.5 -90.8 -25.51 C-91.29 -25.51 -91.86 -25.45 -92.51 -25.3 C-93.79 -25.01 -94.67 -24.94 -95.14 -25.07 C-95.32 -26.02 -95.53 -26.88 -95.75 -27.66 C-95.97 -28.44 -96.22 -29.12 -96.48 -29.72 C-96.75 -30.32 -97.04 -30.83 -97.35 -31.25 C-97.66 -31.67 -97.99 -32 -98.35 -32.23 C-98.96 -31.84 -99.49 -31.94 -99.93 -32.53 C-100.54 -33.23 -101.02 -33.6 -101.36 -33.64 L-101.05 -34.34 C-101.47 -34.56 -102.09 -34.5 -102.89 -34.14 C-104.14 -33.62 -104.81 -33.35 -104.9 -33.31 L-105.04 -31.78 C-104.81 -30.95 -104.56 -30.12 -104.32 -29.3 C-104.07 -28.49 -103.82 -27.68 -103.56 -26.88 C-103.31 -26.08 -103.05 -25.29 -102.79 -24.5 C-102.52 -23.71 -102.26 -22.93 -101.99 -22.15 C-101.72 -21.38 -101.45 -20.61 -101.18 -19.84 C-100.9 -19.07 -100.63 -18.31 -100.35 -17.55 C-100.08 -16.79 -99.8 -16.03 -99.52 -15.28 C-99.24 -14.52 -98.97 -13.77 -98.69 -13.02 C-98.41 -12.27 -98.13 -11.52 -97.85 -10.76 C-97.57 -10.01 -97.29 -9.26 -97.02 -8.51 C-96.74 -7.76 -96.46 -7 -96.19 -6.25 C-95.91 -5.49 -95.64 -4.73 -95.37 -3.97 C-95.1 -3.21 -94.83 -2.45 -94.57 -1.68 C-94.31 -0.91 -94.04 -0.14 -93.78 0.64 C-93.53 1.42 -93.27 2.2 -93.02 2.99 C-92.77 3.78 -92.53 4.58 -92.29 5.38 C-92.04 6.63 -91.81 7.69 -91.61 8.53 C-91.42 9.38 -91.24 10.03 -91.07 10.45 C-90.93 11.62 -90.7 12.53 -90.38 13.19 C-90.06 13.85 -89.66 14.24 -89.16 14.37 C-88.64 13.69 -87.94 13.19 -87.06 12.88 C-86.71 12.75 -86.24 12.65 -85.67 12.55 C-85.1 12.46 -84.42 12.39 -83.63 12.33 C-82.84 12.28 -82.17 12.21 -81.63 12.13 C-81.09 12.05 -80.67 11.96 -80.37 11.85 C-79.85 11.67 -79.41 11.39 -79.06 11.02 C-78.7 10.66 -78.43 10.2 -78.25 9.65 C-78.07 9.1 -77.98 8.47 -77.98 7.75 C-77.98 7.03 -78.07 6.23 -78.25 5.35 C-78.4 4.65 -78.52 3.88 -78.62 3.05 C-78.72 2.23 -78.79 1.34 -78.84 0.39 C-78.89 -0.56 -78.91 -1.57 -78.91 -2.64 C-78.91 -3.71 -78.89 -4.84 -78.84 -6.03 C-78.79 -7.3 -78.77 -8.48 -78.77 -9.58 C-78.77 -10.67 -78.79 -11.68 -78.84 -12.6 C-78.88 -13.51 -78.94 -14.35 -79.03 -15.09 C-79.11 -15.84 -79.21 -16.5 -79.34 -17.08 C-79.49 -17.79 -79.67 -18.48 -79.87 -19.17 C-80.42 -19.28 -81.02 -19.31 -81.69 -19.26 C-82.35 -19.21 -83.07 -19.09 -83.84 -18.88 C-84.51 -18.69 -85.19 -18.5 -85.88 -18.3 C-86.56 -18.11 -87.24 -17.91 -87.93 -17.71 C-87.82 -16.79 -87.71 -15.86 -87.6 -14.94 C-87.5 -14.03 -87.39 -13.11 -87.28 -12.19 C-87.17 -11.28 -87.06 -10.36 -86.95 -9.45 C-86.85 -8.53 -86.74 -7.61 -86.64 -6.7 C-86.52 -5.59 -86.42 -4.53 -86.34 -3.51 C-86.25 -2.48 -86.19 -1.5 -86.15 -0.56 C-86.1 0.38 -86.08 1.29 -86.07 2.15 C-86.07 3.01 -86.08 3.83 -86.11 4.6 C-86.34 3.74 -86.58 2.89 -86.82 2.04 C-87.06 1.2 -87.31 0.36 -87.56 -0.48 C-87.81 -1.31 -88.07 -2.14 -88.32 -2.96 C-88.59 -3.79 -88.85 -4.6 -89.11 -5.42 C-89.38 -6.23 -89.65 -7.04 -89.92 -7.85 C-90.19 -8.66 -90.47 -9.47 -90.74 -10.27 C-91.02 -11.08 -91.29 -11.88 -91.57 -12.69 C-91.85 -13.49 -92.12 -14.29 -92.4 -15.1 C-92.68 -15.94 -92.69 -16.64 -92.41 -17.21 C-92.14 -17.78 -91.59 -18.21 -90.76 -18.51 C-90.22 -18.71 -89.67 -18.76 -89.11 -18.66 C-88.67 -18.66 -88.18 -19.17 -87.62 -20.19 C-87.79 -20.91 -87.85 -21.52 -87.8 -22.01 C-87.75 -22.51 -87.59 -22.88 -87.32 -23.13 C-86.9 -23 -86.41 -22.9 -85.88 -22.83 C-85.34 -22.76 -84.74 -22.71 -84.09 -22.69 C-83.51 -22.67 -82.93 -22.66 -82.37 -22.64 C-81.8 -22.63 -81.24 -22.62 -80.68 -22.62 C-80.46 -23.13 -80.32 -23.73 -80.24 -24.41 C-80.17 -25.09 -80.16 -25.85 -80.23 -26.7 C-80.34 -27.9 -80.42 -28.86 -80.46 -29.57 C-80.51 -30.29 -80.52 -30.75 -80.51 -30.96 C-80.53 -31.2 -80.54 -31.52 -80.54 -31.91 C-80.55 -32.31 -80.54 -32.78 -80.52 -33.32 C-80.51 -33.87 -80.48 -34.49 -80.44 -35.2 C-80.4 -35.91 -80.35 -36.69 -80.29 -37.56 C-80.25 -38.25 -80.22 -38.91 -80.2 -39.53 C-80.17 -40.16 -80.16 -40.75 -80.16 -41.3 C-80.16 -41.86 -80.17 -42.38 -80.19 -42.87 C-80.21 -43.36 -80.24 -43.81 -80.29 -44.23 C-80.37 -45.04 -80.5 -45.78 -80.67 -46.45 Z"/>
      </g>
      <g transform="matrix(2.083333 -0 -0 -2.083333 680.787414 30.313938)">
        <path fill="#e2e2e2" d="M-97.91 -59.34 L-98.3 -58.72 L-98.61 -58.94 Z M-104.92 -103.11 L-104.84 -103.14 C-105.92 -103.43 -106.92 -103.58 -107.85 -103.59 C-108.77 -103.6 -109.63 -103.46 -110.4 -103.18 C-111.15 -102.91 -111.85 -102.49 -112.51 -101.92 C-113.2 -102.28 -113.99 -102.3 -114.88 -101.98 L-115.74 -101.66 C-116.1 -101.47 -116.36 -101.35 -116.52 -101.3 C-117.25 -101.03 -117.91 -100.98 -118.52 -101.15 C-118.9 -100.68 -119.5 -100.3 -120.32 -100 C-121.5 -99.62 -122.19 -99.37 -122.39 -99.25 C-122.75 -98.48 -123 -97.65 -123.13 -96.77 C-123.25 -95.9 -123.26 -94.97 -123.15 -93.98 C-123.02 -92.69 -122.93 -91.6 -122.89 -90.72 C-122.84 -89.84 -122.84 -89.15 -122.89 -88.66 L-122.3 -88.4 C-122.61 -88.08 -122.71 -87.62 -122.61 -87.04 C-122.53 -86.54 -122.32 -86.23 -121.98 -86.09 C-121.44 -86.29 -120.84 -86.65 -120.17 -87.18 C-119.49 -87.71 -118.74 -88.41 -117.92 -89.28 C-117.09 -90.16 -116.31 -90.86 -115.59 -91.4 C-114.86 -91.94 -114.19 -92.31 -113.57 -92.51 C-112.98 -93.73 -112.26 -94.48 -111.44 -94.78 C-111.03 -94.93 -110.64 -94.91 -110.29 -94.72 C-109.97 -94.31 -109.66 -94.16 -109.34 -94.27 C-109.55 -94.19 -109.06 -94.63 -107.87 -95.59 C-107.51 -96.24 -107.19 -96.88 -106.89 -97.51 C-106.59 -98.15 -106.32 -98.78 -106.07 -99.4 C-105.83 -100.03 -105.61 -100.65 -105.42 -101.27 C-105.22 -101.89 -105.06 -102.5 -104.92 -103.11 Z M-94.69 -69.96 C-94.61 -70.85 -94.56 -71.74 -94.52 -72.63 C-94.49 -73.52 -94.48 -74.41 -94.49 -75.3 C-94.5 -76.19 -94.54 -77.08 -94.6 -77.98 C-94.65 -78.87 -94.74 -79.76 -94.84 -80.66 C-94.94 -81.51 -95.06 -82.36 -95.19 -83.19 C-95.33 -84.03 -95.48 -84.86 -95.65 -85.67 C-95.82 -86.49 -96.01 -87.3 -96.21 -88.11 C-96.42 -88.91 -96.64 -89.71 -96.88 -90.5 C-97.12 -91.29 -97.38 -92.08 -97.65 -92.86 C-97.92 -93.64 -98.21 -94.41 -98.52 -95.18 C-98.83 -95.95 -99.15 -96.71 -99.49 -97.47 C-99.83 -98.23 -100.18 -98.99 -100.55 -99.74 C-101.08 -99.97 -101.6 -100.2 -102.12 -100.42 C-102.64 -100.65 -103.16 -100.88 -103.68 -101.11 C-103.93 -100.73 -104.18 -100.27 -104.42 -99.74 C-104.67 -99.21 -104.91 -98.62 -105.15 -97.95 C-105.38 -97.28 -105.62 -96.55 -105.85 -95.75 C-106.08 -94.95 -106.3 -94.09 -106.51 -93.16 C-107.04 -93.44 -107.4 -93.47 -107.59 -93.24 C-107.93 -92.91 -108.08 -92.64 -108.06 -92.45 C-108.04 -92.3 -107.81 -92.1 -107.37 -91.87 C-106.93 -91.63 -106.73 -91.39 -106.74 -91.12 C-106.59 -90.56 -106.44 -90 -106.3 -89.42 C-106.16 -88.84 -106.03 -88.25 -105.91 -87.65 C-105.78 -87.05 -105.67 -86.44 -105.56 -85.82 C-105.45 -85.2 -105.34 -84.57 -105.25 -83.92 C-105.17 -83.38 -105.09 -82.82 -105.02 -82.24 C-104.95 -81.65 -104.89 -81.04 -104.82 -80.42 C-104.76 -79.79 -104.71 -79.14 -104.65 -78.46 C-104.6 -77.79 -104.55 -77.09 -104.51 -76.37 C-104.47 -75.66 -104.43 -74.91 -104.4 -74.15 C-104.37 -73.38 -104.34 -72.59 -104.32 -71.78 C-104.3 -70.96 -104.28 -70.12 -104.27 -69.26 C-104.27 -68.39 -104.26 -67.5 -104.27 -66.58 C-104.17 -66.56 -103.83 -66.68 -103.26 -66.93 C-102.83 -67.09 -102.54 -67.03 -102.41 -66.76 C-103.11 -65.89 -103.6 -65.02 -103.89 -64.14 C-104.18 -63.26 -104.28 -62.38 -104.18 -61.48 C-104.13 -61.02 -104.03 -60.6 -103.89 -60.23 L-101.89 -59.08 C-102.05 -58.65 -102.25 -58.39 -102.48 -58.31 C-102.66 -58.24 -102.87 -58.29 -103.1 -58.45 C-103.34 -58.61 -103.53 -58.74 -103.69 -58.85 C-103.72 -58.73 -103.97 -58.02 -104.43 -56.72 C-104.78 -55.84 -104.93 -55.05 -104.87 -54.36 C-104.85 -54.03 -104.78 -53.73 -104.66 -53.44 L-105.04 -52.81 L-106.01 -54.45 C-106.25 -54.42 -106.54 -54.17 -106.87 -53.7 C-107.21 -53.22 -107.45 -52.96 -107.58 -52.91 C-107.76 -52.84 -107.96 -52.97 -108.17 -53.28 C-107.92 -53.53 -107.8 -53.77 -107.81 -53.98 C-107.82 -54.09 -107.91 -54.26 -108.08 -54.5 C-108.24 -54.75 -108.33 -54.94 -108.34 -55.1 C-108.34 -55.54 -108.25 -56.23 -108.06 -57.19 C-107.88 -58.14 -107.81 -58.82 -107.86 -59.23 C-107.93 -59.79 -108.15 -60.24 -108.53 -60.58 C-108.48 -61.5 -108.46 -62.31 -108.47 -63.02 C-108.48 -63.72 -108.52 -64.32 -108.59 -64.82 C-108.7 -65.56 -108.87 -66.18 -109.1 -66.68 C-109.34 -67.17 -109.64 -67.55 -110.01 -67.81 C-110.1 -68.04 -110 -68.4 -109.73 -68.91 C-109.46 -69.42 -109.34 -69.75 -109.36 -69.89 C-109.39 -70.09 -109.56 -70.23 -109.88 -70.32 C-109.8 -70.79 -109.78 -71.32 -109.8 -71.93 C-109.83 -72.53 -109.9 -73.21 -110.03 -73.95 C-110.23 -75.01 -110.38 -75.84 -110.48 -76.45 C-110.59 -77.06 -110.64 -77.45 -110.65 -77.63 C-110.75 -77.64 -111.12 -77.51 -111.75 -77.24 C-112.19 -77.08 -112.48 -77.13 -112.63 -77.38 C-111.94 -77.63 -111.46 -78.13 -111.18 -78.89 C-111.03 -79.61 -110.89 -80.29 -110.74 -80.96 C-110.84 -81.56 -110.94 -82.17 -111.04 -82.77 C-111.14 -83.37 -111.24 -83.98 -111.34 -84.58 C-111.43 -85.19 -111.53 -85.8 -111.63 -86.41 C-111.72 -87.02 -111.82 -87.63 -111.91 -88.25 C-111.87 -88.88 -112.01 -89.43 -112.32 -89.89 C-112.63 -90.36 -113.11 -90.73 -113.76 -91.02 C-114.12 -90.73 -114.5 -90.39 -114.89 -90.01 C-115.28 -89.62 -115.69 -89.19 -116.11 -88.7 C-116.53 -88.22 -116.96 -87.69 -117.41 -87.11 C-117.85 -86.53 -118.31 -85.9 -118.78 -85.23 C-118.93 -85.17 -119.18 -85.17 -119.53 -85.23 C-119.88 -85.29 -120.12 -85.29 -120.27 -85.23 C-120.76 -85.06 -120.94 -84.22 -120.82 -82.71 C-120.73 -82.35 -120.64 -81.93 -120.56 -81.46 C-120.48 -80.99 -120.4 -80.47 -120.33 -79.9 C-120.25 -79.32 -120.19 -78.7 -120.12 -78.02 C-120.06 -77.34 -120 -76.61 -119.95 -75.83 L-118.91 -75.21 C-119.12 -74.73 -119.25 -74.18 -119.29 -73.57 C-119.34 -72.95 -119.3 -72.28 -119.18 -71.53 C-119.06 -70.93 -118.94 -70.32 -118.82 -69.71 C-118.7 -69.1 -118.59 -68.49 -118.47 -67.88 C-118.35 -66.96 -118.36 -66.13 -118.52 -65.41 C-117.74 -65.69 -117.25 -65.68 -117.05 -65.39 C-117.07 -64.72 -117.08 -64.06 -117.09 -63.41 C-117.1 -62.75 -117.09 -62.11 -117.09 -61.47 C-117.08 -60.84 -117.06 -60.21 -117.04 -59.59 C-117.02 -58.97 -116.99 -58.35 -116.96 -57.75 C-116.93 -57.14 -116.88 -56.55 -116.84 -55.96 C-116.79 -55.37 -116.74 -54.79 -116.68 -54.21 C-116.62 -53.64 -116.55 -53.07 -116.48 -52.51 C-116.41 -51.95 -116.33 -51.4 -116.24 -50.85 C-116.14 -50.34 -116.18 -49.48 -116.35 -48.26 C-116.53 -47.02 -116.6 -46.16 -116.56 -45.67 C-116.48 -44.67 -116.04 -44.12 -115.23 -44 C-114.62 -44.33 -113.96 -44.62 -113.26 -44.87 C-112.82 -45.02 -112.25 -45.19 -111.56 -45.37 C-110.86 -45.54 -110.04 -45.74 -109.09 -45.94 C-108.13 -46.15 -107.3 -46.34 -106.59 -46.53 C-105.87 -46.71 -105.28 -46.89 -104.81 -47.06 C-104.11 -47.3 -103.44 -47.59 -102.81 -47.91 C-102.18 -48.23 -101.58 -48.59 -101.02 -48.99 C-100.67 -49.46 -100.33 -49.93 -99.98 -50.4 C-99.64 -50.87 -99.29 -51.33 -98.95 -51.8 C-98.6 -52.27 -98.25 -52.74 -97.9 -53.2 C-97.55 -53.67 -97.21 -54.13 -96.85 -54.6 C-96.82 -54.84 -96.63 -55.38 -96.28 -56.22 C-96.07 -56.85 -95.98 -57.38 -96 -57.81 C-96.01 -58.02 -96.04 -58.23 -96.1 -58.43 L-97.95 -58.84 C-97.26 -59.08 -96.7 -59.42 -96.26 -59.84 C-95.82 -60.27 -95.51 -60.78 -95.33 -61.39 C-95.21 -61.75 -95.13 -62.23 -95.09 -62.83 C-95.05 -63.41 -95.06 -64.11 -95.11 -64.92 C-95.17 -65.72 -95.19 -66.41 -95.17 -66.98 C-95.15 -67.56 -95.09 -68.02 -95 -68.36 L-95.48 -68.66 Z"/>
      </g>
    </g>
    <path fill="url(#grad0)" d="M371.24 314.44 C394.77 320.05 418.19 325.26 438.47 319.64 L434.49 346.9 C427.11 360.59 389.63 360.98 365 329.07 C361.89 318.84 366.55 316.62 371.24 314.44 Z"/>
    <path fill="#ffffff" fill-opacity="0.5" d="M388.71 318.92 L379.69 343.49 C383.02 347.17 386.35 347.88 389.68 349.7 L394.29 319.81 Z"/>
    <path fill="none" stroke="#ffffff" stroke-opacity="0.3" d="M436.81 320.36 C419.13 324.41 398.94 320.55 383.27 318.18"/>
    <path fill="#e6e6e6" d="M334 395.36 L331.74 394.76 L325.24 348.29 L337.89 347.03 Z"/>
    <path fill="#333333" d="M408.98 420.74 L402.13 439.45 C397.03 468.01 395.78 460.71 393.25 465.32 L391.69 471.65 C399.45 469.38 404.1 462.01 406.59 456.27 C408.87 451.02 408.93 430.52 408.98 420.74 Z"/>
    <path fill="#333333" d="M237.36 336.92 C231.43 335.19 206.31 331.15 197.85 336.82 L191.93 335.83 C176.8 341.72 173.75 352.83 168.18 362.85 L171.48 370.5 L162.7 389.84 L156.53 393.39 C149.35 403.82 144.19 413.5 147.02 420.22 C140.65 419.5 134.3 427.16 127.94 434.31 C119.12 440.63 110.42 447.34 102.46 456.47 C100.12 459.39 94.96 461.33 99.76 466.68 C105.05 481.54 115.25 478.21 123.72 481.3 C123.71 481.32 104.38 472.98 109.35 461.37 C114.32 449.76 130.73 443.6 136.08 440.81 L154.32 419.54 C151.94 409.01 158.65 401.89 169.97 396.5 C170.29 396.09 176.29 401.89 176.59 401.5 C176.96 401.02 170.5 395.54 170.84 395.08 C181.72 380.23 180.55 372.55 175.27 367.98 C181.97 358.14 190.15 347.68 196.66 343.77 C202.38 339.97 199.08 334.43 237.36 336.92 Z"/>
    <path fill="none" stroke="#333333" d="M168.27 362.9 C170.72 366.54 174.79 368.26 185.66 372.56"/>
    <path fill="#333333" d="M224 378.03 L218.4 363.1 C218.4 363.1 214.94 353.27 217.01 348.92 C219.07 344.57 230.56 341.51 230.56 341.51 L218.9 350.49 L219.57 361.23 Z"/>
    <path fill="#333333" d="M230.66 381.7 L225.93 366.47 C225.93 366.47 223.62 357.76 225.01 354.29 C226.4 350.82 232.61 347.46 232.61 347.46 L227.17 354.89 L227.2 364.67 Z"/>
    <path fill="#333333" d="M237.89 383.33 L233.16 368.1 L232.7 355.92 C238.12 348.62 239.44 349.19 235.3 354.7 L234.43 366.3 Z"/>
    <path fill="#999999" d="M257.83 376.97 L217.15 379.58 C211.44 378.1 214.13 387.16 217.65 382.71 C232.54 383.65 255.99 376.04 262.33 385.54 L264.93 377.88 Z"/>
    <path fill="#333333" d="M246.17 362.86 L247.27 357.71 L248.56 363.57 Z"/>
    <path fill="#333333" d="M246.87 337.22 C251.38 340.36 259.52 339.29 265.34 339.13 C273.77 338.01 285.01 350.03 283.23 347.02 C284.78 345.71 270.87 337.98 269.73 338.03 C256.79 338.5 296.89 326.89 297.96 325.43 C305.44 315.21 328.65 309.47 352.56 315.87 L353.26 310.47 C337.16 305.63 324.06 305.8 310.15 311.95 C300.7 316.13 296.46 321.01 287.94 327.06 C273.96 336.99 253.26 336.81 246.87 337.22 Z"/>
    <path fill="#1a77c2" d="M224.12 495.51 C236.15 494.65 253.7 501.32 283.55 467.34 C299.76 477.85 309.37 477 321.93 490.05 C322.78 490.92 324.44 494.08 325.08 495.27 C325.79 493.33 325.29 489.32 324.68 487.53 C321.26 477.44 297.34 469.32 283.31 463.76 C269.56 477.89 243.6 489.02 224.12 495.51 Z"/>
    <path fill="#2195f2" d="M131.28 519.87 C131.28 519.87 130.28 556.03 141.46 571.96 C152.63 587.9 179.82 600.53 179.82 600.53 L180.65 576.69 C180.65 576.69 182.65 523.06 190.16 505.83 C197.68 488.61 276.62 440.4 279.02 427.99 C282.58 428.84 289.17 427.62 294.4 437.41 C299.75 452.27 321.02 469.18 338.79 468.46 C359.13 477.35 348.83 475.06 348.25 484.05 C347.66 493.04 320.86 516.88 301.89 536.76 L274.4 571.27 C303.57 555.21 329.32 531.08 354.6 508.17 L361.58 492.89 C361.58 492.89 377.58 489.63 387.07 478.45 C396.56 467.26 398.89 447.21 398.5 429.58 C406.28 421.75 403.48 409.95 399.22 410.59 L362.41 420.68 C360.71 418.12 348.15 399.28 330.92 396.29 L319.36 343.57 C304.03 338.27 297.7 341.04 286.61 344.53 L295.85 358.5 C269.29 366.99 267.6 379.59 253.73 390.18 C238.07 382.1 233.59 394.66 223.69 397.2 C223.69 397.2 191.98 422.09 183.07 436.96 C174.16 451.83 165.24 453.38 165.24 453.38 L171.17 467.59 C162.6 481.51 147.27 490.97 138.35 504.81 C129.44 518.66 135.78 519.03 131.28 519.87 Z"/>
    <g transform="matrix(0.73925 0.55429 -0.51202 0.80027 300.48001 -93.994003)">
      <path fill="#ffffff" d="M371.71 424.89 C371.71 437.7 355.22 448.08 334.88 448.08 C314.54 448.08 298.05 437.7 298.05 424.89 C298.05 412.08 314.54 401.7 334.88 401.7 C355.22 401.7 371.71 412.08 371.71 424.89 Z"/>
    </g>
    <path d="M317.67 443.27 L322.69 448.29 L345.39 422.52 L332.26 417.99 L329.5 423.98 L333.55 425.12 Z"/>
    <path fill="#ffffff" stroke="#ffffff" d="M244.09 363.65 L269.94 368.45"/>
    <path d="M454.87 388.08 C449.48 394.18 447.05 401.05 433.98 401.66 C443.72 421.28 430.66 440.06 424.58 459.1 L431.66 463.67 C431.66 463.67 426.2 483.09 417.79 489.92 C409.38 496.74 383.37 496.38 383.37 496.38 C390.6 502.21 407.2 505.88 428.76 496.18 C434.77 488.53 444.46 481.81 438.68 457.01 C444.39 434.07 454.8 411.59 454.87 388.08 Z"/>
    <g transform="matrix(1 0 0 1 62.618 268.23001)">
      <path fill="#333333" d="M71.45 252.02 L48.42 248.97 L56.65 237.68 L81.48 241.14 Z"/>
    </g>
    <path fill="#1a1a1a" d="M132.46 524.54 L112.58 520.49 L111.39 517.14 L132.99 519.87 Z"/>
    <path fill="#2195f2" d="M126.77 516.23 C126.77 516.23 130.27 556.03 141.45 571.96 C152.63 587.9 179.82 600.53 179.82 600.53 C126.76 548.9 142.82 529.41 145.47 521.28 C148.11 513.14 172.3 480.98 179.81 463.76 C177.65 433.28 218.73 412.59 238.09 400.76 C258.21 388.46 252.08 403.5 264.74 400.16 C285.16 361.01 285.99 374.37 304.7 365.94 C291.45 345.35 301.26 343.98 309.37 341.19 C294.05 335.89 289.61 339.62 286.61 344.53 L291.57 355.17 C265.01 363.66 269.66 379.59 255.8 390.18 C240.13 382.1 230.01 390.4 220.11 392.95 C220.11 392.95 191.75 425.66 177.7 435.17 C163.64 444.67 157.86 448.68 157.86 448.68 L171.16 467.59 C162.06 480.63 148.31 490.38 137.38 504.27 Z"/>
    <path fill="#1a77c2" d="M279.1 427.95 L273.77 427.57 C273.77 427.57 201.82 472.08 188.52 496.41 C175.22 520.74 178.91 599.28 178.91 599.28 C179.61 583.44 183.68 517.09 195.72 500.02 C207.77 482.95 274.68 442.52 279.1 427.96 Z"/>
    <path fill="#1a1a1a" d="M181.68 573.22 C175.93 583.97 174.99 593.68 177.73 604.67 L184.83 593.11 C181.49 590.96 178.83 586.55 181.68 573.22 Z"/>
    <g transform="matrix(1.0415 0.09338 -0.09181 1.0593 45.033 -49.29)">
      <path fill="#b3b3b3" d="M228.02 532.09 C226.09 535.22 222.52 537.85 217.86 537.07 C213.21 536.29 211.23 531.53 211.23 531.53 L256.65 444.64 C259.5 441.39 261.63 441.07 266.18 441.11 C272.93 442.51 275.16 445.31 277 448.23 L272.92 454.26 L270.41 451.96 Z"/>
      <path fill="#ffffff" stroke="#ffffff" d="M215.28 529.74 L253.02 453.98"/>
    </g>
    <path fill="#1a77c2" d="M275.57 569.9 C293.17 562.29 317.25 543.84 355.4 508.65 L361.84 491.94 L360.17 489.55 C341.8 516.69 304.19 545.11 291.19 556.62 C278.2 568.14 280.21 565.21 280.21 565.21 Z"/>
    <path fill="#1a77c2" d="M394.01 427.96 C384.16 467.86 373.4 482.97 353.62 478.54 C355.92 483.63 357.08 489.28 361.71 493.2 C399.06 486.28 398.89 451.77 398.33 430.23 C404.47 421.6 402.72 416.53 401.48 412.49 C401.37 416.53 397.96 428.77 394.01 427.96 Z"/>
    <path d="M384.41 494.48 L391.95 505.9 C396.02 512.02 403.26 508.07 401.84 502.99 L395.1 491.41 C390.35 487.12 382.37 491.28 384.41 494.48 Z"/>
    <path fill="#ffffff" d="M249.02 512.24 L260.24 501.19 C259.2 498.22 257.36 496.82 253.71 498.07 L245.36 510.52 C247.74 510.85 248.17 510.9 248.66 512.73"/>
    <g transform="matrix(1 0 0 1 62.680999 268.920013)">
      <path fill="#808080" d="M229.89 182.39 L225 188.43 L222.45 185.63 L170.31 268.05 C167.33 273.31 160.79 272.3 157.91 270.28 C156.69 269.89 146.93 260.43 162.05 264.08 L221.05 174.54 C223.11 175.68 227.91 177.32 229.89 182.39 Z"/>
    </g>
    <path fill="#333333" d="M218.9 363.53 L213.23 356.47 C213.23 356.47 212.11 349.72 213.6 345.92 C215.1 342.12 223.42 339.44 223.42 339.44 L214.97 347.29 L216.61 356.91 Z"/>
    <path fill="#ffffff" d="M332.43 395.1 L327.64 351.02 L334.14 350.45 Z"/>
    <g transform="matrix(1 0 0 1 62.618 268.23001)">
      <path fill="#ffffff" d="M148.86 288 L138.88 301.21 C141.18 303.41 144.81 302.76 148.2 300.91 L152.75 289.08 C150.36 289.16 149.92 289.17 149.13 287.46"/>
    </g>
    <path fill="#ffffff" d="M102.87 531.57 L94.1 543.09 C96.4 545.92 99.43 545.65 102.81 543.15 L107.61 532.77 C103.53 535.08 102.91 531.3 102.87 531.57 Z"/>
    <path fill="#ffffff" d="M143.52 486.36 C141.58 483.27 138.85 482.95 135.2 485.03 L129.67 495.63 C134 493.83 134.25 496.62 134.32 496.35 Z"/>
  </g>
  <g transform="matrix(0.719944 -0.004752 0.004752 0.719944 265.074951 376.756835)">
    <g transform="matrix(1.000054 0 -0 1.000038 -130.532226 -191.017242)">
      <path fill="#a0616a" d="M851.38 464.45 L840.76 494.09 C839.08 498.78 840.88 503.85 845.14 506.43 L845.14 506.43 C850.02 509.39 856.39 507.83 859.35 502.95 C860.16 501.6 860.61 500.3 860.78 498.74 L864.15 468.71 L889.69 384.29 L867.7 373.65 Z"/>
    </g>
    <g transform="matrix(1.000054 0 -0 1.000038 0.000031 0)">
      <path fill="#a0616a" d="M711.99 497.26 L727.6 497.26 L727.6 345.45 L692.13 344.74 Z"/>
    </g>
    <g transform="matrix(1.000054 0 -0 1.000038 -0.000031 0)">
      <path fill="#a0616a" d="M642.47 497.26 L658.07 497.26 L658.07 345.45 L622.6 344.74 Z"/>
    </g>
    <g transform="matrix(1.000054 0 -0 1.000038 -130.532257 -191.017242)">
      <path fill="#1b1b1b" d="M860.61 552.42 L820.17 548.16 L811.66 503.47 L796.05 548.87 L747.81 543.91 L767.67 468.71 C803.98 444.04 838.47 444.58 871.25 468.71 Z"/>
    </g>
    <g transform="matrix(1.000054 0 -0 1.000038 -130.532257 -191.017242)">
      <path fill="#1b1b1b" d="M792.05 694.74 C792.91 701.68 787.98 708.02 781.04 708.89 C779.9 709.03 778.91 709.03 777.77 708.87 L749.01 704.97 C743.66 704.14 739.99 699.12 740.82 693.77 L740.82 693.77 C741.56 688.93 745.63 685.44 750.53 685.44 L755.27 685.44 L770.87 671.23 C771.02 680.91 778.15 678.76 789.93 677.81 Z"/>
    </g>
    <g transform="matrix(1.000054 0 -0 1.000038 -130.532287 -191.017242)">
      <path fill="#1b1b1b" d="M861.57 694.74 C862.44 701.68 857.5 708.02 850.57 708.89 C849.42 709.03 848.43 709.03 847.29 708.87 L818.54 704.97 C813.19 704.14 809.52 699.12 810.34 693.77 L810.34 693.77 C811.09 688.93 815.16 685.44 820.05 685.44 L824.79 685.44 L840.39 671.23 C840.54 680.91 847.67 678.76 859.45 677.81 Z"/>
    </g>
    <g transform="matrix(1.000054 0 -0 1.000038 0 0)">
      <path fill="#a0616a" d="M650.63 78.17 C650.63 64.38 661.83 53.17 675.63 53.17 C689.43 53.17 700.64 64.38 700.64 78.17 C700.64 91.97 689.43 103.18 675.63 103.18 C661.83 103.18 650.63 91.97 650.63 78.17 Z"/>
    </g>
    <g transform="matrix(1.000054 0 -0 1.000038 0.000031 0)">
      <path fill="#a0616a" d="M707.38 120.21 L676.16 123.04 L676.16 95.38 L692.48 85.44 Z"/>
    </g>
    <g transform="matrix(1.000054 0 -0 1.000038 -130.532226 -191.017242)">
      <path fill="#2195f2" d="M874.79 479.35 C843.39 456.36 805.68 458.69 764.12 476.51 C782.95 423.21 790.97 373.53 776.18 331.5 C776.18 315.99 786.31 302.95 801.33 299.11 L806.69 297.74 L832.94 299.16 L857.59 313.61 C868.12 319.78 874.12 330.19 874.17 342.4 Z"/>
    </g>
    <g transform="matrix(1.000054 0 -0 1.000038 -130.532287 -191.017242)">
      <path fill="#a0616a" d="M753.48 458.78 L742.86 488.42 C741.18 493.11 742.98 498.18 747.23 500.76 L747.23 500.76 C752.12 503.72 758.49 502.16 761.45 497.27 C762.26 495.93 762.7 494.63 762.88 493.06 L766.25 463.03 L791.79 378.61 L769.8 367.97 Z"/>
    </g>
    <g transform="matrix(1.000054 0 -0 1.000038 -130.532226 -191.017242)">
      <path fill="#2195f2" d="M895.37 400.6 L860.61 400.6 L860.61 315.47 L860.61 315.47 C873.23 322.49 881.29 333.43 884.25 347.56 Z"/>
    </g>
    <g transform="matrix(1.000054 0 -0 1.000038 -130.532226 -191.017242)">
      <path fill="#1b1b1b" d="M787.09 255.64 C783.89 257.16 780.45 256.97 777.43 255.12 C774.48 253.17 773.25 249.64 774.35 246.29 C775.41 243.58 778.08 241.88 780.66 240.55 C786.67 237.48 792.17 235.64 798.82 234.49 C801.83 233.97 805.02 233.68 807.87 234.8 C809.28 235.35 810.55 236.22 811.94 236.8 C814.52 237.86 817.39 237.86 820.11 238.44 C825.96 239.72 830.47 243.1 833.34 248.35 C834.29 250.15 834.9 251.77 835.39 253.73 C836.77 259.09 836.75 263.96 835.34 269.31 C833.2 277.39 827.75 284.82 828.24 293.16 C824.21 290.82 822.33 286.04 818.96 282.81 C816.35 280.32 813.37 278.98 809.78 278.65 C808.8 278.69 807.95 278.48 807.1 277.97 C806.49 277.37 806.12 276.7 805.93 275.86 L802.14 263.99 C801.37 261.57 800.44 258.95 798.26 257.65 C796.85 256.94 795.51 256.61 793.92 256.6 C790.13 256.32 786.89 256.35 783.1 256.7"/>
    </g>
    <g transform="matrix(1.000054 0 -0 1.000038 -130.532287 -191.017242)">
      <path fill="#2195f2" d="M795.34 385 L754.9 369.39 L773.27 319.91 C777.74 307.85 788.18 300.04 801.01 299.16 L801.01 299.16 Z"/>
    </g>
  </g>
  <g transform="matrix(0.999986 0 0 0.999328 -135.49147 -78.197372)">
    <path fill="#3f3d56" d="M1061.8 821.75 L680.8 821.75 C680.25 821.75 679.8 821.3 679.8 820.75 C679.8 820.2 680.25 819.75 680.8 819.75 L1061.8 819.75 C1062.36 819.75 1062.8 820.2 1062.8 820.75 C1062.8 821.3 1062.36 821.75 1061.8 821.75 Z"/>
  </g>
</svg>
