<?xml version="1.0" encoding="UTF-8"?>
<svg viewBox="0 0 285.33591 364.66696" xmlns="http://www.w3.org/2000/svg">
 <g transform="translate(-445.74 -105.2)">
  <path d="m631.61 263.92c-0.44636-1.594-3.2648-3.6113-3.2648-3.6113l-11.202-7.6395 9.1726-1.2843s6.0077 2.8971 8.8573 6.029 2.5698 4.1176 2.5698 4.1176-5.6908 3.9677-6.133 2.3885z" fill="#463d40" fill-rule="evenodd" stroke="#463d40" stroke-width="2.8"/>
  <path transform="rotate(90)" d="m308.32-621.66h0.34333a2.2923 2.2923 0 0 1 2.2923 2.2923v65.132a2.2923 2.2923 0 0 1 -2.2923 2.2923h-0.34333a2.2923 2.2923 0 0 1 -2.2923 -2.2923v-65.132a2.2923 2.2923 0 0 1 2.2923 -2.2923" fill="#070404" stroke="#484545" stroke-linecap="round" stroke-linejoin="round" stroke-width="2.7"/>
  <path d="m542.87 264.19c0.44636-1.594 3.2648-3.6113 3.2648-3.6113l11.202-7.6395-9.1726-1.2843s-6.0077 2.8971-8.8573 6.029-2.5698 4.1176-2.5698 4.1176 5.6908 3.9677 6.133 2.3885z" fill="#463d40" fill-rule="evenodd" stroke="#463d40" stroke-width="2.8"/>
  <path d="m605.04 207.25c16.032 7.9182 29.188 6.2428 29.364 18.821 0.14392 10.313-11.409 7.3681-19.114 17.62-6.1681 8.208-20.845 7.6924-20.845 7.6924l-8.3296 0.0573 1.076-44.191h17.849zm-36.836 0.00195c-16.032 7.9182-29.188 6.2428-29.364 18.821-0.14393 10.313 11.409 7.3681 19.114 17.62 6.1681 8.208 20.845 7.6924 20.845 7.6924l8.3297 0.0573-1.076-44.191h-17.849z" fill="#a86907" fill-rule="evenodd" stroke="#a0620d" stroke-width="2.4"/>
  <path d="m581.31 148.55s-5.6615 0.83215-13.082 1.5103c-7.3081 0.66792-17.905 3.7669-24.528 7.199-6.7144 3.4792-10.044 8.6582-12.479 16.713-2.4468 8.093-1.8772 13.298-0.38574 20.832 1.4865 7.5096 3.6584 9.8907 9.4107 14.098 5.8538 4.2819 11.711 6.8457 18.626 11.654s12.414 11.205 12.414 11.205 4.2307 5.2154 7.7375 7.0133 6.8532 0.0532 6.8532 0.0532l0.03006-90.278h-4.5971zm11.465-0.07273s5.6615 0.83215 13.082 1.5103c7.3081 0.66792 17.905 3.7669 24.528 7.199 6.7144 3.4792 10.044 8.6582 12.479 16.713 2.4468 8.093 1.8772 13.298 0.38574 20.832-1.4865 7.5096-3.6584 9.8907-9.4107 14.098-5.8538 4.2819-11.711 6.8457-18.626 11.654s-12.414 11.205-12.414 11.205-4.2307 5.2154-7.7375 7.0133-6.8532 0.0532-6.8532 0.0532l-0.03006-90.278h4.5971z" fill="#00d3ff" fill-rule="evenodd" stroke="#95f3ff" stroke-width="2.6"/>
  <g transform="matrix(-.98018 0 0 .81029 1242.9 49.091)">
   <path d="m707.65 238.22c4.4589 4.53 4.7536 7.5488 4.7726 15.609 0.00209 4.9108 0.04895 22.011 0.02409 24.6-0.06569 6.4882-6.2533 10.172-6.2533 10.172s-0.20861 0.967-0.1748 3.3384c0.06505 9.2941-2.7e-4 2.9119-0.06352 10.98-0.19832 7.7613-9.868 12.852-17.427 12.9-8.465 0.0522-8.3426-0.10579-15.871-0.08071l0.15705-89.393s3.9185 0.09013 7.1161 0.09844c2.3807 0.15664 6.1573 4.3191 9.0454 4.4682s14.205 2.767 18.675 7.3078z" fill="#afc0c0" fill-rule="evenodd"/>
   <path d="m686.45 248.72c37.522 0 20.329 0.05504 20.329 0.05504" fill="none" stroke="#e0e0e1" stroke-width="1.1221"/>
   <path d="m673.01 252.24h37.623" fill="none" stroke="#e0e0e1" stroke-width="1.1221"/>
   <path d="m673.01 255.58h37.728" fill="none" stroke="#e0e0e1" stroke-width="1.1221"/>
   <path d="m673.01 258.7h37.623" fill="none" stroke="#e0e0e1" stroke-width="1.1221"/>
   <path d="m672.98 261.93h37.518" fill="none" stroke="#e0e0e1" stroke-width="1.1221"/>
   <path d="m672.96 265.26h37.518" fill="none" stroke="#e0e0e1" stroke-width="1.1221"/>
   <path d="m673.04 268.69h37.413" fill="none" stroke="#e0e0e1" stroke-width="1.1221"/>
   <path d="m673.04 271.98h37.413" fill="none" stroke="#e0e0e1" stroke-width="1.1221"/>
   <path d="m672.86 275.34h37.832" fill="none" stroke="#e0e0e1" stroke-width="1.1221"/>
   <path d="m672.73 279.13h37.639" fill="none" stroke="#e0e0e1" stroke-width="1.1221"/>
   <path d="m672.74 283.16h35.143" fill="none" stroke="#e0e0e1" stroke-width="1.1221"/>
   <path d="m686.21 245.7h24.333" fill="none" stroke="#e0e0e1" stroke-width="1.1221"/>
   <path d="m686.18 242.27h21.812" fill="none" stroke="#e0e0e1" stroke-width="1.1221"/>
   <path d="m672.77 238.92h32.063" fill="none" stroke="#e0e0e1" stroke-width="1.1221"/>
   <path d="m672.87 235.5h27.687" fill="none" stroke="#e0e0e1" stroke-width="1.1221"/>
   <path d="m672.38 232.45h8.1128" fill="none" stroke="#e0e0e1" stroke-width="1.1221"/>
   <path d="m680.02 226.49v5.6866" fill="none" stroke="#e0e0e1" stroke-width="1.1221"/>
   <path d="m672.74 286.73h30.001" fill="none" stroke="#e0e0e1" stroke-width="1.1221"/>
   <path d="m702.28 307.43v-20.837" fill="none" stroke="#e0e0e1" stroke-width="1.1221"/>
   <path d="m672.51 306.99h30.001" fill="none" stroke="#e0e0e1" stroke-width="1.1221"/>
  </g>
  <g transform="matrix(.98018 0 0 .81029 -68.571 49.124)">
   <path d="m707.65 238.22c4.4589 4.53 4.7536 7.5488 4.7726 15.609 0.00209 4.9108 0.04895 22.011 0.02409 24.6-0.06569 6.4882-6.2533 10.172-6.2533 10.172s-0.20861 0.967-0.1748 3.3384c0.06505 9.2941-2.7e-4 2.9119-0.06352 10.98-0.19832 7.7613-9.868 12.852-17.427 12.9-8.465 0.0522-8.3426-0.10579-15.871-0.08071l0.15705-89.393s3.9185 0.09013 7.1161 0.09844c2.3807 0.15664 6.1573 4.3191 9.0454 4.4682s14.205 2.767 18.675 7.3078z" fill="#afc0c0" fill-rule="evenodd"/>
   <path d="m686.14 249.09c37.522 0 20.795-0.18792 20.795-0.18792" fill="none" stroke="#e0e0e1" stroke-width="1.1221"/>
   <path d="m673.01 252.24h37.623" fill="none" stroke="#e0e0e1" stroke-width="1.1221"/>
   <path d="m673.01 255.58h37.728" fill="none" stroke="#e0e0e1" stroke-width="1.1221"/>
   <path d="m673.01 258.7h37.623" fill="none" stroke="#e0e0e1" stroke-width="1.1221"/>
   <path d="m672.98 261.93h37.518" fill="none" stroke="#e0e0e1" stroke-width="1.1221"/>
   <path d="m672.96 265.26h37.518" fill="none" stroke="#e0e0e1" stroke-width="1.1221"/>
   <path d="m673.04 268.69h37.413" fill="none" stroke="#e0e0e1" stroke-width="1.1221"/>
   <path d="m673.04 271.98h37.413" fill="none" stroke="#e0e0e1" stroke-width="1.1221"/>
   <path d="m672.86 275.34h37.832" fill="none" stroke="#e0e0e1" stroke-width="1.1221"/>
   <path d="m672.73 279.13h37.639" fill="none" stroke="#e0e0e1" stroke-width="1.1221"/>
   <path d="m672.74 283.16h35.143" fill="none" stroke="#e0e0e1" stroke-width="1.1221"/>
   <path d="m685.9 245.7h24.644" fill="none" stroke="#e0e0e1" stroke-width="1.1221"/>
   <path d="m685.56 242.27h22.589" fill="none" stroke="#e0e0e1" stroke-width="1.1221"/>
   <path d="m672.77 238.92h32.063" fill="none" stroke="#e0e0e1" stroke-width="1.1221"/>
   <path d="m672.87 235.5h27.687" fill="none" stroke="#e0e0e1" stroke-width="1.1221"/>
   <path d="m672.38 232.45h8.1128" fill="none" stroke="#e0e0e1" stroke-width="1.1221"/>
   <path d="m680.02 226.49v5.6866" fill="none" stroke="#e0e0e1" stroke-width="1.1221"/>
   <path d="m672.74 286.73h30.001" fill="none" stroke="#e0e0e1" stroke-width="1.1221"/>
   <path d="m702.28 307.43v-20.837" fill="none" stroke="#e0e0e1" stroke-width="1.1221"/>
   <path d="m672.51 306.99h30.001" fill="none" stroke="#e0e0e1" stroke-width="1.1221"/>
  </g>
  <path d="m558.48 375.47h57.278a2.1523 1.6967 0 0 1 2.1523 1.6967 2.1523 1.6967 0 0 1 -2.1523 1.6967h-57.278a2.1523 1.6967 0 0 1 -2.1523 -1.6967 2.1523 1.6967 0 0 1 2.1523 -1.6967" stroke="#3f3f3f" stroke-linecap="round" stroke-linejoin="round" stroke-width="2"/>
  <g transform="translate(22,-356)" stroke="#b3adad" stroke-width="4.2">
   <path d="m519.71 477.14h93.348a1.2065 0.086098 0 0 1 1.2065 0.0861 1.2065 0.086098 0 0 1 -1.2065 0.0861h-93.348a1.2065 0.086098 0 0 1 -1.2065 -0.0861 1.2065 0.086098 0 0 1 1.2065 -0.0861" stroke-linecap="round" stroke-linejoin="round"/>
   <path d="m462.17 467.53c5.7953 0.02317 5.7657 0.04918 25.837 0.07513 11.999 0.01545 18.779-0.62658 24.085 3.8258 5.2518 4.4074 10.754 15.727 19.211 20.381 3.7182 2.0464 14.923 3.4557 23.754 3.4585 7.0806 0.00221 7.0806 0.06554 14.071 0.06395" fill="none"/>
   <path d="m670.64 467.53c-5.7953 0.02317-5.7657 0.04918-25.837 0.07513-11.999 0.01545-18.779-0.62658-24.085 3.8258-5.2518 4.4074-10.754 15.727-19.211 20.381-3.7182 2.0464-14.923 3.4557-23.754 3.4585-7.0806 0.00221-7.0806 0.06554-14.071 0.06395" fill="none"/>
  </g>
  <path d="m587.04 136.77h0.34333a2.2923 2.2923 0 0 1 2.2923 2.2923v189.4a2.2923 2.2923 0 0 1 -2.2923 2.2923h-0.34333a2.2923 2.2923 0 0 1 -2.2923 -2.2923v-189.4a2.2923 2.2923 0 0 1 2.2923 -2.2923" fill="#070404" stroke="#484545" stroke-linecap="round" stroke-linejoin="round" stroke-width="2.7"/>
  <g transform="translate(.21535,-.86138)" stroke="#463d40">
   <path d="m576.44 251.64s0.4544 17.674-9.9124 24.73c-10.609 7.2215-24.24 2.2684-26.301-3.7511-2.0297-5.9268-0.53887-9.313-0.53887-9.313" fill="none" stroke-width="9.4"/>
   <path transform="matrix(.16883 0 0 1 478.92 .60909)" d="m578.64 251.1a1.0659 1.2182 0 1 1 -2.1318 0 1.0659 1.2182 0 1 1 2.1318 0z" fill="#fff" fill-rule="evenodd" stroke-linecap="round" stroke-linejoin="round" stroke-width="22.147"/>
  </g>
  <g transform="matrix(-1 0 0 1 1174.3 -.71857)" stroke="#463d40">
   <path d="m576.44 251.64s0.4544 17.674-9.9124 24.73c-10.609 7.2215-24.24 2.2684-26.301-3.7511-2.0297-5.9268-0.53887-9.313-0.53887-9.313" fill="none" stroke-width="9.4"/>
   <path transform="matrix(.16883 0 0 1 478.92 .60909)" d="m578.64 251.1a1.0659 1.2182 0 1 1 -2.1318 0 1.0659 1.2182 0 1 1 2.1318 0z" fill="#fff" fill-rule="evenodd" stroke-linecap="round" stroke-linejoin="round" stroke-width="22.147"/>
  </g>
  <path d="m573.6 367.44-3.2021-93.784s-1.0641-10.924 6.1603-14.654 14.163-3.8632 21.119-0.13323 5.762 15.32 5.762 15.32l-3.0652 93.326" fill="#00d3ff" fill-rule="evenodd" stroke="#95f3ff" stroke-width="2.7"/>
  <path d="m573.04 293.18h27.928v163.69h-27.928v-163.69zm27.647-2e-5c0 6.3494-6.1859 11.503-13.808 11.503s-13.808-5.1532-13.808-11.503 6.1859-11.503 13.808-11.503 13.808 5.1532 13.808 11.503zm0.23918 164.58c0 6.3494-6.2372 11.503-13.922 11.503s-13.922-5.1532-13.922-11.503 6.2372-11.503 13.922-11.503 13.922 5.1532 13.922 11.503z" fill="#464763"/>
  <path d="m612.12 148.7h0.46644a3.99 3.99 0 0 1 3.99 3.99v159.8a3.99 3.99 0 0 1 -3.99 3.99h-0.46644a3.99 3.99 0 0 1 -3.99 -3.99v-159.8a3.99 3.99 0 0 1 3.99 -3.99" fill="#dfdfec" stroke="#dfdfec" stroke-linecap="round" stroke-linejoin="round" stroke-width="2.531"/>
  <path d="m612.38 135.58a1.2572 3.99 0 0 1 1.2572 3.99v172.95a1.2572 3.99 0 0 1 -1.2572 3.99 1.2572 3.99 0 0 1 -1.2572 -3.99v-172.95a1.2572 3.99 0 0 1 1.2572 -3.99" fill="#dfdfec" stroke="#cbcbcb" stroke-linecap="round" stroke-linejoin="round" stroke-width="2.531"/>
  <path d="m618.44 307.3v57.478c0 4.6205-2.7523 8.3402-6.1711 8.3402s-6.1711-3.7198-6.1711-8.3402v-57.478c0-4.6205 12.342-4.6205 12.342 0zm-9.5418 73.563h6.6271v-10.451h-6.6271v10.451z" fill="#95f3ff" stroke="#95f3ff" stroke-linecap="round" stroke-linejoin="round" stroke-width="2.531"/>
  <path d="m616.56 308.25v54.183c0 4.3556-1.8871 7.8621-4.2312 7.8621s-4.2312-3.5065-4.2312-7.8621v-54.183c0-4.3556 8.4624-4.3556 8.4624 0zm-5.681 71.173 2.8842-1e-5 0.15227-11.679h-3.2518l0.21534 11.679z" fill="#00d3ff" stroke="#00d3ff" stroke-linecap="round" stroke-linejoin="round" stroke-width="2.531"/>
  <path d="m561.4 144.21h0.46644a3.99 3.99 0 0 1 3.99 3.99v162.31a3.99 3.99 0 0 1 -3.99 3.99h-0.46644a3.99 3.99 0 0 1 -3.99 -3.99v-162.31a3.99 3.99 0 0 1 3.99 -3.99" fill="#dfdfec" stroke="#dfdfec" stroke-linecap="round" stroke-linejoin="round" stroke-width="2.531"/>
  <path d="m561.66 134.83a1.2572 3.99 0 0 1 1.2572 3.99v171.76a1.2572 3.99 0 0 1 -1.2572 3.99 1.2572 3.99 0 0 1 -1.2572 -3.99v-171.76a1.2572 3.99 0 0 1 1.2572 -3.99" fill="#dfdfec" stroke="#cbcbcb" stroke-linecap="round" stroke-linejoin="round" stroke-width="2.531"/>
  <path d="m553.95 202.73 14.694 0.2462 13.443 10.586h9.2228l0.15631 8.863h-9.3791l-13.912-10.833h-14.225v-8.863zm66.279 0-14.694 0.2462-13.443 10.586-1.398 0.13741 0.0176 8.7256h1.3804l13.912-10.833h14.225v-8.863z" fill="#95f3ff" fill-rule="evenodd" stroke="#95f3ff"/>
  <path d="m556.33 205.2 10.952 0.08673 14.991 11.715h10.127l-1.6822 2.6614-7.9891-0.15357-13.742-10.42h-12.656v-3.89zm61.196 0.21535c-6.6858 0.0289-6.6934-0.00396-11.103 0.02495l-13.472 10.909-10.449-0.05926 5.1042 0.45502 4.0533 2.6107 13.112-10.128 12.754 0.01587v-3.8282z" fill="#00d3ff" fill-rule="evenodd" stroke="#00d3ff" stroke-width="3.5"/>
  <path d="m605.55 203.13v8.5273" fill="#95f3ff" fill-rule="evenodd" stroke="#95f3ff" stroke-width="1.4"/>
  <path d="m568.62 203.19v8.5273" fill="#95f3ff" fill-rule="evenodd" stroke="#95f3ff" stroke-width="1.4"/>
  <path d="m582.73 213.69v8.5273" fill="#95f3ff" fill-rule="evenodd" stroke="#95f3ff" stroke-width="1.4"/>
  <path d="m591.77 213.69v8.5273" fill="#95f3ff" fill-rule="evenodd" stroke="#95f3ff" stroke-width="1.4"/>
  <g transform="translate(-39.954 -27.947)" fill-rule="evenodd" stroke="#95f3ff">
   <path d="m523.42 134.16-36.926 0.23943v8.3812h36.926v-8.6206z" fill="#00d3ff" stroke-width="1.6"/>
   <path d="m491.38 134.77v7.6136" fill="#95f3ff"/>
   <path d="m495.5 135v7.6136" fill="#95f3ff"/>
   <path d="m499.38 134.77v7.6136" fill="#95f3ff"/>
   <path d="m503.19 134.84v7.6136" fill="#95f3ff"/>
   <path d="m506.69 134.69v7.6136" fill="#95f3ff"/>
   <path d="m510.11 134.77v7.6136" fill="#95f3ff"/>
   <path d="m513.16 134.84v7.6136" fill="#95f3ff"/>
   <path d="m515.9 134.77v7.6136" fill="#95f3ff"/>
   <path d="m518.49 134.69v7.6136" fill="#95f3ff"/>
   <path d="m520.92 134.77v7.6136" fill="#95f3ff"/>
  </g>
  <g transform="matrix(-1 0 0 1 1216.8 -28.157)" fill-rule="evenodd" stroke="#95f3ff">
   <path d="m523.42 134.16-36.926 0.23943v8.3812h36.926v-8.6206z" fill="#00d3ff" stroke-width="1.6"/>
   <path d="m491.38 134.77v7.6136" fill="#95f3ff"/>
   <path d="m495.5 135v7.6136" fill="#95f3ff"/>
   <path d="m499.38 134.77v7.6136" fill="#95f3ff"/>
   <path d="m503.19 134.84v7.6136" fill="#95f3ff"/>
   <path d="m506.69 134.69v7.6136" fill="#95f3ff"/>
   <path d="m510.11 134.77v7.6136" fill="#95f3ff"/>
   <path d="m513.16 134.84v7.6136" fill="#95f3ff"/>
   <path d="m515.9 134.77v7.6136" fill="#95f3ff"/>
   <path d="m518.49 134.69v7.6136" fill="#95f3ff"/>
   <path d="m520.92 134.77v7.6136" fill="#95f3ff"/>
  </g>
  <path d="m502.87 107.18-18.16 0.18096v6.334h18.16v-6.515z" fill="#373737" fill-rule="evenodd" opacity=".7" stroke="#373737"/>
  <path d="m692.16 107.18-18.16 0.18096v6.334h18.16v-6.515z" fill="#373737" fill-rule="evenodd" opacity=".7" stroke="#373737"/>
  <path d="m459.01 109.73 43.516 0.04687v1.6406h-43.516v-1.6874zm-5.5754 0.62189c0 1.3207 1.1615 2.3926 2.5926 2.3926s2.5926-1.0719 2.5926-2.3926-1.1615-2.3926-2.5926-2.3926-2.5926 1.0719-2.5926 2.3926z" fill="#464646" fill-rule="evenodd" stroke="#5a5a5a"/>
  <g transform="translate(21.709 -358.1)" fill="none" stroke="#d5d5d5" stroke-opacity=".35017" stroke-width="4.2">
   <path d="m519.71 477.14h93.348a1.2065 0.086098 0 0 1 1.2065 0.0861 1.2065 0.086098 0 0 1 -1.2065 0.0861h-93.348a1.2065 0.086098 0 0 1 -1.2065 -0.0861 1.2065 0.086098 0 0 1 1.2065 -0.0861" stroke-linecap="round" stroke-linejoin="round"/>
   <path d="m462.17 467.53c5.7953 0.02317 5.7657 0.04918 25.837 0.07513 11.999 0.01545 18.779-0.62658 24.085 3.8258 5.2518 4.4074 10.754 15.727 19.211 20.381 3.7182 2.0464 14.923 3.4557 23.754 3.4585 7.0806 0.00221 7.0806 0.06554 14.071 0.06395"/>
   <path d="m670.64 467.53c-5.7953 0.02317-5.7657 0.04918-25.837 0.07513-11.999 0.01545-18.779-0.62658-24.085 3.8258-5.2518 4.4074-10.754 15.727-19.211 20.381-3.7182 2.0464-14.923 3.4557-23.754 3.4585-7.0806 0.00221-7.0806 0.06554-14.071 0.06395"/>
  </g>
  <path d="m717.55 109.45-43.516 0.04687v1.6406h43.516v-1.6874zm5.5754 0.6219c0 1.3207-1.1615 2.3926-2.5926 2.3926s-2.5926-1.0719-2.5926-2.3926 1.1615-2.3926 2.5926-2.3926 2.5926 1.0719 2.5926 2.3926z" fill="#464646" fill-rule="evenodd" stroke="#5a5a5a"/>
  <path d="m587.49 142.25c-36.545 0.98294-36.779 4.3674-36.779 4.3674s-1.1501 1.9339 0.77218 3.4258c1.9302 1.498 35.989 1.0893 35.989 1.0893l0.01848-8.8825z" fill="#00d3ff" fill-rule="evenodd" stroke="#95f3ff" stroke-width="1.7"/>
  <path d="m587.53 142.26c36.545 0.98216 36.779 4.3639 36.779 4.3639s1.1501 1.9324-0.77218 3.4231c-1.9302 1.4968-35.989 1.0884-35.989 1.0884l-0.01848-8.8755z" fill="#00d3ff" fill-rule="evenodd" stroke="#95f3ff" stroke-width="1.7"/>
  <g transform="matrix(3.7809 0 0 2.6068 -36.89 -469.68)">
   <path d="m163.64 226.24c0 0.82592-1.3063 1.4908-2.9288 1.4908h-0.28623c-1.6226 0-2.9288-0.66491-2.9288-1.4908s1.3062-1.4908 2.9288-1.4908h0.28623c1.6226 0 2.9288 0.6649 2.9288 1.4908zm-6.1393-0.06506h6.1493v5.8845h-6.1493v-5.8845z" fill="#00cfff" stroke="#00cfff" stroke-linecap="round" stroke-linejoin="round" stroke-width=".10543"/>
   <path d="m163.69604,231.31489v1.05185c0,.18131-.35273.3273-.79087.3273h-4.65621c-.43815,0-.79087-.14599-.79087-.3273v-1.05185c0-.18133.35272-.32732.79087-.32732h4.65621c.43814,0 .79087.14599.79087.32732z" fill="#0af"/>
  </g>
  <g transform="matrix(3.7809 0 0 2.6068 -78.38 -470.96)">
   <path d="m174.58 226.11c0 0.82592-1.3063 1.4908-2.9288 1.4908h-0.28623c-1.6226 0-2.9288-0.66491-2.9288-1.4908s1.3062-1.4908 2.9288-1.4908h0.28623c1.6226 0 2.9288 0.6649 2.9288 1.4908zm-6.1393-0.06506h6.1493v5.8845h-6.1493v-5.8845z" fill="#00dcff" opacity=".3" stroke="#00dcff" stroke-linecap="round" stroke-linejoin="round" stroke-width=".10543"/>
   <path d="m174.59003,231.64377v1.00438c0,.17314-.34876.31254-.78198.31254h-4.60386c-.43321,0-.78197-.1394-.78197-.31254v-1.00438c0-.17315.34876-.31255.78197-.31255h4.60386c.43322,0 .78198.1394.78198.31255z" fill="#7feeff" opacity=".39684"/>
  </g>
  <g transform="matrix(3.7809 0 0 2.6068 -.97587 -469.47)">
   <path d="m163.64 226.24c0 0.82592-1.3063 1.4908-2.9288 1.4908h-0.28623c-1.6226 0-2.9288-0.66491-2.9288-1.4908s1.3062-1.4908 2.9288-1.4908h0.28623c1.6226 0 2.9288 0.6649 2.9288 1.4908zm-6.1393-0.06506h6.1493v5.8845h-6.1493v-5.8845z" fill="#00cfff" stroke="#00cfff" stroke-linecap="round" stroke-linejoin="round" stroke-width=".10543"/>
   <path d="m163.69604,231.31489v1.05185c0,.18131-.35273.3273-.79087.3273h-4.65621c-.43815,0-.79087-.14599-.79087-.3273v-1.05185c0-.18133.35272-.32732.79087-.32732h4.65621c.43814,0 .79087.14599.79087.32732z" fill="#0af"/>
  </g>
  <g transform="matrix(3.7809 0 0 2.6068 -42.467 -470.75)">
   <path d="m174.58 226.11c0 0.82592-1.3063 1.4908-2.9288 1.4908h-0.28623c-1.6226 0-2.9288-0.66491-2.9288-1.4908s1.3062-1.4908 2.9288-1.4908h0.28623c1.6226 0 2.9288 0.6649 2.9288 1.4908zm-6.1393-0.06506h6.1493v5.8845h-6.1493v-5.8845z" fill="#00dcff" opacity=".3" stroke="#00dcff" stroke-linecap="round" stroke-linejoin="round" stroke-width=".10543"/>
   <path d="m174.59003,231.64377v1.00438c0,.17314-.34876.31254-.78198.31254h-4.60386c-.43321,0-.78197-.1394-.78197-.31254v-1.00438c0-.17315.34876-.31255.78197-.31255h4.60386c.43322,0 .78198.1394.78198.31255z" fill="#7feeff" opacity=".39684"/>
  </g>
  <path transform="matrix(.88156 0 0 .99665 -39.178 -415.42)" d="m738.33 576.35a27.612 22.21 0 1 1 -55.225 0 27.612 22.21 0 1 1 55.225 0z" fill="none" stroke="#b3b8ad" stroke-linecap="round" stroke-linejoin="round" stroke-width="4.2674"/>
  <path transform="matrix(.83419 0 0 .93125 -5.803 -377.98)" d="m738.33 576.35a27.612 22.21 0 1 1 -55.225 0 27.612 22.21 0 1 1 55.225 0z" fill="#b3adad" fill-rule="evenodd" opacity=".8" stroke="#b3adad" stroke-linecap="round" stroke-linejoin="round" stroke-width="7.7152"/>
  <path transform="matrix(1.5199 0 0 1.5868 402.04 -200.47)" d="m134.66 226.44a12.718 10.972 0 1 1 -25.436 0 12.718 10.972 0 1 1 25.436 0z" fill="#fff400" stroke="#ffe700" stroke-linecap="round" stroke-linejoin="round" stroke-width="4.3342"/>
  <path transform="matrix(.87597 0 0 .91503 480.38 -48.445)" d="m134.66 226.44a12.718 10.972 0 1 1 -25.436 0 12.718 10.972 0 1 1 25.436 0z" fill="#fffff3" opacity=".6"/>
  <path transform="matrix(.83419 0 0 .93125 -5.7653 -377.73)" d="m738.33 576.35a27.612 22.21 0 1 1 -55.225 0 27.612 22.21 0 1 1 55.225 0z" fill="none" stroke="#f0f0f0" stroke-linecap="round" stroke-linejoin="round" stroke-width="1.9288"/>
  <path transform="matrix(.94788 0 0 1.083 -86.568 -465.16)" d="m738.33 576.35a27.612 22.21 0 1 1 -55.225 0 27.612 22.21 0 1 1 55.225 0z" fill="none" stroke="#0af" stroke-linecap="round" stroke-linejoin="round" stroke-width=".4935"/>
  <path d="m568.01 307.32v57.478c0 4.6205-2.7523 8.3402-6.1711 8.3402s-6.1711-3.7198-6.1711-8.3402v-57.478c0-4.6205 12.342-4.6205 12.342 0zm-9.5418 73.563h6.6271v-10.451h-6.6271v10.451z" fill="#95f3ff" stroke="#95f3ff" stroke-linecap="round" stroke-linejoin="round" stroke-width="2.531"/>
  <path d="m566.13 308.27v54.183c0 4.3556-1.8871 7.8621-4.2312 7.8621s-4.2312-3.5065-4.2312-7.8621v-54.183c0-4.3556 8.4624-4.3556 8.4624 0zm-5.681 71.173 2.8842-1e-5 0.15227-11.679h-3.2518l0.21534 11.679z" fill="#00d3ff" stroke="#00d3ff" stroke-linecap="round" stroke-linejoin="round" stroke-width="2.531"/>
  <path d="m625.81 305.95h20.614a2.1523 2.1523 0 0 1 2.1523 2.1523v0.46978a2.1523 2.1523 0 0 1 -2.1523 2.1523h-20.614a2.1523 2.1523 0 0 1 -2.1523 -2.1523v-0.46978a2.1523 2.1523 0 0 1 2.1523 -2.1523" fill="#070404" fill-rule="evenodd" stroke="#463d40" stroke-linecap="round" stroke-linejoin="round" stroke-width="1.7"/>
  <path d="m527.52 305.97h20.614a2.1523 2.1523 0 0 1 2.1523 2.1523v0.46978a2.1523 2.1523 0 0 1 -2.1523 2.1523h-20.614a2.1523 2.1523 0 0 1 -2.1523 -2.1523v-0.46978a2.1523 2.1523 0 0 1 2.1523 -2.1523" fill="#070404" fill-rule="evenodd" stroke="#463d40" stroke-linecap="round" stroke-linejoin="round" stroke-width="1.7"/>
 </g>
</svg>
