<?xml version="1.0" encoding="UTF-8" standalone="no"?>
<!-- Created with PhotoLine 22.50 (www.pl32.de) -->
<!DOCTYPE svg PUBLIC "-//W3C//DTD SVG 1.1//EN" "http://www.w3.org/Graphics/SVG/1.1/DTD/svg11.dtd">
<svg width="286" height="366" viewBox="0 0 286 366" version="1.1" xmlns="http://www.w3.org/2000/svg" xmlns:xlink="http://www.w3.org/1999/xlink">
  <g transform="matrix(1 0 0 1 -445.73999 -104.199996)">
    <path stroke-width="2.8" fill="#333333" fill-rule="evenodd" stroke="#333333" d="M631.61 263.92 C631.16 262.33 628.35 260.31 628.35 260.31 L617.14 252.67 L626.32 251.38 C626.32 251.38 632.32 254.28 635.17 257.41 C638.02 260.55 637.74 261.53 637.74 261.53 C637.74 261.53 632.05 265.5 631.61 263.92 Z"/>
    <g transform="matrix(0 1 -1 0 0 0)">
      <path stroke-width="2.7" stroke-linecap="round" stroke-linejoin="round" fill="#070404" stroke="#333333" d="M308.32 -621.66 L308.66 -621.66 C309.93 -621.66 310.96 -620.63 310.96 -619.37 L310.96 -554.24 C310.96 -552.97 309.93 -551.94 308.66 -551.94 L308.32 -551.94 C307.06 -551.94 306.03 -552.97 306.03 -554.24 L306.03 -619.37 C306.03 -620.63 307.06 -621.66 308.32 -621.66 Z"/>
    </g>
    <path stroke-width="2.8" fill="#333333" fill-rule="evenodd" stroke="#333333" d="M542.87 264.19 C543.32 262.6 546.13 260.58 546.13 260.58 L557.34 252.94 L548.16 251.65 C548.16 251.65 542.16 254.55 539.31 257.68 C536.46 260.82 536.74 261.8 536.74 261.8 C536.74 261.8 542.43 265.77 542.87 264.19 Z"/>
    <path stroke-width="2.4" fill="#a86907" fill-rule="evenodd" stroke="#a0620d" d="M605.04 207.25 C621.07 215.17 634.23 213.49 634.4 226.07 C634.55 236.38 622.99 233.44 615.29 243.69 C609.12 251.9 594.44 251.38 594.44 251.38 L586.12 251.44 L587.19 207.25 Z M568.2 207.25 C552.17 215.17 539.02 213.49 538.84 226.07 C538.7 236.39 550.25 233.44 557.95 243.69 C564.12 251.9 578.8 251.39 578.8 251.39 L587.13 251.44 L586.05 207.25 Z"/>
    <path stroke-width="2.6" fill="#2586ee" fill-rule="evenodd" stroke="#2478de" d="M581.31 148.55 C581.31 148.55 575.65 149.38 568.23 150.06 C560.92 150.73 550.32 153.83 543.7 157.26 C536.99 160.74 533.66 165.92 531.22 173.97 C528.77 182.07 529.34 187.27 530.84 194.8 C532.32 202.31 534.49 204.69 540.25 208.9 C546.1 213.18 551.96 215.75 558.87 220.56 C565.79 225.36 571.29 231.76 571.29 231.76 C571.29 231.76 575.52 236.98 579.02 238.77 C582.53 240.57 585.88 238.83 585.88 238.83 L585.91 148.55 Z M592.77 148.48 C592.77 148.48 598.44 149.31 605.86 149.99 C613.16 150.66 623.76 153.75 630.38 157.19 C637.1 160.67 640.43 165.84 642.86 173.9 C645.31 181.99 644.74 187.2 643.25 194.73 C641.76 202.24 639.59 204.62 633.84 208.83 C627.99 213.11 622.13 215.68 615.21 220.48 C608.3 225.29 602.8 231.69 602.8 231.69 C602.8 231.69 598.57 236.9 595.06 238.7 C591.55 240.5 588.21 238.76 588.21 238.76 L588.18 148.48 L592.78 148.48 Z"/>
    <g transform="matrix(-0.98018 0 0 0.81029 1242.900024 49.090999)">
      <path fill="#afc0c0" fill-rule="evenodd" d="M707.65 238.22 C712.11 242.75 712.4 245.77 712.42 253.83 C712.42 258.74 712.47 275.84 712.45 278.43 C712.38 284.92 706.19 288.6 706.19 288.6 C706.19 288.6 705.98 289.57 706.02 291.94 C706.08 301.23 706.02 294.85 705.95 302.92 C705.76 310.68 696.09 315.77 688.53 315.82 C680.06 315.87 680.19 315.71 672.66 315.74 L672.81 226.35 C672.81 226.35 676.73 226.44 679.93 226.44 C682.31 226.6 686.09 230.76 688.98 230.91 C691.86 231.06 703.18 233.68 707.65 238.22 Z"/>
      <path stroke-width="1.12" fill="none" stroke="#e0e0e1" d="M686.45 248.72 C723.97 248.72 706.78 248.77 706.78 248.77"/>
      <path stroke-width="1.12" fill="none" stroke="#e0e0e1" d="M673.01 252.24 L710.63 252.24"/>
      <path stroke-width="1.12" fill="none" stroke="#e0e0e1" d="M673.01 255.58 L710.74 255.58"/>
      <path stroke-width="1.12" fill="none" stroke="#e0e0e1" d="M673.01 258.7 L710.63 258.7"/>
      <path stroke-width="1.12" fill="none" stroke="#e0e0e1" d="M672.98 261.93 L710.5 261.93"/>
      <path stroke-width="1.12" fill="none" stroke="#e0e0e1" d="M672.96 265.26 L710.48 265.26"/>
      <path stroke-width="1.12" fill="none" stroke="#e0e0e1" d="M673.04 268.69 L710.45 268.69"/>
      <path stroke-width="1.12" fill="none" stroke="#e0e0e1" d="M673.04 271.98 L710.45 271.98"/>
      <path stroke-width="1.12" fill="none" stroke="#e0e0e1" d="M672.86 275.34 L710.69 275.34"/>
      <path stroke-width="1.12" fill="none" stroke="#e0e0e1" d="M672.73 279.13 L710.37 279.13"/>
      <path stroke-width="1.12" fill="none" stroke="#e0e0e1" d="M672.74 283.16 L707.88 283.16"/>
      <path stroke-width="1.12" fill="none" stroke="#e0e0e1" d="M686.21 245.7 L710.54 245.7"/>
      <path stroke-width="1.12" fill="none" stroke="#e0e0e1" d="M686.18 242.27 L707.99 242.27"/>
      <path stroke-width="1.12" fill="none" stroke="#e0e0e1" d="M672.77 238.92 L704.83 238.92"/>
      <path stroke-width="1.12" fill="none" stroke="#e0e0e1" d="M672.87 235.5 L700.56 235.5"/>
      <path stroke-width="1.12" fill="none" stroke="#e0e0e1" d="M672.38 232.45 L680.49 232.45"/>
      <path stroke-width="1.12" fill="none" stroke="#e0e0e1" d="M680.02 226.49 L680.02 232.18"/>
      <path stroke-width="1.12" fill="none" stroke="#e0e0e1" d="M672.74 286.73 L702.74 286.73"/>
      <path stroke-width="1.12" fill="none" stroke="#e0e0e1" d="M702.28 307.43 L702.28 286.59"/>
      <path stroke-width="1.12" fill="none" stroke="#e0e0e1" d="M672.51 306.99 L702.51 306.99"/>
    </g>
    <g transform="matrix(0.98018 0 0 0.81029 -68.570999 49.124)">
      <path fill="#afc0c0" fill-rule="evenodd" d="M707.65 238.22 C712.11 242.75 712.4 245.77 712.42 253.83 C712.42 258.74 712.47 275.84 712.45 278.43 C712.38 284.92 706.19 288.6 706.19 288.6 C706.19 288.6 705.98 289.57 706.02 291.94 C706.08 301.23 706.02 294.85 705.95 302.92 C705.76 310.68 696.09 315.77 688.53 315.82 C680.06 315.87 680.19 315.71 672.66 315.74 L672.81 226.35 C672.81 226.35 676.73 226.44 679.93 226.44 C682.31 226.6 686.09 230.76 688.98 230.91 C691.86 231.06 703.18 233.68 707.65 238.22 Z"/>
      <path stroke-width="1.12" fill="none" stroke="#e0e0e1" d="M686.14 249.09 C723.66 249.09 706.93 248.9 706.93 248.9"/>
      <path stroke-width="1.12" fill="none" stroke="#e0e0e1" d="M673.01 252.24 L710.63 252.24"/>
      <path stroke-width="1.12" fill="none" stroke="#e0e0e1" d="M673.01 255.58 L710.74 255.58"/>
      <path stroke-width="1.12" fill="none" stroke="#e0e0e1" d="M673.01 258.7 L710.63 258.7"/>
      <path stroke-width="1.12" fill="none" stroke="#e0e0e1" d="M672.98 261.93 L710.5 261.93"/>
      <path stroke-width="1.12" fill="none" stroke="#e0e0e1" d="M672.96 265.26 L710.48 265.26"/>
      <path stroke-width="1.12" fill="none" stroke="#e0e0e1" d="M673.04 268.69 L710.45 268.69"/>
      <path stroke-width="1.12" fill="none" stroke="#e0e0e1" d="M673.04 271.98 L710.45 271.98"/>
      <path stroke-width="1.12" fill="none" stroke="#e0e0e1" d="M672.86 275.34 L710.69 275.34"/>
      <path stroke-width="1.12" fill="none" stroke="#e0e0e1" d="M672.73 279.13 L710.37 279.13"/>
      <path stroke-width="1.12" fill="none" stroke="#e0e0e1" d="M672.74 283.16 L707.88 283.16"/>
      <path stroke-width="1.12" fill="none" stroke="#e0e0e1" d="M685.9 245.7 L710.54 245.7"/>
      <path stroke-width="1.12" fill="none" stroke="#e0e0e1" d="M685.56 242.27 L708.15 242.27"/>
      <path stroke-width="1.12" fill="none" stroke="#e0e0e1" d="M672.77 238.92 L704.83 238.92"/>
      <path stroke-width="1.12" fill="none" stroke="#e0e0e1" d="M672.87 235.5 L700.56 235.5"/>
      <path stroke-width="1.12" fill="none" stroke="#e0e0e1" d="M672.38 232.45 L680.49 232.45"/>
      <path stroke-width="1.12" fill="none" stroke="#e0e0e1" d="M680.02 226.49 L680.02 232.18"/>
      <path stroke-width="1.12" fill="none" stroke="#e0e0e1" d="M672.74 286.73 L702.74 286.73"/>
      <path stroke-width="1.12" fill="none" stroke="#e0e0e1" d="M702.28 307.43 L702.28 286.59"/>
      <path stroke-width="1.12" fill="none" stroke="#e0e0e1" d="M672.51 306.99 L702.51 306.99"/>
    </g>
    <path stroke-width="2" stroke-linecap="round" stroke-linejoin="round" stroke="#3f3f3f" d="M558.48 375.47 L615.76 375.47 C616.95 375.47 617.91 376.23 617.91 377.17 C617.91 378.1 616.95 378.86 615.76 378.86 L558.48 378.86 C557.29 378.86 556.33 378.1 556.33 377.17 C556.33 376.23 557.29 375.47 558.48 375.47 Z"/>
    <g transform="matrix(1 0 0 1 22 -356)">
      <path stroke-width="4.2" stroke-linecap="round" stroke-linejoin="round" stroke="#b3adad" d="M519.71 477.14 L613.06 477.14 C613.72 477.14 614.26 477.18 614.26 477.23 C614.26 477.27 613.72 477.31 613.06 477.31 L519.71 477.31 C519.04 477.31 518.5 477.27 518.5 477.23 C518.5 477.18 519.04 477.14 519.71 477.14 Z"/>
      <path stroke-width="4.2" fill="none" stroke="#b3adad" d="M462.17 467.53 C467.97 467.55 467.94 467.58 488.01 467.61 C500.01 467.62 506.79 466.98 512.09 471.43 C517.34 475.84 522.85 487.16 531.3 491.81 C535.02 493.86 546.23 495.27 555.06 495.27 C562.14 495.27 562.14 495.34 569.13 495.33"/>
      <path stroke-width="4.2" fill="none" stroke="#b3adad" d="M670.64 467.53 C664.84 467.55 664.87 467.58 644.8 467.61 C632.8 467.62 626.02 466.98 620.72 471.43 C615.47 475.84 609.96 487.16 601.51 491.81 C597.79 493.86 586.58 495.27 577.75 495.27 C570.67 495.27 570.67 495.34 563.68 495.33"/>
    </g>
    <path stroke-width="2.7" stroke-linecap="round" stroke-linejoin="round" fill="#070404" stroke="#484545" d="M587.04 136.77 L587.38 136.77 C588.65 136.77 589.68 137.8 589.68 139.06 L589.68 328.46 C589.68 329.73 588.65 330.75 587.38 330.75 L587.04 330.75 C585.78 330.75 584.75 329.73 584.75 328.46 L584.75 139.06 C584.75 137.8 585.78 136.77 587.04 136.77 Z"/>
    <g transform="matrix(1 0 0 1 0.21535 -0.86138)">
      <path stroke-width="9.4" fill="none" stroke="#333333" d="M576.44 251.64 C576.44 251.64 576.89 269.31 566.53 276.37 C555.92 283.59 542.29 278.64 540.23 272.62 C538.2 266.69 539.69 263.31 539.69 263.31"/>
      <g transform="matrix(0.16883 0 0 1 478.920013 0.60909)">
        <path stroke-width="22.15" stroke-linecap="round" stroke-linejoin="round" fill="#ffffff" fill-rule="evenodd" stroke="#333333" d="M578.64 251.1 C578.64 251.77 578.17 252.32 577.58 252.32 C576.99 252.33 576.51 251.78 576.51 251.11 C576.51 251.11 576.51 251.1 576.51 251.1 C576.51 250.43 576.98 249.88 577.57 249.88 C578.16 249.87 578.64 250.42 578.64 251.09 C578.64 251.09 578.64 251.1 578.64 251.1 Z"/>
      </g>
    </g>
    <g transform="matrix(-1 0 0 1 1174.300048 -0.71857)">
      <path stroke-width="9.4" fill="none" stroke="#333333" d="M576.44 251.64 C576.44 251.64 576.89 269.31 566.53 276.37 C555.92 283.59 542.29 278.64 540.23 272.62 C538.2 266.69 539.69 263.31 539.69 263.31"/>
      <g transform="matrix(0.16883 0 0 1 478.920013 0.60909)">
        <path stroke-width="22.15" stroke-linecap="round" stroke-linejoin="round" fill="#ffffff" fill-rule="evenodd" stroke="#333333" d="M578.64 251.1 C578.64 251.77 578.17 252.32 577.58 252.32 C576.99 252.33 576.51 251.78 576.51 251.11 C576.51 251.11 576.51 251.1 576.51 251.1 C576.51 250.43 576.98 249.88 577.57 249.88 C578.16 249.87 578.64 250.42 578.64 251.09 C578.64 251.09 578.64 251.1 578.64 251.1 Z"/>
      </g>
    </g>
    <path stroke-width="2.7" fill="#2586ee" fill-rule="evenodd" stroke="#2478de" d="M573.6 367.44 L570.4 273.66 C570.4 273.66 569.33 262.73 576.56 259 C583.78 255.27 590.72 255.14 597.68 258.87 C604.63 262.6 603.44 274.19 603.44 274.19 L600.37 367.51"/>
    <path fill="#222222" d="M573.04 293.18 L600.97 293.18 L600.97 456.87 L573.04 456.87 Z M600.69 293.18 C600.69 299.53 594.5 304.68 586.88 304.68 C579.26 304.68 573.07 299.53 573.07 293.18 C573.07 286.83 579.26 281.68 586.88 281.68 C594.5 281.68 600.69 286.83 600.69 293.18 Z M600.93 457.76 C600.93 464.11 594.69 469.26 587 469.26 C579.32 469.26 573.08 464.11 573.08 457.76 C573.08 451.41 579.32 446.26 587 446.26 C594.69 446.26 600.93 451.41 600.93 457.76 Z"/>
    <path stroke-width="2.53" stroke-linecap="round" stroke-linejoin="round" fill="#dfdfec" stroke="#dfdfec" d="M612.12 148.7 L612.59 148.7 C614.79 148.7 616.58 150.49 616.58 152.69 L616.58 312.49 C616.58 314.69 614.79 316.48 612.59 316.48 L612.12 316.48 C609.92 316.48 608.13 314.69 608.13 312.49 L608.13 152.69 C608.13 150.49 609.92 148.7 612.12 148.7 Z"/>
    <path stroke-width="2.53" stroke-linecap="round" stroke-linejoin="round" fill="#dfdfec" stroke="#cbcbcb" d="M612.38 135.58 C613.07 135.58 613.64 137.37 613.64 139.57 L613.64 312.52 C613.64 314.72 613.07 316.51 612.38 316.51 C611.69 316.51 611.12 314.72 611.12 312.52 L611.12 139.57 C611.12 137.37 611.69 135.58 612.38 135.58 Z"/>
    <path stroke-width="2.53" stroke-linecap="round" stroke-linejoin="round" fill="#3c97f1" stroke="#3c97f1" d="M618.44 307.3 L618.44 364.78 C618.44 369.4 615.69 373.12 612.27 373.12 C608.85 373.12 606.1 369.4 606.1 364.78 L606.1 307.3 C606.1 302.68 618.44 302.68 618.44 307.3 Z M608.9 380.86 L615.53 380.86 L615.53 370.41 L608.9 370.41 Z"/>
    <path stroke-width="2.53" stroke-linecap="round" stroke-linejoin="round" fill="#2586ee" stroke="#2478de" d="M616.56 308.25 L616.56 362.43 C616.56 366.79 614.67 370.29 612.33 370.29 C609.98 370.29 608.1 366.79 608.1 362.43 L608.1 308.25 C608.1 303.89 616.56 303.89 616.56 308.25 Z M610.88 379.42 L613.76 379.42 L613.92 367.74 L610.66 367.74 Z"/>
    <path stroke-width="2.53" stroke-linecap="round" stroke-linejoin="round" fill="#dfdfec" stroke="#dfdfec" d="M561.4 144.21 L561.87 144.21 C564.07 144.21 565.86 146 565.86 148.2 L565.86 310.51 C565.86 312.71 564.07 314.5 561.87 314.5 L561.4 314.5 C559.2 314.5 557.41 312.71 557.41 310.51 L557.41 148.2 C557.41 146 559.2 144.21 561.4 144.21 Z"/>
    <path stroke-width="2.53" stroke-linecap="round" stroke-linejoin="round" fill="#dfdfec" stroke="#cbcbcb" d="M561.66 134.83 C562.35 134.83 562.92 136.62 562.92 138.82 L562.92 310.58 C562.92 312.78 562.35 314.57 561.66 314.57 C560.97 314.57 560.4 312.78 560.4 310.58 L560.4 138.82 C560.4 136.62 560.97 134.83 561.66 134.83 Z"/>
    <path fill="#2478de" fill-rule="evenodd" stroke="#2478de" d="M553.95 202.73 L568.64 202.98 L582.09 213.56 L591.31 213.56 L591.47 222.43 L582.09 222.43 L568.17 211.59 L553.95 211.59 Z M620.23 202.73 L605.53 202.98 L592.09 213.56 L590.69 213.7 L590.71 222.43 L592.09 222.43 L606 211.59 L620.23 211.59 Z"/>
    <path stroke-width="3.5" fill="#2586ee" fill-rule="evenodd" stroke="#2586ee" d="M556.33 205.2 L567.28 205.29 L582.27 217 L592.4 217 L590.72 219.66 L582.73 219.51 L568.99 209.09 L556.33 209.09 Z M617.53 205.42 C610.84 205.44 610.83 205.41 606.42 205.44 L592.95 216.35 L582.5 216.29 L587.61 216.74 L591.66 219.36 L604.77 209.23 L617.53 209.24 Z"/>
    <path stroke-width="1.4" fill="#2478de" stroke="#2478de" d="M605.55 203.13 L605.55 211.66"/>
    <path stroke-width="1.4" fill="#2478de" stroke="#2478de" d="M568.62 203.19 L568.62 211.72"/>
    <path stroke-width="1.4" fill="#2478de" stroke="#2478de" d="M582.73 213.69 L582.73 222.22"/>
    <path stroke-width="1.4" fill="#2478de" stroke="#2478de" d="M591.77 213.69 L591.77 222.22"/>
    <g transform="matrix(1 0 0 1 -39.953998 -27.947)">
      <path stroke-width="1.6" fill="#2586ee" fill-rule="evenodd" stroke="#2478de" d="M523.42 134.16 L486.49 134.4 L486.49 142.78 L523.42 142.78 Z"/>
      <path fill="#2478de" stroke="#2478de" d="M491.38 134.77 L491.38 142.38"/>
      <path fill="#2478de" stroke="#2478de" d="M495.5 135 L495.5 142.61"/>
      <path fill="#2478de" stroke="#2478de" d="M499.38 134.77 L499.38 142.38"/>
      <path fill="#2478de" stroke="#2478de" d="M503.19 134.84 L503.19 142.45"/>
      <path fill="#2478de" stroke="#2478de" d="M506.69 134.69 L506.69 142.3"/>
      <path fill="#2478de" stroke="#2478de" d="M510.11 134.77 L510.11 142.38"/>
      <path fill="#2478de" stroke="#2478de" d="M513.16 134.84 L513.16 142.45"/>
      <path fill="#2478de" stroke="#2478de" d="M515.9 134.77 L515.9 142.38"/>
      <path fill="#2478de" stroke="#2478de" d="M518.49 134.69 L518.49 142.3"/>
      <path fill="#2478de" stroke="#2478de" d="M520.92 134.77 L520.92 142.38"/>
    </g>
    <g transform="matrix(-1 0 0 1 1216.800048 -28.156999)">
      <path stroke-width="1.6" fill="#2586ee" fill-rule="evenodd" stroke="#2478de" d="M523.42 134.16 L486.49 134.4 L486.49 142.78 L523.42 142.78 Z"/>
      <path fill="#2478de" stroke="#2478de" d="M491.38 134.77 L491.38 142.38"/>
      <path fill="#2478de" stroke="#2478de" d="M495.5 135 L495.5 142.61"/>
      <path fill="#2478de" stroke="#2478de" d="M499.38 134.77 L499.38 142.38"/>
      <path fill="#2478de" stroke="#2478de" d="M503.19 134.84 L503.19 142.45"/>
      <path fill="#2478de" stroke="#2478de" d="M506.69 134.69 L506.69 142.3"/>
      <path fill="#2478de" stroke="#2478de" d="M510.11 134.77 L510.11 142.38"/>
      <path fill="#2478de" stroke="#2478de" d="M513.16 134.84 L513.16 142.45"/>
      <path fill="#2478de" stroke="#2478de" d="M515.9 134.77 L515.9 142.38"/>
      <path fill="#2478de" stroke="#2478de" d="M518.49 134.69 L518.49 142.3"/>
      <path fill="#2478de" stroke="#2478de" d="M520.92 134.77 L520.92 142.38"/>
    </g>
    <path fill="#373737" fill-opacity="0.7" fill-rule="evenodd" stroke="#373737" stroke-opacity="0.7" d="M502.87 107.18 L484.71 107.36 L484.71 113.69 L502.87 113.69 Z"/>
    <path fill="#373737" fill-opacity="0.7" fill-rule="evenodd" stroke="#373737" stroke-opacity="0.7" d="M692.16 107.18 L674 107.36 L674 113.69 L692.16 113.69 Z"/>
    <path fill="#464646" fill-rule="evenodd" stroke="#5a5a5a" d="M459.01 109.73 L502.53 109.78 L502.53 111.42 L459.01 111.42 Z M453.43 110.35 C453.43 111.67 454.6 112.74 456.03 112.74 C457.46 112.74 458.62 111.67 458.62 110.35 C458.62 109.03 457.46 107.96 456.03 107.96 C454.6 107.96 453.43 109.03 453.43 110.35 Z"/>
    <g transform="matrix(1 0 0 1 21.708999 -358.100006)">
      <path stroke-width="4.2" stroke-linecap="round" stroke-linejoin="round" fill="none" stroke="#d5d5d5" stroke-opacity="0.35" d="M519.71 477.14 L613.06 477.14 C613.72 477.14 614.26 477.18 614.26 477.23 C614.26 477.27 613.72 477.31 613.06 477.31 L519.71 477.31 C519.04 477.31 518.5 477.27 518.5 477.23 C518.5 477.18 519.04 477.14 519.71 477.14 Z"/>
      <path stroke-width="4.2" fill="none" stroke="#d5d5d5" stroke-opacity="0.35" d="M462.17 467.53 C467.97 467.55 467.94 467.58 488.01 467.61 C500.01 467.62 506.79 466.98 512.09 471.43 C517.34 475.84 522.85 487.16 531.3 491.81 C535.02 493.86 546.23 495.27 555.06 495.27 C562.14 495.27 562.14 495.34 569.13 495.33"/>
      <path stroke-width="4.2" fill="none" stroke="#d5d5d5" stroke-opacity="0.35" d="M670.64 467.53 C664.84 467.55 664.87 467.58 644.8 467.61 C632.8 467.62 626.02 466.98 620.72 471.43 C615.47 475.84 609.96 487.16 601.51 491.81 C597.79 493.86 586.58 495.27 577.75 495.27 C570.67 495.27 570.67 495.34 563.68 495.33"/>
    </g>
    <path fill="#464646" fill-rule="evenodd" stroke="#5a5a5a" d="M717.55 109.45 L674.03 109.5 L674.03 111.14 L717.55 111.14 Z M723.13 110.07 C723.13 111.39 721.96 112.46 720.53 112.46 C719.1 112.46 717.94 111.39 717.94 110.07 C717.94 108.75 719.1 107.68 720.53 107.68 C721.96 107.68 723.13 108.75 723.13 110.07 Z"/>
    <path stroke-width="1.7" fill="#2586ee" fill-rule="evenodd" stroke="#2478de" d="M587.49 142.25 C550.94 143.23 550.71 146.62 550.71 146.62 C550.71 146.62 549.56 148.55 551.48 150.04 C553.41 151.54 587.47 151.13 587.47 151.13 Z"/>
    <path stroke-width="1.7" fill="#2586ee" fill-rule="evenodd" stroke="#2478de" d="M587.53 142.26 C624.07 143.24 624.31 146.62 624.31 146.62 C624.31 146.62 625.46 148.56 623.54 150.05 C621.61 151.54 587.55 151.14 587.55 151.14 Z"/>
    <g transform="matrix(3.7809 0 0 2.6068 -36.889999 -469.679992)">
      <path stroke-width="0.11" stroke-linecap="round" stroke-linejoin="round" fill="#3c97f1" stroke="#3c97f1" d="M163.64 226.24 C163.64 227.07 162.33 227.73 160.71 227.73 L160.42 227.73 C158.8 227.73 157.5 227.07 157.5 226.24 C157.5 225.41 158.8 224.75 160.42 224.75 L160.71 224.75 C162.33 224.75 163.64 225.41 163.64 226.24 Z M157.5 226.17 L163.65 226.17 L163.65 232.06 L157.5 232.06 Z"/>
      <path fill="#00aaff" d="M163.7 231.31 L163.7 232.37 C163.7 232.55 163.34 232.69 162.91 232.69 L158.25 232.69 C157.81 232.69 157.46 232.55 157.46 232.37 L157.46 231.31 C157.46 231.13 157.81 230.99 158.25 230.99 L162.91 230.99 C163.34 230.99 163.7 231.13 163.7 231.31 Z"/>
    </g>
    <g transform="matrix(3.7809 0 0 2.6068 -78.379997 -470.959991)">
      <path stroke-width="0.11" stroke-linecap="round" stroke-linejoin="round" fill="#2586ee" fill-opacity="0.3" stroke="#2478de" stroke-opacity="0.3" d="M174.58 226.11 C174.58 226.94 173.27 227.6 171.65 227.6 L171.36 227.6 C169.74 227.6 168.44 226.94 168.44 226.11 C168.44 225.28 169.74 224.62 171.36 224.62 L171.65 224.62 C173.27 224.62 174.58 225.28 174.58 226.11 Z M168.44 226.04 L174.59 226.04 L174.59 231.93 L168.44 231.93 Z"/>
      <path fill="#2586ee" fill-opacity="0.4" d="M174.59 231.64 L174.59 232.65 C174.59 232.82 174.24 232.96 173.81 232.96 L169.2 232.96 C168.77 232.96 168.42 232.82 168.42 232.65 L168.42 231.64 C168.42 231.47 168.77 231.33 169.2 231.33 L173.81 231.33 C174.24 231.33 174.59 231.47 174.59 231.64 Z"/>
    </g>
    <g transform="matrix(3.7809 0 0 2.6068 -0.97587 -469.470001)">
      <path stroke-width="0.11" stroke-linecap="round" stroke-linejoin="round" fill="#3c97f1" stroke="#3c97f1" d="M163.64 226.24 C163.64 227.07 162.33 227.73 160.71 227.73 L160.42 227.73 C158.8 227.73 157.5 227.07 157.5 226.24 C157.5 225.41 158.8 224.75 160.42 224.75 L160.71 224.75 C162.33 224.75 163.64 225.41 163.64 226.24 Z M157.5 226.17 L163.65 226.17 L163.65 232.06 L157.5 232.06 Z"/>
      <path fill="#3c97f1" d="M163.7 231.31 L163.7 232.37 C163.7 232.55 163.34 232.69 162.91 232.69 L158.25 232.69 C157.81 232.69 157.46 232.55 157.46 232.37 L157.46 231.31 C157.46 231.13 157.81 230.99 158.25 230.99 L162.91 230.99 C163.34 230.99 163.7 231.13 163.7 231.31 Z"/>
    </g>
    <g transform="matrix(3.7809 0 0 2.6068 -42.466999 -470.75)">
      <path stroke-width="0.11" stroke-linecap="round" stroke-linejoin="round" fill="#2586ee" fill-opacity="0.3" stroke="#2478de" stroke-opacity="0.3" d="M174.58 226.11 C174.58 226.94 173.27 227.6 171.65 227.6 L171.36 227.6 C169.74 227.6 168.44 226.94 168.44 226.11 C168.44 225.28 169.74 224.62 171.36 224.62 L171.65 224.62 C173.27 224.62 174.58 225.28 174.58 226.11 Z M168.44 226.04 L174.59 226.04 L174.59 231.93 L168.44 231.93 Z"/>
      <path fill="#2586ee" fill-opacity="0.4" d="M174.59 231.64 L174.59 232.65 C174.59 232.82 174.24 232.96 173.81 232.96 L169.2 232.96 C168.77 232.96 168.42 232.82 168.42 232.65 L168.42 231.64 C168.42 231.47 168.77 231.33 169.2 231.33 L173.81 231.33 C174.24 231.33 174.59 231.47 174.59 231.64 Z"/>
    </g>
    <g transform="matrix(0.88156 0 0 0.99665 -39.178001 -415.420013)">
      <path stroke-width="4.27" stroke-linecap="round" stroke-linejoin="round" fill="none" stroke="#b3b8ad" d="M738.33 576.35 C738.42 588.6 726.12 598.62 710.88 598.69 C695.65 598.76 683.2 588.87 683.11 576.61 C683.11 576.52 683.11 576.44 683.11 576.35 C683.02 564.1 695.32 554.08 710.55 554.01 C725.79 553.94 738.24 563.83 738.33 576.09 C738.33 576.18 738.33 576.26 738.33 576.35 Z"/>
    </g>
    <g transform="matrix(0.83419 0 0 0.93125 -5.803 -377.98001)">
      <path stroke-width="7.72" stroke-linecap="round" stroke-linejoin="round" fill="#b3adad" fill-opacity="0.8" fill-rule="evenodd" stroke="#b3adad" stroke-opacity="0.8" d="M738.33 576.35 C738.42 588.6 726.12 598.62 710.88 598.69 C695.65 598.76 683.2 588.87 683.11 576.61 C683.11 576.52 683.11 576.44 683.11 576.35 C683.02 564.1 695.32 554.08 710.55 554.01 C725.79 553.94 738.24 563.83 738.33 576.09 C738.33 576.18 738.33 576.26 738.33 576.35 Z"/>
    </g>
    <g transform="matrix(1.5199 0 0 1.5868 402.040008 -200.470001)">
      <path stroke-width="4.33" stroke-linecap="round" stroke-linejoin="round" fill="#fff400" stroke="#ffe700" d="M134.66 226.44 C134.66 232.49 128.97 237.41 121.95 237.42 C114.93 237.42 109.23 232.51 109.22 226.45 C109.22 226.45 109.22 226.44 109.22 226.44 C109.22 220.39 114.92 215.47 121.93 215.46 C128.95 215.46 134.66 220.37 134.66 226.43 C134.66 226.43 134.66 226.44 134.66 226.44 Z"/>
    </g>
    <g transform="matrix(0.87597 0 0 0.91503 480.380004 -48.444999)">
      <path fill="#fffff3" fill-opacity="0.6" d="M134.66 226.44 C134.66 232.49 128.97 237.41 121.95 237.42 C114.93 237.42 109.23 232.51 109.22 226.45 C109.22 226.45 109.22 226.44 109.22 226.44 C109.22 220.39 114.92 215.47 121.93 215.46 C128.95 215.46 134.66 220.37 134.66 226.43 C134.66 226.43 134.66 226.44 134.66 226.44 Z"/>
    </g>
    <g transform="matrix(0.83419 0 0 0.93125 -5.7653 -377.730011)">
      <path stroke-width="1.93" stroke-linecap="round" stroke-linejoin="round" fill="none" stroke="#f0f0f0" d="M738.33 576.35 C738.42 588.6 726.12 598.62 710.88 598.69 C695.65 598.76 683.2 588.87 683.11 576.61 C683.11 576.52 683.11 576.44 683.11 576.35 C683.02 564.1 695.32 554.08 710.55 554.01 C725.79 553.94 738.24 563.83 738.33 576.09 C738.33 576.18 738.33 576.26 738.33 576.35 Z"/>
    </g>
    <g transform="matrix(0.94788 0 0 1.083 -86.568 -465.160003)">
      <path stroke-width="0.49" stroke-linecap="round" stroke-linejoin="round" fill="none" stroke="#00aaff" d="M738.33 576.35 C738.42 588.6 726.12 598.62 710.88 598.69 C695.65 598.76 683.2 588.87 683.11 576.61 C683.11 576.52 683.11 576.44 683.11 576.35 C683.02 564.1 695.32 554.08 710.55 554.01 C725.79 553.94 738.24 563.83 738.33 576.09 C738.33 576.18 738.33 576.26 738.33 576.35 Z"/>
    </g>
    <path stroke-width="2.53" stroke-linecap="round" stroke-linejoin="round" fill="#3c97f1" stroke="#3c97f1" d="M568.01 307.32 L568.01 364.8 C568.01 369.42 565.26 373.14 561.84 373.14 C558.42 373.14 555.67 369.42 555.67 364.8 L555.67 307.32 C555.67 302.7 568.01 302.7 568.01 307.32 Z M558.47 380.88 L565.1 380.88 L565.1 370.43 L558.47 370.43 Z"/>
    <path stroke-width="2.53" stroke-linecap="round" stroke-linejoin="round" fill="#2586ee" stroke="#2478de" d="M566.13 308.27 L566.13 362.45 C566.13 366.81 564.24 370.32 561.9 370.32 C559.55 370.32 557.67 366.81 557.67 362.45 L557.67 308.27 C557.67 303.91 566.13 303.91 566.13 308.27 Z M560.45 379.44 L563.33 379.44 L563.49 367.76 L560.23 367.76 Z"/>
    <path stroke-width="1.7" stroke-linecap="round" stroke-linejoin="round" fill="#070404" fill-rule="evenodd" stroke="#333333" d="M625.81 305.95 L646.42 305.95 C647.61 305.95 648.58 306.91 648.58 308.1 L648.58 308.57 C648.58 309.76 647.61 310.72 646.42 310.72 L625.81 310.72 C624.62 310.72 623.66 309.76 623.66 308.57 L623.66 308.1 C623.66 306.91 624.62 305.95 625.81 305.95 Z"/>
    <path stroke-width="1.7" stroke-linecap="round" stroke-linejoin="round" fill="#070404" fill-rule="evenodd" stroke="#333333" d="M527.52 305.97 L548.13 305.97 C549.32 305.97 550.29 306.93 550.29 308.12 L550.29 308.59 C550.29 309.78 549.32 310.74 548.13 310.74 L527.52 310.74 C526.33 310.74 525.37 309.78 525.37 308.59 L525.37 308.12 C525.37 306.93 526.33 305.97 527.52 305.97 Z"/>
  </g>
</svg>
